<?xml version="1.0" standalone="no"?>
<!DOCTYPE svg PUBLIC "-//W3C//DTD SVG 1.1//EN" "http://www.w3.org/Graphics/SVG/1.1/DTD/svg11.dtd" >
<svg xmlns="http://www.w3.org/2000/svg" xmlns:xlink="http://www.w3.org/1999/xlink" version="1.1">
<metadata>
Created by FontForge 20201107 at Fri Dec  6 09:43:43 2024
 By 
Copyright (C) 2022 by UICreative. All Right Reserved. Viet hoa boi STYLEno.1 Fonts
</metadata>
<defs>
<font id="SVN-Mightiest-Regular" horiz-adv-x="899" >
  <font-face 
    font-family="SVN-Mightiest"
    font-weight="400"
    font-stretch="normal"
    units-per-em="2048"
    panose-1="0 0 0 0 0 0 0 0 0 0"
    ascent="1638"
    descent="-410"
    x-height="938"
    cap-height="1358"
    bbox="-113 -1395 2138 2036"
    underline-thickness="0"
    underline-position="0"
    unicode-range="U+000A-20AC"
  />
<missing-glyph horiz-adv-x="1079" 
d="M145 100l369 617l-369 614v-1231zM920 43l-379 631l-379 -631h758zM920 1393h-760l379 -633zM936 1335l-371 -618l371 -621v1239zM102 0v1434h875v-1434h-875z" />
    <glyph glyph-name=".notdef" horiz-adv-x="1079" 
d="M145 100l369 617l-369 614v-1231zM920 43l-379 631l-379 -631h758zM920 1393h-760l379 -633zM936 1335l-371 -618l371 -621v1239zM102 0v1434h875v-1434h-875z" />
    <glyph glyph-name="uni0000" horiz-adv-x="0" 
 />
    <glyph glyph-name="uni0000" horiz-adv-x="0" 
 />
    <glyph glyph-name="uni000D" unicode="&#xd;" horiz-adv-x="0" 
 />
    <glyph glyph-name="uni000A" unicode="&#xa;" horiz-adv-x="0" 
 />
    <glyph glyph-name="space" unicode=" " horiz-adv-x="583" 
 />
    <glyph glyph-name="exclam" unicode="!" horiz-adv-x="389" 
d="M221 342h-55l-76 1022h209zM195 190q38 0 66 -28t28 -66q0 -40 -28 -68t-66 -28q-40 0 -68.5 28t-28.5 68q0 38 28.5 66t68.5 28z" />
    <glyph glyph-name="quotedbl" unicode="&#x22;" horiz-adv-x="530" 
d="M147 1294q46 0 62.5 -14.5t13.5 -38.5l-41 -319h-69l-43 313q-4 34 16.5 46.5t60.5 12.5zM383 1294q46 0 62.5 -14.5t13.5 -38.5l-41 -319h-70l-41 313q-6 34 15 46.5t61 12.5z" />
    <glyph glyph-name="numbersign" unicode="#" horiz-adv-x="1064" 
d="M383 297h252l53 326h-250zM993 647v-24h-194l-56 -326h203v-25h-205l-45 -272h-110l45 272h-252l-49 -272h-109l49 272h-202v25h204l56 326h-209v24h213l55 336h109l-54 -336h250l53 336h109l-51 -336h190z" />
    <glyph glyph-name="dollar" unicode="$" horiz-adv-x="968" 
d="M545 555v-528q58 11 98.5 37.5t59.5 61.5t26.5 67t7.5 67q0 56 -20 107t-48 84t-56 57.5t-48 35.5zM479 768v545q-23 0 -58 -15.5t-72 -43.5t-63 -77t-26 -106q0 -58 22.5 -110.5t55 -86t64.5 -59t54 -36.5zM545 1317v-590q13 -9 44 -27.5t53.5 -33t55.5 -38t56.5 -45
t50 -52t42.5 -60.5t27 -68.5t11 -78.5q0 -135 -100 -225.5t-240 -108.5v-164h-66v160q-74 0 -143 11t-114.5 26.5t-80.5 31t-51 26.5l-16 11l61 131q6 -8 18 -21.5t49.5 -48t75.5 -61t93.5 -48t107.5 -21.5v563l-162 104q-125 95 -171 196.5t-9 221.5q18 59 60.5 106
t89 71.5t90.5 41t73 21.5l29 4v129h66v-125q67 0 127 -10.5t97 -25t65 -29.5t40 -25l11 -11l-58 -129q-4 8 -12 21t-35.5 45.5t-58 58t-78.5 46t-98 20.5z" />
    <glyph glyph-name="percent" unicode="%" horiz-adv-x="1409" 
d="M1032 59q43 0 71 26t39 72.5t14 80t3 79.5q0 238 -121 238q-125 0 -125 -252q0 -244 119 -244zM250 1044q0 -243 119 -243q127 0 127 258q0 239 -121 239q-125 0 -125 -254zM678 1057q0 -141 -84.5 -228.5t-224.5 -87.5q-134 0 -217.5 85.5t-83.5 217.5q0 137 85 224.5
t222 87.5q136 0 219.5 -81.5t83.5 -217.5zM322 0l651 1356h112l-651 -1356h-112zM1038 614q137 0 219 -81.5t82 -217.5q0 -141 -83.5 -228t-223.5 -87q-134 0 -217.5 84.5t-83.5 218.5q0 139 84 225t223 86z" />
    <glyph glyph-name="ampersand" unicode="&#x26;" horiz-adv-x="1298" 
d="M547 49q64 -4 128.5 12.5t114.5 45t84 54.5t56 50l-438 545q-7 -2 -18.5 -7t-44 -20.5t-60.5 -32t-58 -42.5t-47 -52q-44 -68 -52 -146t18.5 -146.5t72.5 -126.5t111 -93.5t133 -40.5zM471 1049l139 -211q7 2 18 8t39 31.5t48 60.5q44 81 45 171.5t-42.5 153t-117.5 62.5
q-60 1 -106.5 -38t-55.5 -100.5t33 -137.5zM1036 309l246 -319h-174l-154 196q-82 -96 -219 -156.5t-264 -60.5q-133 0 -244.5 74.5t-142.5 198.5q-91 349 384 533q5 2 7 3q-8 13 -41 61t-50 76t-33 76t-15 92q1 120 80 192.5t200 72.5q100 0 169 -62.5t77 -159.5
q4 -57 -18.5 -109t-57.5 -86.5t-71 -60.5t-62 -38l-26 -11l389 -483q8 15 21.5 42t41.5 102.5t41 142.5h31q-16 -76 -44.5 -155t-49.5 -120z" />
    <glyph glyph-name="quotesingle" unicode="'" horiz-adv-x="294" 
d="M147 1294q46 0 62.5 -14.5t13.5 -38.5l-41 -319h-69l-43 313q-4 34 16.5 46.5t60.5 12.5z" />
    <glyph glyph-name="parenleft" unicode="(" horiz-adv-x="477" 
d="M477 1464q-248 -336 -248 -809q0 -471 248 -807l-92 -63q-141 174 -217 405.5t-76 464.5q0 234 76 467.5t217 407.5z" />
    <glyph glyph-name="parenright" unicode=")" horiz-adv-x="477" 
d="M92 1530q140 -176 215.5 -408.5t75.5 -464.5q0 -233 -75.5 -463t-215.5 -409l-94 63q250 339 250 809q0 468 -250 807z" />
    <glyph glyph-name="asterisk" unicode="*" horiz-adv-x="561" 
d="M494 1266l-140 -119l125 -109l-61 -73l-90 77v-139h-97v139l-90 -77l-61 73l127 109l-139 119l61 73l102 -88v142h97v-142l104 88z" />
    <glyph glyph-name="plus" unicode="+" horiz-adv-x="1093" 
d="M635 745h405v-83h-405v-457h-176v457h-406v83h406v447h176v-447z" />
    <glyph glyph-name="comma" unicode="," horiz-adv-x="333" 
d="M156 184q39 0 65.5 -16.5t35 -39.5t13 -48t-1.5 -43q-8 -45 -32 -85.5t-52.5 -66t-51 -40.5t-34.5 -19l-16 31q31 25 72.5 71.5t46.5 83.5l-3 -2q-4 -2 -9.5 -4.5t-12.5 -5t-17 -4.5t-20 -2q-30 0 -49.5 20t-25 37.5t-5.5 28.5q0 40 23 65.5t42.5 32t31.5 6.5z" />
    <glyph glyph-name="hyphen" unicode="-" horiz-adv-x="659" 
d="M600 614h-543v146h543v-146z" />
    <glyph glyph-name="period" unicode="." horiz-adv-x="309" 
d="M154 190q40 0 68 -28t28 -66q0 -40 -28 -68t-68 -28q-38 0 -66.5 28t-28.5 68q0 38 28.5 66t66.5 28z" />
    <glyph glyph-name="slash" unicode="/" horiz-adv-x="919" 
d="M281 2h-179l537 1354h178z" />
    <glyph glyph-name="zero" unicode="0" horiz-adv-x="1083" 
d="M543 1350q102 0 183 -43t130.5 -110.5t81.5 -159t44.5 -180t12.5 -181.5t-12.5 -181.5t-45 -180t-82 -159t-130 -110.5t-182.5 -43t-183 43t-130.5 110.5t-82 159t-45 180t-12.5 181.5q0 77 9 151.5t28.5 152.5t55 143t83.5 116.5t119.5 81t157.5 29.5zM793 217
q59 161 59 463q0 162 -13 269.5t-46 195.5q-67 184 -256 184q-190 0 -254 -184q-33 -89 -46.5 -197t-13.5 -268q0 -299 60 -463q65 -182 254 -182q188 0 256 182z" />
    <glyph glyph-name="one" unicode="1" horiz-adv-x="405" 
d="M84 1262l217 94v-1356h-139v1116q0 30 -8 56t-19.5 41.5t-23 27t-19.5 16.5z" />
    <glyph glyph-name="two" unicode="2" horiz-adv-x="997" 
d="M172 117h719v-113l-809 -2v84q20 19 74 60t113 87.5t130 107.5t134 132t116 150t84 173t31 189q0 146 -68 245t-186 99q-113 0 -198.5 -100t-104.5 -242l-137 8q3 29 21 73t56.5 96t89 96t126 74t159.5 30q163 0 275 -98.5t112 -266.5q0 -113 -49.5 -226.5t-119.5 -198.5
t-165.5 -169t-168 -133.5t-148.5 -98t-86 -56.5z" />
    <glyph glyph-name="three" unicode="3" horiz-adv-x="987" 
d="M555 741q63 -9 122.5 -34.5t110 -66.5t81 -103.5t30.5 -137.5q0 -88 -27 -159.5t-69.5 -116.5t-97.5 -76t-108 -44t-103 -13q-99 0 -184 23.5t-134 56.5t-76 61.5t-30 44.5l106 27q22 -89 102.5 -142t178.5 -53q59 0 112.5 20t97.5 59.5t70.5 104.5t26.5 148
q0 101 -29.5 176t-69.5 113t-96 61t-94 28t-78 5h-35v39h46q78 0 153.5 46t121.5 117.5t46 141.5q0 123 -63 196.5t-170 73.5q-56 0 -102 -21t-77 -55.5t-53 -81.5t-33 -96.5t-14 -103.5l-115 25q0 163 109 263.5t281 100.5q157 0 262 -88q102 -88 102 -207
q0 -102 -93.5 -199t-207.5 -133z" />
    <glyph glyph-name="four" unicode="4" horiz-adv-x="974" 
d="M94 315h518v797zM754 315h151v-39h-151v-274h-142v274h-569v33l682 1051h29v-1045z" />
    <glyph glyph-name="five" unicode="5" horiz-adv-x="999" 
d="M526 872q168 0 278.5 -120.5t110.5 -317.5q0 -193 -123 -320.5t-307 -127.5q-89 0 -164 21t-118 50.5t-73 59t-41 50.5l-11 21l84 52q55 -112 135.5 -169t167.5 -57q126 0 216.5 106t90.5 283q0 78 -14 148t-44.5 132.5t-87 100t-132.5 37.5t-157 -28.5t-124 -56.5
l-43 -29l-45 6l94 630h631l-23 -139h-583l-70 -444q7 5 19 12.5t50 26.5t77 34t96 27t110 12z" />
    <glyph glyph-name="six" unicode="6" horiz-adv-x="1058" 
d="M553 37q121 0 203 106t82 263q0 73 -18 141.5t-52.5 125.5t-92.5 91.5t-130 34.5q-120 0 -205.5 -117t-85.5 -281q0 -148 89 -256t210 -108zM608 854q63 0 127.5 -29t120 -80.5t90.5 -135t35 -181.5q0 -50 -16 -105t-52 -113t-87 -104t-129.5 -75t-170.5 -29
q-86 0 -165 35.5t-141 100t-99 163.5t-37 217q0 129 32 243.5t85.5 198t123 152.5t143.5 114t148.5 76t136.5 44.5t109 13.5v-43q-43 0 -97 -13.5t-118 -44.5t-126 -75.5t-120.5 -113t-102.5 -151t-70.5 -194.5t-26.5 -238q1 8 4 21t16.5 51t31 73t51 77t73.5 72.5
t100.5 51.5t130.5 21z" />
    <glyph glyph-name="seven" unicode="7" horiz-adv-x="962" 
d="M72 1358h788v-82q-72 -101 -138.5 -206t-137.5 -241.5t-122 -267.5t-84.5 -279t-33.5 -280h-168q0 136 52 297.5t122 293t164.5 271t153.5 214.5t116 141h-733z" />
    <glyph glyph-name="eight" unicode="8" horiz-adv-x="1069" 
d="M551 29q143 0 235.5 78t92.5 198q0 146 -162 230q-243 124 -295 149q-85 -37 -137 -106t-66 -142.5t0 -144.5q10 -48 34.5 -92.5t63.5 -83.5t100 -62.5t134 -23.5zM291 1036q0 -146 153 -229q45 -24 94.5 -48.5t75.5 -36.5t27 -13q93 38 148 118.5t55 178.5
q0 125 -82.5 209.5t-183.5 84.5q-113 0 -200 -80t-87 -184zM979 391q10 -64 -10 -131t-66 -121q-117 -145 -371 -145q-73 0 -148 19t-144.5 58t-113.5 109t-44 160q0 70 24.5 130.5t57 98.5t77 70t73.5 46t57 24q-70 34 -121 97.5t-68 139.5q-38 165 88 297q101 107 299 107
h17q79 -1 149 -32t117 -85q89 -104 74 -242q-10 -94 -79.5 -182t-160.5 -123q27 -13 52.5 -26t69 -42t75.5 -59.5t60 -75.5t36 -92z" />
    <glyph glyph-name="nine" unicode="9" horiz-adv-x="1058" 
d="M514 563q120 0 204.5 116.5t86.5 281.5q0 148 -89 256t-210 108t-203 -106t-82 -263q0 -73 18 -141.5t52.5 -125.5t92.5 -91.5t130 -34.5zM532 1360q86 0 165 -35.5t141.5 -100t99.5 -163.5t37 -217q0 -129 -32 -243.5t-85.5 -198t-123 -152.5t-143.5 -114t-148.5 -76
t-136.5 -44.5t-109 -13.5v43q43 0 97 13.5t118 44.5t126 75.5t120.5 112.5t102.5 150.5t70.5 194.5t26.5 238q-1 -8 -4 -21t-16.5 -51t-31 -72.5t-51 -77t-73.5 -72.5t-100.5 -51t-130.5 -21q-63 0 -127.5 29t-120 80.5t-90.5 135t-35 181.5q0 50 16 105t52 113t87 104
t129 75t170 29z" />
    <glyph glyph-name="colon" unicode=":" horiz-adv-x="333" 
d="M166 0q-38 0 -66 28t-28 68q0 38 28 66t66 28q40 0 68 -28t28 -66q0 -40 -28 -68t-68 -28zM166 801q-38 0 -66 28t-28 66q0 40 28 68t66 28q40 0 68 -28t28 -68q0 -38 -28 -66t-68 -28z" />
    <glyph glyph-name="semicolon" unicode=";" horiz-adv-x="356" 
d="M168 186q39 0 65.5 -16.5t35.5 -40t13.5 -49t-1.5 -43.5q-15 -82 -75 -141t-95 -70l-17 33q27 19 70.5 68t48.5 87q-20 -20 -61 -20q-30 0 -49.5 20t-25 37.5t-5.5 28.5q0 30 13 53t31 33.5t31.5 15t20.5 4.5zM178 795q-40 0 -68 28t-28 66q0 40 28 68t68 28q38 0 66 -28
t28 -68q0 -38 -28 -66t-66 -28z" />
    <glyph glyph-name="less" unicode="&#x3c;" horiz-adv-x="1130" 
d="M1057 225l-996 455v141l996 453v-88l-862 -389l862 -398v-174z" />
    <glyph glyph-name="equal" unicode="=" horiz-adv-x="1130" 
d="M1059 883h-987v176h987v-176zM1059 512h-987v176h987v-176z" />
    <glyph glyph-name="greater" unicode="&#x3e;" horiz-adv-x="1130" 
d="M72 225v88l864 389l-864 400v172l995 -453v-141z" />
    <glyph glyph-name="question" unicode="?" horiz-adv-x="978" 
d="M500 1380q182 0 295.5 -95.5t113.5 -244.5q0 -65 -25.5 -122.5t-66 -100.5t-89.5 -83t-98 -77t-89.5 -75t-66 -86t-25.5 -101v-65h-58v59q0 62 20 117.5t52.5 97.5t71 82t77.5 79t71.5 78.5t52.5 89.5t20 105q0 52 -16.5 104.5t-47.5 99t-84 75.5t-119 29
q-77 0 -133.5 -35t-85.5 -93t-42 -119t-13 -128l-162 24q-1 4 2 25.5t14.5 57t30.5 75t54 80.5t80 73.5t114.5 53t151.5 20.5zM418 190q40 0 67 -28t27 -68q0 -39 -27.5 -66.5t-66.5 -27.5t-66.5 27.5t-27.5 66.5q0 40 27 68t67 28z" />
    <glyph glyph-name="at" unicode="@" horiz-adv-x="1935" 
d="M946 213q116 0 202.5 109t86.5 258q0 33 -5 71t-23 91.5t-47.5 95t-85 71t-128.5 29.5q-72 0 -127.5 -29.5t-85.5 -71t-49.5 -94.5t-25 -92t-5.5 -71q0 -92 36 -175.5t104.5 -137.5t152.5 -54zM1239 864v113h119v-596q0 -91 37 -129.5t94 -38.5q72 0 129.5 79t83.5 209.5
t10 270.5q-12 99 -43 188.5t-90 175t-141 147t-202.5 99t-266.5 37.5q-147 0 -270.5 -48t-208 -129.5t-143.5 -190t-86.5 -228t-27.5 -245.5q0 -62 9.5 -131t33 -151.5t59.5 -158.5t95 -148t133 -125.5t178.5 -85.5t227.5 -32t266 66t254 163l57 -73q-241 -209 -577 -209
q-189 0 -353.5 66.5t-280.5 183.5t-182.5 281.5t-66.5 353.5q0 253 113.5 454.5t315 314.5t454.5 113q383 0 633 -235q251 -236 251 -578q0 -81 -24.5 -165t-69 -156.5t-117 -119t-159.5 -46.5q-50 0 -91 19.5t-63 47t-37 55t-20 46.5l-4 20q-60 -89 -145 -140.5t-187 -51.5
q-179 0 -293.5 122t-114.5 302q0 181 114 302.5t294 121.5q187 0 303 -140z" />
    <glyph glyph-name="A" unicode="A" horiz-adv-x="1150" 
d="M764 539l-264 649l-262 -649h526zM229 514l-209 -514h-24l487 1221l-53 137h166l559 -1358h-162l-215 514h-549z" />
    <glyph glyph-name="B" unicode="B" horiz-adv-x="1071" 
d="M254 23h223q101 0 179.5 28.5t124 76.5t68.5 104t23 116q0 84 -24.5 148t-65 103.5t-100 64t-122.5 34t-140 9.5h-164zM444 1329h-188v-602h162q154 0 228.5 81.5t74.5 248.5q0 122 -75 197t-202 75zM582 717q73 -4 150 -27.5t147 -63.5t114.5 -105t44.5 -142
q0 -84 -34.5 -151.5t-89.5 -109t-127 -69t-142 -38.5t-141 -11h-402v1358q401 -2 424 -2q173 0 268 -85t95 -222q0 -129 -86 -207t-223 -113q-4 -1 -3.5 -6.5t5.5 -5.5z" />
    <glyph glyph-name="C" unicode="C" horiz-adv-x="1357" 
d="M1331 332q-23 -35 -35.5 -53t-46 -60.5t-61.5 -68.5t-75 -61t-94 -55t-111 -35t-132 -15q-111 0 -216.5 27t-199 83t-164.5 135t-112 190t-41 240q0 204 99 367.5t275 255.5t396 92q121 0 247.5 -30t186.5 -66v-223q-11 12 -31 31.5t-79.5 69.5t-116.5 88.5t-133 70
t-139 31.5q-251 0 -401 -165t-150 -440q0 -113 26.5 -218.5t79.5 -195.5t127 -157.5t175 -106t218 -38.5q72 0 144 27t126.5 66t101.5 87t75 87t41 68l26 -24z" />
    <glyph glyph-name="D" unicode="D" horiz-adv-x="1267" 
d="M1055 627q0 103 -23 201.5t-72.5 188.5t-120.5 158t-174.5 108t-226.5 40h-182l-2 -1300h270q264 0 397.5 152t133.5 452zM528 0h-426v1358h418q140 0 257.5 -37t198.5 -100.5t137.5 -148t82.5 -178t27 -192.5q0 -152 -51 -282.5t-141.5 -222.5t-220.5 -144.5t-282 -52.5
z" />
    <glyph glyph-name="E" unicode="E" horiz-adv-x="964" 
d="M410 1329h-156v-598q0 -4 2 -4h453v-29h-453q-2 0 -2 -2v-667h156q91 0 227 16.5t227 32.5l90 16v-94h-852v1358h852v-94q-339 65 -544 65z" />
    <glyph glyph-name="F" unicode="F" horiz-adv-x="946" 
d="M410 1329h-156v-598q0 -4 2 -4h453v-29h-453q-2 0 -2 -2v-696h-152v1358h852v-94q-339 65 -544 65z" />
    <glyph glyph-name="G" unicode="G" horiz-adv-x="1392" 
d="M1249 162q-4 -3 -29 -20.5t-39 -27t-45.5 -28.5t-56.5 -30.5t-63 -26.5t-73 -24t-79 -15t-88 -6q-111 0 -216.5 27t-199 83t-164.5 135t-112 190t-41 240q0 204 99 367.5t275 255.5t396 92q121 0 247.5 -30t186.5 -66v-227q-11 12 -31 32t-79.5 70.5t-116.5 89.5t-133 71
t-139 32q-251 0 -401 -165t-150 -440q0 -161 54 -304.5t152 -241.5q183 -183 420 -183q66 0 127 19.5t106 50t71.5 54.5t46.5 48q12 12 12 35v414h149l2 -432q-51 -16 -88 -39z" />
    <glyph glyph-name="H" unicode="H" horiz-adv-x="1161" 
d="M909 1358h152l-2 -1358h-150v698h-657v-698h-150v1358h152l-2 -631h657v631z" />
    <glyph glyph-name="I" unicode="I" horiz-adv-x="356" 
d="M252 0h-150v1358h150v-1358z" />
    <glyph glyph-name="J" unicode="J" horiz-adv-x="425" 
d="M12 0v31q85 0 124.5 40.5t39.5 155.5v1131h150v-1116q0 -40 -6 -73t-17 -56.5t-26 -42t-33.5 -30t-39 -20.5t-42.5 -12l-44 -6t-44 -2t-42 0h-20z" />
    <glyph glyph-name="K" unicode="K" horiz-adv-x="1153" 
d="M1151 25l14 2l-4 -27q-14 4 -57 4h-113q-34 0 -61.5 5t-55 21t-47 31.5t-50.5 51.5t-53 64.5t-65 86.5l-4 6l-301 422l-104 -100v-572q0 -8 -6 -14t-15 -6h-108q-8 0 -14.5 6.5t-6.5 13.5v1317q0 8 6 14.5t15 6.5h110q7 0 14 -7t7 -14l-2 -706l725 727h37l-553 -557
q0 -2 70.5 -100.5t161.5 -225.5t124 -174q192 -276 336 -276z" />
    <glyph glyph-name="L" unicode="L" horiz-adv-x="946" 
d="M102 0v1358h152v-1329h156q91 0 227 16.5t227 32.5l90 16v-94h-852z" />
    <glyph glyph-name="M" unicode="M" horiz-adv-x="1525" 
d="M78 0h-27l142 1358h86l528 -1161l455 1161h98l102 -1356h-151l-88 1161l-461 -1159h-33l-526 1172z" />
    <glyph glyph-name="N" unicode="N" horiz-adv-x="1146" 
d="M131 0h-31v1358h117l797 -1082l-2 1082h35v-1354h-23l-891 1190z" />
    <glyph glyph-name="O" unicode="O" horiz-adv-x="1460" 
d="M1270 545q-4 114 -33.5 227t-84 213.5t-127.5 178t-169.5 122.5t-202.5 45q-202 0 -325 -129q-142 -148 -133 -409q4 -111 33.5 -221t84 -208t127.5 -173.5t169.5 -119.5t203.5 -44q206 0 328 125q138 141 129 393zM1413 672q0 -137 -39.5 -252t-105.5 -193.5
t-154.5 -134t-185 -81t-197.5 -25.5t-198 26t-185.5 81.5t-155 135.5t-106 196.5t-39.5 254.5q0 200 87 356.5t243 243t354 86.5q130 0 250.5 -45t217.5 -129.5t155.5 -219.5t58.5 -300z" />
    <glyph glyph-name="P" unicode="P" horiz-adv-x="966" 
d="M256 1331v-766h139q184 0 282.5 95t98.5 270q0 60 -11 116t-37 108.5t-65 91t-99 62t-134 23.5h-174zM938 975q0 -112 -46 -198t-124.5 -136t-172.5 -75t-200 -25h-139v-541h-154v1358h406q92 0 166.5 -23.5t122.5 -61t80.5 -88.5t46.5 -103t14 -107z" />
    <glyph glyph-name="Q" unicode="Q" horiz-adv-x="1470" 
d="M1270 545q-4 114 -33.5 227t-84 213.5t-127.5 178t-169.5 122.5t-202.5 45q-202 0 -325 -129q-142 -148 -133 -409q4 -111 33.5 -221t84 -208t127.5 -173.5t169.5 -119.5t203.5 -44q169 0 289 90q-5 6 -15 16.5t-39.5 37.5t-58.5 47t-67.5 37t-71.5 17v27
q48 0 96.5 -13.5t83.5 -32.5t63.5 -38.5t42.5 -32.5l15 -14q128 143 119 377zM1407 55v-98q-63 0 -119.5 22.5t-87 47t-78.5 69.5q-179 -110 -391 -110q-101 0 -198 26t-185.5 81.5t-155 135.5t-106 196.5t-39.5 254.5q0 200 87 356.5t243 243t354 86.5q130 0 250.5 -45
t217.5 -129.5t155.5 -219.5t58.5 -300q0 -163 -60 -299.5t-171 -229.5q45 -42 105 -65t120 -23z" />
    <glyph glyph-name="R" unicode="R" horiz-adv-x="1019" 
d="M256 1331v-766h139q184 0 282.5 95t98.5 270q0 60 -11 116t-37 108.5t-65 91t-99 62t-134 23.5h-174zM485 545q43 -74 206.5 -207t297.5 -191l-96 -143q-190 78 -436 539q-20 -2 -62 -2h-139v-541h-154v1358h406q92 0 166.5 -23.5t122.5 -61t80.5 -88.5t46.5 -103
t14 -107q0 -184 -119 -296t-334 -134z" />
    <glyph glyph-name="S" unicode="S" horiz-adv-x="978" 
d="M946 371q0 -88 -39 -162t-103 -122t-144 -74.5t-164 -26.5t-161.5 18t-128 44t-88.5 52t-56 44l-17 18l96 153q7 -12 20 -31.5t56 -69.5t88.5 -88t113 -69.5t134.5 -31.5q110 0 192 70t82 179q0 39 -14 75t-33 63.5t-54.5 55.5t-62.5 45.5t-74.5 40.5t-73 33.5
t-73.5 30.5q-46 17 -69.5 26.5t-64 27t-62 30.5t-53 34t-48.5 41t-37.5 48t-30.5 58t-17 68.5t-7 82.5q0 139 125.5 235.5t310.5 96.5q71 0 135.5 -10.5t106 -25t73.5 -29t46 -25.5l14 -10l-98 -142q-68 72 -177.5 125.5t-205.5 53.5q-81 0 -146.5 -33t-89.5 -82
q-37 -73 -9.5 -144.5t87.5 -126.5t137 -88l267 -112q153 -61 235 -151t82 -195z" />
    <glyph glyph-name="T" unicode="T" horiz-adv-x="995" 
d="M578 0h-154v1329h-133q-64 0 -139 -18t-118 -36l-44 -18v101h1016v-101q-18 8 -48 20t-111 32t-149 20h-120v-1329z" />
    <glyph glyph-name="U" unicode="U" horiz-adv-x="1196" 
d="M1108 518q0 -258 -123.5 -395t-355.5 -137q-41 0 -81.5 4t-96.5 17t-104 34.5t-97.5 61t-84.5 92t-57 131t-22 174.5v858h152v-846q0 -240 116.5 -367t337.5 -127q59 0 113.5 16t106 53.5t89.5 92.5t61 140.5t23 191.5l-2 846h25v-840z" />
    <glyph glyph-name="V" unicode="V" horiz-adv-x="1107" 
d="M586 -4h-51l-539 1362h164q447 -1149 461 -1190q11 18 125 315.5t222 586.5l109 288h35z" />
    <glyph glyph-name="W" unicode="W" horiz-adv-x="1728" 
d="M1698 1358h33l-527 -1362h-51l-287 727l-280 -727h-51l-539 1362h164q447 -1151 461 -1190q14 21 223 571q6 19 0 41l-230 578h164q68 -176 152 -391l147 391h35l-160 -410q-6 -22 0 -41q54 -137 126.5 -323t115.5 -296t47 -120q10 18 124.5 315.5t223.5 586.5z" />
    <glyph glyph-name="X" unicode="X" horiz-adv-x="1024" 
d="M31 0h-31l446 672l-415 686h172l348 -574l383 574h29l-394 -596l455 -762h-168l-393 647z" />
    <glyph glyph-name="Y" unicode="Y" horiz-adv-x="956" 
d="M557 0h-154v610l-415 748h178l379 -711l395 711h29l-412 -742v-616z" />
    <glyph glyph-name="Z" unicode="Z" horiz-adv-x="958" 
d="M950 0h-942v23l756 1308h-295q-114 0 -220 -15.5t-155 -31.5l-49 -16v90h885v-19l-766 -1310h305q123 0 243 16.5t179 32.5l59 16v-94z" />
    <glyph glyph-name="bracketleft" unicode="[" horiz-adv-x="342" 
d="M444 1382h-206v-1462h206v-135h-342v1733h342v-136z" />
    <glyph glyph-name="backslash" unicode="\" horiz-adv-x="919" 
d="M817 0h-178l-537 1354h179z" />
    <glyph glyph-name="bracketright" unicode="]" horiz-adv-x="342" 
d="M-104 1518h342v-1733h-342v135h206v1462h-206v136z" />
    <glyph glyph-name="underscore" unicode="_" horiz-adv-x="1312" 
d="M1208 -205h-1106v72h1106v-72z" />
    <glyph glyph-name="a" unicode="a" 
d="M680 174v465q-8 -15 -27 -31t-53 -34t-58.5 -29.5t-73.5 -33.5t-67 -30q-196 -89 -196 -264q0 -74 61 -121t154 -47q39 0 80.5 13t72.5 31.5t56 36.5t38 31zM459 938q163 0 259.5 -85.5t96.5 -244.5v-604h-135v135q-6 -6 -16.5 -15.5t-48 -34t-79.5 -43.5t-108.5 -34.5
t-136.5 -15.5q-112 0 -180 61t-68 158q0 33 12 63.5t28 53.5t46 46.5t52.5 38t61.5 32.5t58.5 26t59 23t47.5 18q4 2 24.5 10.5t34 14t38 16.5t41.5 20.5t39.5 21.5t37.5 23.5t29 24.5t21 26t7 25q0 98 -51 160t-164 62q-49 0 -99.5 -24.5t-86.5 -59.5t-65.5 -70t-44.5 -60
l-15 -24l-58 94q47 58 148 110t215 52z" />
    <glyph glyph-name="b" unicode="b" horiz-adv-x="1034" 
d="M545 12q139 0 223 99.5t84 271.5q0 58 -9.5 119.5t-35 132t-64 124.5t-103.5 90t-146 36q-123 0 -256 -90v-672q5 -5 15 -12t42.5 -26.5t66.5 -34t84 -26.5t99 -12zM582 938q173 0 286 -126t113 -320q0 -94 -30.5 -183.5t-85 -160.5t-138 -114.5t-182.5 -43.5
q-51 0 -102.5 10.5t-89 26t-67.5 31t-46 26.5l-15 10l-112 -90h-21v1356h146v-539q190 117 344 117z" />
    <glyph glyph-name="c" unicode="c" horiz-adv-x="944" 
d="M907 258l13 -16q-194 -254 -437 -254q-82 0 -158.5 29t-138.5 83.5t-99.5 141.5t-37.5 194q0 213 139.5 357.5t350.5 144.5q223 0 327 -182l-127 -41q-3 8 -9.5 21.5t-30 48t-51 61t-74.5 48t-99 21.5q-62 0 -113 -22.5t-86 -60.5t-58.5 -88.5t-34.5 -105.5t-11 -112
q0 -194 111 -312t292 -118q189 0 332 162z" />
    <glyph glyph-name="d" unicode="d" horiz-adv-x="1024" 
d="M788 188v490q-23 90 -110 160.5t-195 70.5q-138 0 -220.5 -96.5t-82.5 -257.5q0 -90 22 -174.5t64.5 -155t113 -113t159.5 -42.5q128 0 249 118zM791 752v608h141v-1356h-137v166q-11 -14 -27 -31t-50.5 -44.5t-71 -49t-88 -37.5t-103.5 -16q-172 0 -289 135.5
t-117 331.5q0 59 15 122t49.5 126t83.5 112t124 80t164 31q56 0 107.5 -18.5t90 -49.5t63.5 -56.5t45 -53.5z" />
    <glyph glyph-name="e" unicode="e" horiz-adv-x="966" 
d="M174 528q0 -1 6 -61l559 135q-4 29 -11.5 61t-27.5 79.5t-47 83.5t-73.5 62.5t-102.5 26.5q-61 0 -112 -22.5t-86 -60.5t-59 -88.5t-35 -104.5t-11 -111zM578 96q188 0 331 162l13 -16q-194 -254 -437 -254q-82 0 -158.5 29t-138.5 83.5t-99.5 141.5t-37.5 194
q0 211 128 354.5t335 143.5q154 0 263.5 -80t148.5 -231l-746 -177q23 -160 130 -255t268 -95z" />
    <glyph glyph-name="f" unicode="f" horiz-adv-x="512" 
d="M395 1346q-49 0 -75.5 -44t-26.5 -110v-256h219v-21h-219v-911h-137v911h-142v21h142v178q0 106 66 176t177 70q41 0 75.5 -9.5t55.5 -22.5t35.5 -26t20.5 -22l6 -10l-49 -72q-2 6 -7 16t-20 35.5t-31 45t-40.5 35.5t-49.5 16z" />
    <glyph glyph-name="g" unicode="g" 
d="M190 641q0 -67 20 -137.5t56 -132.5t94.5 -102t128.5 -40q59 0 103.5 23t69.5 62t37 84.5t12 95.5q0 166 -90.5 289.5t-210.5 123.5q-100 0 -160 -81.5t-60 -184.5zM709 53q106 -28 153.5 -87t24.5 -140q-30 -103 -162.5 -173.5t-308.5 -70.5q-128 0 -250 41v117
q150 -64 356 -64q91 0 164.5 15.5t124.5 50.5t59 86q6 42 -32 70.5t-113 42.5q-80 14 -248 14q-87 0 -188.5 -3.5t-160.5 -7.5l-58 -3q7 21 19.5 55.5t53 117t84.5 136.5q-176 105 -176 301q0 150 113 261.5t270 117.5l379 76v-80h-295q137 -21 233.5 -116t96.5 -224
q0 -83 -39 -156t-99 -120.5t-128.5 -75t-130.5 -27.5q-120 0 -203 35q-30 -34 -62 -96.5t-32 -79.5q138 16 274 16q174 0 281 -29z" />
    <glyph glyph-name="h" unicode="h" horiz-adv-x="950" 
d="M578 938q140 0 214 -81.5t74 -235.5v-617h-135v580q0 148 -63.5 224.5t-186.5 76.5q-112 0 -250 -103v-778h-139v1356h139v-551q203 129 347 129z" />
    <glyph glyph-name="i" unicode="i" horiz-adv-x="325" 
d="M162 1096q-35 0 -60.5 25.5t-25.5 60.5q0 38 24.5 63t61.5 25q38 0 62 -25t24 -63q0 -36 -25 -61t-61 -25zM231 4h-139v934h139v-934z" />
    <glyph glyph-name="j" unicode="j" horiz-adv-x="325" 
d="M92 -248v1188l139 -2v-1157q0 -35 -12 -67t-37.5 -63t-76 -50t-119.5 -19v17q49 0 77.5 43.5t28.5 109.5zM162 1096q-35 0 -60.5 25.5t-25.5 60.5q0 38 24.5 63t61.5 25t61.5 -25t24.5 -63q0 -35 -25.5 -60.5t-60.5 -25.5z" />
    <glyph glyph-name="k" unicode="k" horiz-adv-x="931" 
d="M698 240q62 -112 109.5 -167t107.5 -55v-14h-120q-67 0 -119.5 48t-120.5 171l-164 330l-158 -158v-391h-141v1356h141v-938q224 217 259 248q142 134 196 177q115 91 182 91v-143q-9 0 -23.5 -1t-57 -6.5t-80.5 -15t-83.5 -29.5t-76.5 -47l-57 -53z" />
    <glyph glyph-name="l" unicode="l" horiz-adv-x="325" 
d="M231 4h-139v1356h139v-1356z" />
    <glyph glyph-name="m" unicode="m" horiz-adv-x="1495" 
d="M1122 938q140 0 214.5 -81.5t74.5 -235.5v-617h-135v580q0 148 -63.5 224.5t-186.5 76.5q-103 0 -233 -92q32 -75 32 -172v-617h-135v580q0 150 -56.5 225.5t-176.5 75.5q-50 0 -107 -26.5t-89 -52.5l-32 -26v-776h-139v932h139v-133q7 5 20 14.5t51 32.5t74 41t82 32.5
t83 14.5q174 0 243 -125q193 125 340 125z" />
    <glyph glyph-name="n" unicode="n" horiz-adv-x="956" 
d="M584 938q140 0 214.5 -82t73.5 -235v-617h-135v580q0 148 -63.5 224.5t-186.5 76.5q-114 0 -258 -109v-772h-139v932h139v-133q206 135 355 135z" />
    <glyph glyph-name="o" unicode="o" horiz-adv-x="1060" 
d="M586 20q77 0 135.5 30.5t91 81.5t48.5 109t16 121q0 85 -29 180t-79 178t-127.5 137t-164.5 54h-16q-128 -5 -202.5 -99.5t-74.5 -252.5q0 -67 16.5 -140.5t51 -144.5t81 -127.5t113 -91.5t140.5 -35zM530 938q93 0 177 -28t152.5 -83t109.5 -147t41 -209
q0 -107 -42.5 -200t-111 -153.5t-154 -95t-172.5 -34.5q-71 0 -139 17.5t-130 55t-109 91.5t-75 131.5t-28 169.5q0 110 42 203.5t110.5 154t154 94t174.5 33.5z" />
    <glyph glyph-name="p" unicode="p" horiz-adv-x="1024" 
d="M541 33q138 0 220.5 96.5t82.5 257.5q0 90 -22 174.5t-64.5 155t-113 113t-159.5 42.5q-131 0 -249 -118l-3 -49v-441q25 -89 113 -160t195 -71zM569 950q172 0 289 -135t117 -330q0 -60 -15 -123t-49.5 -126.5t-83.5 -112.5t-124 -80t-164 -31q-172 0 -308 178v-608
h-139v1358h137v-168q11 14 27 31t50.5 44.5t71 49t88 37.5t103.5 16z" />
    <glyph glyph-name="q" unicode="q" horiz-adv-x="1034" 
d="M797 150v671q-6 4 -16 11.5t-43 26.5t-67 33t-84.5 26t-99.5 12q-138 0 -222.5 -100t-84.5 -271q0 -57 9.5 -119.5t35.5 -132t65 -124t103.5 -90.5t145.5 -36q122 0 258 93zM920 940h20v-1358h-143v541q-192 -119 -346 -119q-173 0 -286.5 127t-113.5 322q0 93 30.5 182
t85 159.5t138.5 114t182 43.5q51 0 102.5 -10.5t89 -25.5t67.5 -30t46 -26l15 -10z" />
    <glyph glyph-name="r" unicode="r" horiz-adv-x="593" 
d="M229 795q41 60 106 101.5t132 41.5q35 0 64 -10t41 -20l12 -11l-29 -84q-8 8 -22 20t-54 32t-76 20q-30 0 -58.5 -13t-48.5 -31.5t-36 -37.5t-24 -32l-7 -13v-754h-139v934h139v-143z" />
    <glyph glyph-name="s" unicode="s" horiz-adv-x="778" 
d="M455 543q43 -14 66 -22t61.5 -24.5t60 -34t44.5 -43t33.5 -58.5t10.5 -74q0 -113 -90 -197t-250 -84q-53 0 -105 9.5t-88 23t-64 27t-42 22.5l-14 10l59 103q58 -54 154 -91.5t176 -37.5q89 0 154 41.5t65 107.5q0 29 -16 53t-48 43t-58.5 31t-69.5 29q-14 5 -21 8
q-26 10 -87 29.5t-114.5 39.5t-95.5 42q-26 13 -48 30t-41.5 43t-29.5 56t-8.5 70.5t17.5 86.5q57 156 282 156q57 0 111 -15t91 -36t66 -42.5t42 -36.5l14 -15l-66 -125q-62 101 -145.5 167t-184.5 66t-133 -72q-11 -33 -10.5 -60.5t17 -52.5t36 -44.5t46.5 -36t48.5 -26.5
t41.5 -17z" />
    <glyph glyph-name="t" unicode="t" horiz-adv-x="477" 
d="M449 55l18 -47q-39 -14 -102 -14q-45 0 -84.5 9t-73.5 28t-54 54t-20 83v750h-108v20h108v152l139 120v-272h138v-20h-138v-828q0 -36 17.5 -60t48.5 -24q33 0 60.5 12t39.5 24z" />
    <glyph glyph-name="u" unicode="u" horiz-adv-x="937" 
d="M707 938h139v-934h-137v125q-189 -125 -336 -125q-140 0 -215.5 83t-75.5 237v614h139v-578q0 -150 62.5 -226.5t185.5 -76.5q101 0 238 95v786z" />
    <glyph glyph-name="v" unicode="v" horiz-adv-x="815" 
d="M770 938h33l-365 -934h-51l-377 934h164l301 -762z" />
    <glyph glyph-name="w" unicode="w" horiz-adv-x="1325" 
d="M1280 938h35l-367 -934h-51l-233 578l-226 -578h-51l-377 934h164l301 -762l172 449l-127 313h164l43 -109l43 109h33l-58 -152l240 -610z" />
    <glyph glyph-name="x" unicode="x" horiz-adv-x="780" 
d="M424 553l348 -549h-168l-264 416l-266 -416h-35l285 442l-310 492h168l226 -358l225 358h33z" />
    <glyph glyph-name="y" unicode="y" horiz-adv-x="841" 
d="M322 -211q3 7 10 22.5t16.5 38.5t16.5 39q-104 -6 -170 -79q-48 -55 -38 -102q5 -25 29 -36q15 -6 31 -6q33 0 56 31.5t49 91.5zM469 137l330 801h32q-389 -934 -487 -1167q-38 -91 -78.5 -142t-95.5 -51q-24 0 -51 12q-40 18 -38 82q4 81 69 149q83 87 225 93l28 72
l-393 952h135z" />
    <glyph glyph-name="z" unicode="z" horiz-adv-x="778" 
d="M274 31q123 0 243.5 16.5t179.5 32.5l59 16v-92h-736v21l558 888h-86q-115 0 -221 -16.5t-155 -32.5l-48 -16v90h677v-16l-569 -891h98z" />
    <glyph glyph-name="braceleft" unicode="{" horiz-adv-x="485" 
d="M596 1495q-4 1 -12 1.5t-29.5 0.5t-41.5 -2.5t-44.5 -10.5t-42 -21t-29.5 -36.5t-12 -54.5v-229q0 -9 0.5 -24t-1.5 -58.5t-6.5 -84.5t-16 -92.5t-29 -91.5t-46.5 -72.5t-67 -43.5q46 -11 80.5 -53.5t50 -95.5t24.5 -104.5t10 -86.5l1 -35v-315q0 -42 21.5 -70t52.5 -38
t62.5 -14.5t52.5 -2.5l22 2v-78h-98q-56 0 -100.5 22t-71.5 55t-44.5 75t-24.5 79t-7 70q0 232 -4 303q-3 57 -23 104t-46 73t-52 43.5t-44 23.5l-18 6v59q7 2 18.5 7.5t42 26.5t54.5 48t44.5 75.5t23.5 105.5q4 71 4 303q0 33 7 70t24.5 79t44.5 75t71.5 55t100.5 22h98
v-70z" />
    <glyph glyph-name="bar" unicode="|" horiz-adv-x="346" 
d="M244 -225h-142v1743h142v-1743z" />
    <glyph glyph-name="braceright" unicode="}" horiz-adv-x="485" 
d="M238 961q3 -57 23 -104t46.5 -73t52 -43.5t42.5 -23.5l18 -6v-60q-7 -2 -18.5 -7t-41.5 -26t-53.5 -48t-44.5 -75.5t-24 -105.5q-3 -49 -4 -105t-0.5 -92.5t1.5 -70t1 -35.5q0 -43 -12.5 -90.5t-39 -97t-78 -81.5t-120.5 -32h-99v70q9 -1 23 -2t50.5 2t64 13t50.5 38
t23 71v230q0 9 -0.5 24t1.5 58.5t6.5 84.5t16 92.5t29 91.5t46.5 72.5t67 43.5q-46 11 -80.5 53.5t-50 95.5t-24.5 104.5t-10 86.5l-1 35v315q0 42 -21.5 70t-52.5 38t-62.5 14.5t-53.5 2.5l-21 -2v78h99q69 0 120.5 -32t78 -81.5t39 -97t12.5 -90.5q0 -2 -1 -35.5t-1.5 -70
t0.5 -92.5t4 -105z" />
    <glyph glyph-name="uni00A0" unicode="&#xa0;" horiz-adv-x="643" 
 />
    <glyph glyph-name="exclamdown" unicode="&#xa1;" horiz-adv-x="364" 
d="M209 817l78 -1022h-209l76 1022h55zM182 969q-40 0 -68 28t-28 66q0 40 28 68t68 28q38 0 66 -28t28 -68q0 -38 -28 -66t-66 -28z" />
    <glyph glyph-name="cent" unicode="&#xa2;" horiz-adv-x="976" 
d="M373 82l254 860q-156 0 -258 -86t-146 -225q-24 -73 -28 -152.5t12 -154t59 -139.5t107 -103zM905 891l-14 -62q-10 10 -27 25.5t-69 45t-101 36.5l-260 -877q54 -22 115 -22q68 0 140.5 26.5t110.5 52.5l38 27v-98q-11 -7 -32.5 -17t-89.5 -27t-138 -17q-89 0 -160 20
l-105 -350l-63 18l106 357q-130 61 -204 182t-74 268q0 214 145 359q167 167 416 143l106 358l62 -18l-102 -350q41 -6 91 -26t80 -37z" />
    <glyph glyph-name="sterling" unicode="&#xa3;" horiz-adv-x="1062" 
d="M967 160l28 -97q-7 -7 -21 -17.5t-65 -28t-112 -17.5q-121 0 -267 63q-89 39 -174 39q-45 0 -87.5 -10.5t-71 -25.5t-50.5 -30t-33 -26l-10 -10l-28 61q7 6 18 16t41 44.5t55.5 70.5t52.5 91.5t40 110t10 123t-29 134.5h-172l2 66h148q-27 90 -39 141q-30 125 2 239.5
t120 186.5t210 72q329 0 432 -328l-158 -33q-1 7 -3 19t-10.5 47t-20 66.5t-33.5 70.5t-48.5 67t-67 47t-87.5 19q-72 0 -123.5 -33.5t-75 -89.5t-23 -129.5t28.5 -152.5q3 -9 19.5 -54.5t28 -82t20.5 -72.5h194l-2 -66h-174q74 -224 -219 -528q82 31 188 31q85 0 168 -29
q90 -33 176 -33q64 0 119.5 17t79.5 34z" />
    <glyph glyph-name="yen" unicode="&#xa5;" horiz-adv-x="1173" 
d="M668 606v-125h325v-65h-325v-70h325v-65h-325v-281h-170v281h-308v65h308v70h-308v65h308v119l-451 756h195l399 -690l422 690h59z" />
    <glyph glyph-name="section" unicode="&#xa7;" horiz-adv-x="956" 
d="M565 436q77 22 115.5 69.5t38.5 127.5q0 142 -264 258q-4 2 -11.5 5t-11.5 5q-95 -3 -154 -47t-59 -135q0 -52 29 -88q27 -40 78 -68q108 -59 149 -80l47 -24q8 -3 43 -23zM629 399q100 -59 150 -121.5t50 -162.5q0 -155 -108.5 -248.5t-267.5 -93.5q-110 0 -214 52
t-149 144l-2 4l27 39l4 -8q44 -87 137 -134.5t197 -47.5q103 0 165 52t62 153q0 39 -18.5 74.5t-43 60.5t-64.5 51t-67.5 40t-68.5 32q-124 57 -187 98q-143 85 -143 242q0 123 70.5 205.5t193.5 109.5q-37 21 -52.5 30t-45.5 29t-43.5 33.5t-34 36.5t-29 45t-15.5 52.5
t-7 64.5q0 149 103 237t257 88q110 0 207.5 -53t138.5 -149l3 -4l-29 -39l-4 8q-35 87 -123.5 137.5t-188.5 50.5q-65 0 -115 -16t-84 -58.5t-34 -107.5q0 -95 106 -156q20 -12 150 -79l47 -25q54 -26 89.5 -46t81 -53t72 -65.5t45.5 -79.5t19 -100q0 -229 -237 -322z" />
    <glyph glyph-name="copyright" unicode="&#xa9;" horiz-adv-x="1497" 
d="M748 55q168 0 310.5 83t225 225.5t82.5 310.5q0 167 -82.5 309.5t-225 225.5t-310.5 83q-125 0 -239.5 -49t-197 -132t-131.5 -197.5t-49 -239.5q0 -168 82.5 -310.5t225 -225.5t309.5 -83zM748 317q45 0 87.5 17.5t70.5 42.5t49.5 50t31.5 43l10 17l47 -65
q-5 -6 -14 -15t-38.5 -32.5t-61.5 -41.5t-82 -33t-100 -15q-71 0 -139 30t-121 82.5t-85 131t-32 167.5q0 175 118 293.5t293 118.5q57 0 111 -14t79 -28l25 -15v-103q-4 5 -11.5 14t-31 31.5t-49 40t-62.5 31.5t-73 14q-120 0 -200.5 -108t-80.5 -275q0 -84 17.5 -151.5
t45 -109t63 -69t68.5 -38.5t65 -11zM748 1339q136 0 259.5 -52.5t213 -142t142 -212.5t52.5 -258q0 -136 -52.5 -259.5t-142 -213t-213 -142.5t-259.5 -53q-181 0 -334 89.5t-242.5 243.5t-89.5 335q0 180 89.5 333.5t242.5 242.5t334 89z" />
    <glyph glyph-name="guillemotleft" unicode="&#xab;" horiz-adv-x="804" 
d="M489 618l246 -393h-149l-246 393l246 394h147zM461 1012l-244 -394l246 -393h-150l-245 393l245 394h148z" />
    <glyph glyph-name="uni00AD" unicode="&#xad;" horiz-adv-x="0" 
 />
    <glyph glyph-name="registered" unicode="&#xae;" horiz-adv-x="1026" 
d="M403 852h54q80 0 124 40t44 116q0 73 -38 125.5t-116 52.5h-68q-8 0 -8 -10v-316q0 -8 8 -8zM512 512q163 0 278 115t115 276q0 163 -115 278t-278 115q-161 0 -276 -115t-115 -278q0 -161 115 -276t276 -115zM512 1335q180 0 306 -126.5t126 -305.5t-126 -305.5
t-306 -126.5q-178 0 -305 126.5t-127 305.5t127 305.5t305 126.5zM496 840q18 -32 90 -90.5t131 -85.5l-41 -62q-81 33 -194 227q-4 7 -5 9h-74q-8 0 -8 -11v-227h-67v596h178q50 0 88 -15.5t59 -40.5t31 -53.5t10 -58.5q0 -81 -52 -130t-146 -58z" />
    <glyph glyph-name="degree" unicode="&#xb0;" horiz-adv-x="630" 
d="M313 1399q102 0 173 -72t71 -176q0 -107 -69 -177.5t-175 -70.5q-104 0 -171.5 70.5t-67.5 177.5q0 106 68 177t171 71zM313 1016q59 0 95 37t36 98q0 57 -38 96t-93 39q-57 0 -92 -38t-35 -97q0 -62 34.5 -98.5t92.5 -36.5z" />
    <glyph glyph-name="periodcentered" unicode="&#xb7;" horiz-adv-x="352" 
d="M174 682q47 0 80 -34t33 -83q0 -50 -32.5 -82t-80.5 -32q-50 0 -80.5 31.5t-30.5 82.5q0 50 31 83.5t80 33.5z" />
    <glyph glyph-name="guillemotright" unicode="&#xbb;" horiz-adv-x="802" 
d="M487 1012l246 -394l-246 -393h-147l244 393l-246 394h149zM217 1012l244 -394l-246 -393h-147l243 393l-245 394h151z" />
    <glyph glyph-name="questiondown" unicode="&#xbf;" horiz-adv-x="962" 
d="M920 182q1 -5 -2 -26.5t-14.5 -57t-30.5 -75.5t-54 -80.5t-80 -73.5t-114.5 -53.5t-151.5 -20.5q-182 0 -296 95.5t-114 244.5q0 66 25.5 123.5t66 100.5t89.5 82.5t98.5 77t90 75.5t66 85.5t25.5 100.5v66h58v-60q0 -62 -20 -117.5t-52.5 -97.5t-71 -82t-77.5 -79
t-71.5 -78.5t-52.5 -89.5t-20 -105q0 -71 27 -138.5t89.5 -117t149.5 -49.5q77 0 133.5 35t85 93t41.5 118.5t13 126.5zM555 987q-40 0 -68 27t-28 67t28 67.5t68 27.5q39 0 66.5 -28t27.5 -67t-27.5 -66.5t-66.5 -27.5z" />
    <glyph glyph-name="Agrave" unicode="&#xc0;" horiz-adv-x="1150" 
d="M324 1737h137l110 -254h-24zM764 539l-264 649l-262 -649h526zM229 514l-209 -514h-24l487 1221l-53 137h166l559 -1358h-162l-215 514h-549z" />
    <glyph glyph-name="Aacute" unicode="&#xc1;" horiz-adv-x="1150" 
d="M608 1737h137l-223 -254h-24zM764 539l-264 649l-262 -649h526zM229 514l-209 -514h-24l487 1221l-53 137h166l559 -1358h-162l-215 514h-549z" />
    <glyph glyph-name="Acircumflex" unicode="&#xc2;" horiz-adv-x="1150" 
d="M764 539l-264 649l-262 -649h526zM229 514l-209 -514h-24l487 1221l-53 137h166l559 -1358h-162l-215 514h-549zM737 1462l-190 183l-189 -183h-26l155 254h121l156 -254h-27z" />
    <glyph glyph-name="Atilde" unicode="&#xc3;" horiz-adv-x="1150" 
d="M430 1577q-31 0 -63 -18.5t-48 -36.5l-16 -19v37q2 5 7 13t19.5 28t30 35.5t39 28t45.5 12.5q43 0 114.5 -38t111.5 -38q29 0 60 16.5t47 32.5l16 17v-33q-67 -111 -154 -111q-39 0 -107.5 37t-101.5 37zM764 539l-264 649l-262 -649h526zM229 514l-209 -514h-24
l487 1221l-53 137h166l559 -1358h-162l-215 514h-549z" />
    <glyph glyph-name="Adieresis" unicode="&#xc4;" horiz-adv-x="1153" 
d="M502 1192l-262 -649h526zM432 1362h166l559 -1358h-162l-215 514h-549l-208 -514h-25l487 1221zM422 1444q-41 0 -66.5 26.5t-25.5 69.5q0 41 25.5 68.5t66.5 27.5q40 0 67 -28t27 -68q0 -42 -27 -69t-67 -27zM668 1444q-40 0 -65 26.5t-25 69.5q0 40 25.5 68t64.5 28
q41 0 67.5 -28t26.5 -68q0 -43 -26.5 -69.5t-67.5 -26.5z" />
    <glyph glyph-name="Aring" unicode="&#xc5;" horiz-adv-x="1153" 
d="M502 1192l-262 -649h526zM537 1642q-36 0 -61 -24t-25 -59t25.5 -60.5t60.5 -25.5q34 0 59 25.5t25 60.5t-25 59t-59 24zM432 1362h166l559 -1358h-162l-215 514h-549l-208 -514h-25l487 1221zM537 1393q-69 0 -117.5 48.5t-48.5 117.5q0 68 48.5 115.5t117.5 47.5
q67 0 115 -48t48 -115q0 -69 -47.5 -117.5t-115.5 -48.5z" />
    <glyph glyph-name="AE" unicode="&#xc6;" horiz-adv-x="1366" 
d="M502 1192l-262 -649h262v649zM811 1333h-158v-598q0 -4 4 -4h451v-26h-451q-4 0 -4 -5v-667h158q90 0 226.5 16.5t227.5 32.5l91 16v-94h-854v514h-271l-208 -514h-25l487 1221l-53 137h924v-94q-342 65 -545 65z" />
    <glyph glyph-name="Ccedilla" unicode="&#xc7;" horiz-adv-x="1355" 
d="M1311 365l26 -25l-6 -4q-23 -35 -35.5 -53t-46 -60.5t-61.5 -68.5t-75 -61t-94 -55t-111 -35t-132 -15q-10 0 -30.5 1t-32.5 1l-6 -56l16.5 -5.5t35.5 -17.5t43 -32t29.5 -50t4.5 -69q-23 -127 -209 -127q-21 0 -42 1.5t-31 3.5l-11 2l6 79q37 -6 78 -6q119 0 129 60
q4 25 -9 45.5t-35.5 32t-45.5 19.5t-40 10l-16 3l19 119q-118 20 -222 72.5t-186.5 134t-130 199t-47.5 256.5q0 204 99 367.5t275 255t396 91.5q121 0 247.5 -30t186.5 -66v-223q-11 12 -31 31.5t-79.5 69.5t-116.5 88.5t-133 70t-139 31.5q-251 0 -401 -165t-150 -440
q0 -112 26.5 -217.5t79.5 -196t127 -158t175 -106t218 -38.5q72 0 144 27t126.5 66.5t101.5 87.5t75 87t41 68z" />
    <glyph glyph-name="Egrave" unicode="&#xc8;" horiz-adv-x="964" 
d="M350 1737h137l111 -254h-25zM410 1329h-156v-598q0 -4 2 -4h453v-29h-453q-2 0 -2 -2v-667h156q91 0 227 16.5t227 32.5l90 16v-94h-852v1358h852v-94q-339 65 -544 65z" />
    <glyph glyph-name="Eacute" unicode="&#xc9;" horiz-adv-x="964" 
d="M600 1737h137l-223 -254h-25zM410 1329h-156v-598q0 -4 2 -4h453v-29h-453q-2 0 -2 -2v-667h156q91 0 227 16.5t227 32.5l90 16v-94h-852v1358h852v-94q-339 65 -544 65z" />
    <glyph glyph-name="Ecircumflex" unicode="&#xca;" horiz-adv-x="964" 
d="M717 1462l-191 183l-188 -183h-27l156 254h121l155 -254h-26zM410 1329h-156v-598q0 -4 2 -4h453v-29h-453q-2 0 -2 -2v-667h156q91 0 227 16.5t227 32.5l90 16v-94h-852v1358h852v-94q-339 65 -544 65z" />
    <glyph glyph-name="Edieresis" unicode="&#xcb;" horiz-adv-x="966" 
d="M422 1444q-40 0 -65 26.5t-25 69.5q0 40 25.5 68t64.5 28q41 0 68.5 -28t27.5 -68q0 -42 -27 -69t-69 -27zM670 1444q-40 0 -66 27t-26 69q0 40 26.5 68t65.5 28q40 0 67 -28t27 -68q0 -42 -27 -69t-67 -27zM410 1333h-156v-598q0 -4 2 -4h453v-26h-453q-2 0 -2 -5v-667
h156q91 0 227 16.5t227 32.5l90 16v-94h-852v1358h852v-94q-339 65 -544 65z" />
    <glyph glyph-name="Igrave" unicode="&#xcc;" horiz-adv-x="356" 
d="M-25 1737h138l110 -254h-24zM252 0h-150v1358h150v-1358z" />
    <glyph glyph-name="Iacute" unicode="&#xcd;" horiz-adv-x="356" 
d="M242 1737h137l-223 -254h-25zM252 0h-150v1358h150v-1358z" />
    <glyph glyph-name="Icircumflex" unicode="&#xce;" horiz-adv-x="354" 
d="M233 1698l156 -254h-108l-109 180l-106 -180h-109l156 254h120zM254 4h-152v1358h152v-1358z" />
    <glyph glyph-name="Idieresis" unicode="&#xcf;" horiz-adv-x="354" 
d="M295 1636q40 0 67 -28t27 -68q0 -42 -27 -69t-67 -27t-66 27t-26 69q0 40 26.5 68t65.5 28zM143 1540q0 -42 -27 -69t-67 -27q-41 0 -66.5 26.5t-25.5 69.5q0 41 25.5 68.5t66.5 27.5q40 0 67 -28t27 -68zM252 4h-152v1358h152v-1358z" />
    <glyph glyph-name="Ntilde" unicode="&#xd1;" horiz-adv-x="1150" 
d="M457 1538q-30 0 -58.5 -17t-41.5 -34l-13 -17v101q2 2 5 5.5t15.5 12.5t26.5 15.5t38 12t50 5.5q44 0 111 -29.5t106 -29.5q22 0 49.5 14.5t44.5 29.5l17 15v-96q-35 -31 -60.5 -39t-80.5 -8q-34 0 -104.5 29.5t-104.5 29.5zM1014 1362h35v-1354h-23l-891 1190l-2 -1194
h-31v1358h117l797 -1081z" />
    <glyph glyph-name="Ograve" unicode="&#xd2;" horiz-adv-x="1460" 
d="M549 1737h137l111 -254h-25zM1270 545q-4 114 -33.5 227t-84 213.5t-127.5 178t-169.5 122.5t-202.5 45q-202 0 -325 -129q-142 -148 -133 -409q4 -111 33.5 -221t84 -208t127.5 -173.5t169.5 -119.5t203.5 -44q206 0 328 125q138 141 129 393zM1413 672
q0 -137 -39.5 -252t-105.5 -193.5t-154.5 -134t-185 -81t-197.5 -25.5t-198 26t-185.5 81.5t-155 135.5t-106 196.5t-39.5 254.5q0 200 87 356.5t243 243t354 86.5q130 0 250.5 -45t217.5 -129.5t155.5 -219.5t58.5 -300z" />
    <glyph glyph-name="Oacute" unicode="&#xd3;" horiz-adv-x="1460" 
d="M793 1737h137l-223 -254h-25zM1270 545q-4 114 -33.5 227t-84 213.5t-127.5 178t-169.5 122.5t-202.5 45q-202 0 -325 -129q-142 -148 -133 -409q4 -111 33.5 -221t84 -208t127.5 -173.5t169.5 -119.5t203.5 -44q206 0 328 125q138 141 129 393zM1413 672
q0 -137 -39.5 -252t-105.5 -193.5t-154.5 -134t-185 -81t-197.5 -25.5t-198 26t-185.5 81.5t-155 135.5t-106 196.5t-39.5 254.5q0 200 87 356.5t243 243t354 86.5q130 0 250.5 -45t217.5 -129.5t155.5 -219.5t58.5 -300z" />
    <glyph glyph-name="Ocircumflex" unicode="&#xd4;" horiz-adv-x="1460" 
d="M920 1462l-191 183l-188 -183h-27l156 254h121l155 -254h-26zM1270 545q-4 114 -33.5 227t-84 213.5t-127.5 178t-169.5 122.5t-202.5 45q-202 0 -325 -129q-142 -148 -133 -409q4 -111 33.5 -221t84 -208t127.5 -173.5t169.5 -119.5t203.5 -44q206 0 328 125
q138 141 129 393zM1413 672q0 -137 -39.5 -252t-105.5 -193.5t-154.5 -134t-185 -81t-197.5 -25.5t-198 26t-185.5 81.5t-155 135.5t-106 196.5t-39.5 254.5q0 200 87 356.5t243 243t354 86.5q130 0 250.5 -45t217.5 -129.5t155.5 -219.5t58.5 -300z" />
    <glyph glyph-name="Otilde" unicode="&#xd5;" horiz-adv-x="1460" 
d="M614 1577q-31 0 -63 -18.5t-48 -36.5l-16 -19v37q3 5 7.5 13t19.5 28t30.5 35.5t39 28t45.5 12.5q43 0 114 -38t111 -38q29 0 60 16.5t47 32.5l16 17v-33q-67 -111 -154 -111q-39 0 -107.5 37t-101.5 37zM1270 545q-4 114 -33.5 227t-84 213.5t-127.5 178t-169.5 122.5
t-202.5 45q-202 0 -325 -129q-142 -148 -133 -409q4 -111 33.5 -221t84 -208t127.5 -173.5t169.5 -119.5t203.5 -44q206 0 328 125q138 141 129 393zM1413 672q0 -137 -39.5 -252t-105.5 -193.5t-154.5 -134t-185 -81t-197.5 -25.5t-198 26t-185.5 81.5t-155 135.5
t-106 196.5t-39.5 254.5q0 200 87 356.5t243 243t354 86.5q130 0 250.5 -45t217.5 -129.5t155.5 -219.5t58.5 -300z" />
    <glyph glyph-name="Odieresis" unicode="&#xd6;" horiz-adv-x="1460" 
d="M1141 156q66 69 99.5 170.5t29.5 222.5q-4 114 -33.5 227t-84 213.5t-127.5 178t-169.5 122.5t-202.5 45q-202 0 -325 -129q-142 -148 -133 -409q4 -111 33.5 -221t84 -208t127.5 -173.5t169.5 -119.5t203.5 -44q206 0 328 125zM731 1372q103 0 201.5 -28t185.5 -86
t152.5 -139t104 -195.5t38.5 -247.5q0 -137 -39.5 -252t-105.5 -193.5t-154.5 -134t-185 -81t-197.5 -25.5t-198 26t-185.5 81.5t-155 135.5t-106 196.5t-39.5 254.5q0 200 87 357t243 244t354 87zM602 1444q-40 0 -65 26.5t-25 69.5q0 40 25.5 68t64.5 28q41 0 67.5 -28
t26.5 -68q0 -43 -26.5 -69.5t-67.5 -26.5zM850 1444q-41 0 -66.5 26.5t-25.5 69.5q0 41 25.5 68.5t66.5 27.5q40 0 67 -28t27 -68q0 -42 -27 -69t-67 -27z" />
    <glyph glyph-name="multiply" unicode="&#xd7;" horiz-adv-x="960" 
d="M891 924l-316 -316l287 -286l-59 -60l-287 287l-323 -324l-125 125l323 324l-287 284l60 62l287 -287l315 316z" />
    <glyph glyph-name="Oslash" unicode="&#xd8;" horiz-adv-x="1474" 
d="M203 799q10 -270 151 -484l719 809q-178 213 -411 213q-203 0 -326 -129q-142 -146 -133 -409zM1149 158q66 69 99.5 170.5t29.5 222.5q-4 132 -44.5 262.5t-109.5 239.5l-718 -809q176 -211 415 -211q206 0 328 125zM1386 1348l-155 -174q190 -193 190 -494
q0 -137 -39.5 -252.5t-105.5 -194.5t-154.5 -134.5t-185 -81t-197.5 -25.5q-244 0 -432 141l-153 -172l-64 57l154 172q-189 192 -189 496q0 200 87 357t243 244t354 87q241 0 428 -143l156 174z" />
    <glyph glyph-name="Ugrave" unicode="&#xd9;" horiz-adv-x="1196" 
d="M467 1737h137l111 -254h-25zM1108 518q0 -258 -123.5 -395t-355.5 -137q-41 0 -81.5 4t-96.5 17t-104 34.5t-97.5 61t-84.5 92t-57 131t-22 174.5v858h152v-846q0 -240 116.5 -367t337.5 -127q59 0 113.5 16t106 53.5t89.5 92.5t61 140.5t23 191.5l-2 846h25v-840z" />
    <glyph glyph-name="Uacute" unicode="&#xda;" horiz-adv-x="1196" 
d="M690 1737h137l-223 -254h-24zM1108 518q0 -258 -123.5 -395t-355.5 -137q-41 0 -81.5 4t-96.5 17t-104 34.5t-97.5 61t-84.5 92t-57 131t-22 174.5v858h152v-846q0 -240 116.5 -367t337.5 -127q59 0 113.5 16t106 53.5t89.5 92.5t61 140.5t23 191.5l-2 846h25v-840z" />
    <glyph glyph-name="Ucircumflex" unicode="&#xdb;" horiz-adv-x="1196" 
d="M610 1628l-106 -182h-111l156 254h123l153 -254h-108zM1083 1368h25v-840q0 -257 -123.5 -394.5t-355.5 -137.5q-41 0 -81.5 4t-96.5 17.5t-104 35t-97.5 61.5t-84.5 92t-57 131t-22 175v856h152v-846q0 -238 116.5 -365.5t337.5 -127.5q74 0 141 26.5t125 82t92.5 154.5
t34.5 230z" />
    <glyph glyph-name="Udieresis" unicode="&#xdc;" horiz-adv-x="1196" 
d="M473 1448q-41 0 -66.5 26.5t-25.5 67.5q0 42 25.5 69t66.5 27q40 0 67 -27.5t27 -68.5t-27 -67.5t-67 -26.5zM719 1448q-40 0 -66 26.5t-26 67.5t26 68.5t66 27.5t67 -27.5t27 -68.5t-27 -67.5t-67 -26.5zM1083 1368h25v-840q0 -257 -123.5 -394.5t-355.5 -137.5
q-41 0 -81.5 4t-96.5 17.5t-104 35t-97.5 61.5t-84.5 92t-57 131t-22 175v856h152v-846q0 -238 116.5 -365.5t337.5 -127.5q74 0 141 26.5t125 82t92.5 154.5t34.5 230z" />
    <glyph glyph-name="Yacute" unicode="&#xdd;" horiz-adv-x="956" 
d="M567 1737h138l-224 -254h-24zM557 0h-154v610l-415 748h178l379 -711l395 711h29l-412 -742v-616z" />
    <glyph glyph-name="germandbls" unicode="&#xdf;" horiz-adv-x="1144" 
d="M1042 489q68 -74 68 -178q0 -75 -33 -137.5t-87 -102t-122 -61.5t-139 -22q-122 0 -222.5 60.5t-154.5 168.5l27 12q13 -26 32 -52.5t51 -57.5t69 -54.5t88 -39t106 -15.5t104.5 23t83.5 59.5t52 85t15 97t-32.5 97t-85.5 83.5q-22 15 -109.5 67t-127.5 78q-48 33 -63 85
t16 112q53 111 135 254q23 40 31 82.5t-2 84t-38.5 74.5t-85.5 53.5t-135 20.5q-121 0 -172 -89t-51 -265v-1002h-168v1024q0 97 36.5 172t96 117.5t127 64t137.5 21.5q100 0 177.5 -30t120 -78.5t63.5 -106.5t16 -116t-32 -105q-88 -154 -121 -217q-14 -29 12 -45
q46 -31 133 -88q90 -54 120 -75.5t64 -58.5z" />
    <glyph glyph-name="agrave" unicode="&#xe0;" 
d="M276 1305h138l110 -254h-24zM680 174v465q-8 -15 -27 -31t-53 -34t-58.5 -29.5t-73.5 -33.5t-67 -30q-196 -89 -196 -264q0 -74 61 -121t154 -47q39 0 80.5 13t72.5 31.5t56 36.5t38 31zM459 938q163 0 259.5 -85.5t96.5 -244.5v-604h-135v135q-6 -6 -16.5 -15.5t-48 -34
t-79.5 -43.5t-108.5 -34.5t-136.5 -15.5q-112 0 -180 61t-68 158q0 33 12 63.5t28 53.5t46 46.5t52.5 38t61.5 32.5t58.5 26t59 23t47.5 18q4 2 24.5 10.5t34 14t38 16.5t41.5 20.5t39.5 21.5t37.5 23.5t29 24.5t21 26t7 25q0 98 -51 160t-164 62q-49 0 -99.5 -24.5
t-86.5 -59.5t-65.5 -70t-44.5 -60l-15 -24l-58 94q47 58 148 110t215 52z" />
    <glyph glyph-name="aacute" unicode="&#xe1;" 
d="M526 1305h138l-224 -254h-24zM680 174v465q-8 -15 -27 -31t-53 -34t-58.5 -29.5t-73.5 -33.5t-67 -30q-196 -89 -196 -264q0 -74 61 -121t154 -47q39 0 80.5 13t72.5 31.5t56 36.5t38 31zM459 938q163 0 259.5 -85.5t96.5 -244.5v-604h-135v135q-6 -6 -16.5 -15.5
t-48 -34t-79.5 -43.5t-108.5 -34.5t-136.5 -15.5q-112 0 -180 61t-68 158q0 33 12 63.5t28 53.5t46 46.5t52.5 38t61.5 32.5t58.5 26t59 23t47.5 18q4 2 24.5 10.5t34 14t38 16.5t41.5 20.5t39.5 21.5t37.5 23.5t29 24.5t21 26t7 25q0 98 -51 160t-164 62q-49 0 -99.5 -24.5
t-86.5 -59.5t-65.5 -70t-44.5 -60l-15 -24l-58 94q47 58 148 110t215 52z" />
    <glyph glyph-name="acircumflex" unicode="&#xe2;" 
d="M643 1030l-190 182l-189 -182h-26l155 254h121l156 -254h-27zM680 174v465q-8 -15 -27 -31t-53 -34t-58.5 -29.5t-73.5 -33.5t-67 -30q-196 -89 -196 -264q0 -74 61 -121t154 -47q39 0 80.5 13t72.5 31.5t56 36.5t38 31zM459 938q163 0 259.5 -85.5t96.5 -244.5v-604
h-135v135q-6 -6 -16.5 -15.5t-48 -34t-79.5 -43.5t-108.5 -34.5t-136.5 -15.5q-112 0 -180 61t-68 158q0 33 12 63.5t28 53.5t46 46.5t52.5 38t61.5 32.5t58.5 26t59 23t47.5 18q4 2 24.5 10.5t34 14t38 16.5t41.5 20.5t39.5 21.5t37.5 23.5t29 24.5t21 26t7 25
q0 98 -51 160t-164 62q-49 0 -99.5 -24.5t-86.5 -59.5t-65.5 -70t-44.5 -60l-15 -24l-58 94q47 58 148 110t215 52z" />
    <glyph glyph-name="atilde" unicode="&#xe3;" 
d="M332 1145q-31 0 -63 -18.5t-48 -36.5l-16 -19v37q2 5 7 13t19.5 28t30 35.5t39 28t45.5 12.5q44 0 114 -38t111 -38q29 0 60 16.5t47 32.5l16 16v-32q-67 -111 -153 -111q-39 0 -107.5 37t-101.5 37zM680 174v465q-8 -15 -27 -31t-53 -34t-58.5 -29.5t-73.5 -33.5
t-67 -30q-196 -89 -196 -264q0 -74 61 -121t154 -47q39 0 80.5 13t72.5 31.5t56 36.5t38 31zM459 938q163 0 259.5 -85.5t96.5 -244.5v-604h-135v135q-6 -6 -16.5 -15.5t-48 -34t-79.5 -43.5t-108.5 -34.5t-136.5 -15.5q-112 0 -180 61t-68 158q0 33 12 63.5t28 53.5
t46 46.5t52.5 38t61.5 32.5t58.5 26t59 23t47.5 18q4 2 24.5 10.5t34 14t38 16.5t41.5 20.5t39.5 21.5t37.5 23.5t29 24.5t21 26t7 25q0 98 -51 160t-164 62q-49 0 -99.5 -24.5t-86.5 -59.5t-65.5 -70t-44.5 -60l-15 -24l-58 94q47 58 148 110t215 52z" />
    <glyph glyph-name="adieresis" unicode="&#xe4;" 
d="M680 180v467q-8 -15 -26 -30.5t-55 -35.5t-57 -29.5t-75 -34.5l-66 -30q-196 -89 -196 -262q0 -75 61 -122.5t154 -47.5q39 0 80.5 13t72.5 31.5t56 36.5t38 31zM459 946q162 0 259 -86t97 -244v-606h-135v135q-6 -6 -16.5 -15.5t-48 -33.5t-79.5 -43t-108.5 -34
t-136.5 -15q-112 0 -180 60.5t-68 156.5q0 33 12 64t28.5 54t45.5 46.5t52.5 38t61.5 32t58.5 26t58.5 22.5t48 18q2 1 24.5 10t34 14.5t37.5 17t42 20.5t39.5 21.5t38 24t28.5 24.5t21 26t7 25q0 99 -50.5 160t-164.5 61q-49 0 -99.5 -24.5t-86.5 -59t-65.5 -69
t-44.5 -59.5l-15 -24l-58 92q47 58 148 111t215 53zM305 1112q-41 0 -66.5 26.5t-25.5 69.5q0 41 26 69t66 28q39 0 66.5 -28.5t27.5 -68.5q0 -42 -27 -69t-67 -27zM551 1112q-40 0 -66 27t-26 69q0 40 26.5 68.5t65.5 28.5t66.5 -28.5t27.5 -68.5q0 -42 -27 -69t-67 -27z
" />
    <glyph glyph-name="aring" unicode="&#xe5;" 
d="M680 180v467q-8 -15 -26 -30.5t-55 -35.5t-57 -29.5t-75 -34.5l-66 -30q-196 -89 -196 -262q0 -75 61 -122.5t154 -47.5q39 0 80.5 13t72.5 31.5t56 36.5t38 31zM430 1362q-35 0 -60.5 -24.5t-25.5 -59.5t25.5 -59.5t60.5 -24.5q34 0 59 24.5t25 59.5t-25 59.5t-59 24.5z
M459 946q162 0 259 -86t97 -244v-606h-135v135q-6 -6 -16.5 -15.5t-48 -33.5t-79.5 -43t-108.5 -34t-136.5 -15q-112 0 -180 60.5t-68 156.5q0 33 12 64t28.5 54t45.5 46.5t52.5 38t61.5 32t58.5 26t58.5 22.5t48 18q2 1 24.5 10t34 14.5t37.5 17t42 20.5t39.5 21.5t38 24
t28.5 24.5t21 26t7 25q0 99 -50.5 160t-164.5 61q-49 0 -99.5 -24.5t-86.5 -59t-65.5 -69t-44.5 -59.5l-15 -24l-58 92q47 58 148 111t215 53zM430 1112q-69 0 -117.5 49t-48.5 117q0 69 48.5 117.5t117.5 48.5q68 0 116 -48.5t48 -117.5q0 -68 -48.5 -117t-115.5 -49z" />
    <glyph glyph-name="ae" unicode="&#xe6;" horiz-adv-x="1611" 
d="M680 180v467q-8 -15 -26 -30.5t-55 -35.5t-57 -29.5t-75 -34.5l-66 -30q-196 -89 -196 -262q0 -75 61 -122.5t154 -47.5q39 0 80.5 13t72.5 31.5t56 36.5t38 31zM819 535q0 -24 4 -60l561 133q-5 30 -12.5 61t-28 79.5t-47 84.5t-72 62.5t-100.5 26.5q-77 0 -137.5 -33.5
t-96 -90t-53.5 -123.5t-18 -140zM1221 102q190 0 333 162l11 -16q-193 -254 -435 -254q-88 0 -170.5 33.5t-144.5 97.5v-115h-135v135q-6 -6 -16.5 -15.5t-48 -33.5t-79.5 -43t-108.5 -34t-136.5 -15q-112 0 -180 60.5t-68 156.5q0 33 12 64t28.5 54t45.5 46.5t52.5 38
t61.5 32t58.5 26t58.5 22.5t48 18q2 1 24.5 10t34 14.5t37.5 17t42 20.5t39.5 21.5t38 24t28.5 24.5t21 26t7 25q0 99 -50.5 160t-164.5 61q-49 0 -99.5 -24.5t-86.5 -59t-65.5 -69t-44.5 -59.5l-15 -24l-58 92q47 58 148 111t215 53q121 0 207.5 -48.5t124.5 -141.5
q129 186 370 186q153 0 263 -81t147 -232l-746 -176q23 -160 130 -255.5t266 -95.5z" />
    <glyph glyph-name="ccedilla" unicode="&#xe7;" horiz-adv-x="944" 
d="M920 248q-185 -240 -414 -252l-6 -51l16.5 -5.5t35.5 -17.5t43 -32t29.5 -50t4.5 -69q-23 -127 -209 -127l-84 6l8 80q35 -6 78 -6q117 0 129 59q6 40 -31 67.5t-77 35.5l-40 8l15 104q-74 11 -139.5 45t-117.5 88.5t-82 135.5t-30 177q0 213 139.5 356.5t350.5 143.5
q223 0 327 -182l-127 -41q-3 8 -9.5 21.5t-29.5 48.5t-50 61.5t-73 48t-98 21.5q-77 0 -138 -33.5t-96.5 -90t-54 -123.5t-18.5 -140q0 -194 111 -313.5t292 -119.5q189 0 332 162z" />
    <glyph glyph-name="egrave" unicode="&#xe8;" horiz-adv-x="966" 
d="M297 1305h137l111 -254h-25zM174 528q0 -1 6 -61l559 135q-4 29 -11.5 61t-27.5 79.5t-47 83.5t-73.5 62.5t-102.5 26.5q-61 0 -112 -22.5t-86 -60.5t-59 -88.5t-35 -104.5t-11 -111zM578 96q188 0 331 162l13 -16q-194 -254 -437 -254q-82 0 -158.5 29t-138.5 83.5
t-99.5 141.5t-37.5 194q0 211 128 354.5t335 143.5q154 0 263.5 -80t148.5 -231l-746 -177q23 -160 130 -255t268 -95z" />
    <glyph glyph-name="eacute" unicode="&#xe9;" horiz-adv-x="966" 
d="M547 1305h137l-223 -254h-25zM174 528q0 -1 6 -61l559 135q-4 29 -11.5 61t-27.5 79.5t-47 83.5t-73.5 62.5t-102.5 26.5q-61 0 -112 -22.5t-86 -60.5t-59 -88.5t-35 -104.5t-11 -111zM578 96q188 0 331 162l13 -16q-194 -254 -437 -254q-82 0 -158.5 29t-138.5 83.5
t-99.5 141.5t-37.5 194q0 211 128 354.5t335 143.5q154 0 263.5 -80t148.5 -231l-746 -177q23 -160 130 -255t268 -95z" />
    <glyph glyph-name="ecircumflex" unicode="&#xea;" horiz-adv-x="966" 
d="M686 1030l-190 182l-189 -182h-26l155 254h121l156 -254h-27zM174 528q0 -1 6 -61l559 135q-4 29 -11.5 61t-27.5 79.5t-47 83.5t-73.5 62.5t-102.5 26.5q-61 0 -112 -22.5t-86 -60.5t-59 -88.5t-35 -104.5t-11 -111zM578 96q188 0 331 162l13 -16q-194 -254 -437 -254
q-82 0 -158.5 29t-138.5 83.5t-99.5 141.5t-37.5 194q0 211 128 354.5t335 143.5q154 0 263.5 -80t148.5 -231l-746 -177q23 -160 130 -255t268 -95z" />
    <glyph glyph-name="edieresis" unicode="&#xeb;" horiz-adv-x="966" 
d="M174 535q0 -6 6 -60l559 133q-4 29 -11.5 61t-27.5 80t-47 84t-72.5 62.5t-101.5 26.5q-77 0 -137.5 -33.5t-96 -90t-53.5 -123.5t-18 -140zM578 102q188 0 331 162l13 -16q-198 -254 -437 -254q-82 0 -158.5 29t-138.5 83.5t-99.5 142.5t-37.5 195q0 140 56.5 252.5
t164 179t246.5 66.5q152 0 261 -81t147 -232l-746 -176q23 -161 130.5 -256t267.5 -95zM383 1112q-40 0 -65 26.5t-25 69.5q0 40 25.5 68.5t64.5 28.5q41 0 67.5 -28.5t26.5 -68.5q0 -43 -26.5 -69.5t-67.5 -26.5zM631 1112q-40 0 -66 27t-26 69q0 41 26 69t66 28
q39 0 66.5 -28.5t27.5 -68.5q0 -42 -27 -69t-67 -27z" />
    <glyph glyph-name="igrave" unicode="&#xec;" horiz-adv-x="321" 
d="M-45 1305h137l111 -254h-25zM229 10h-139v936h139v-936z" />
    <glyph glyph-name="iacute" unicode="&#xed;" horiz-adv-x="321" 
d="M236 1305h137l-223 -254h-25zM229 10h-139v936h139v-936z" />
    <glyph glyph-name="icircumflex" unicode="&#xee;" horiz-adv-x="321" 
d="M221 1366l156 -254h-109l-108 182l-107 -182h-108l155 254h121zM231 10h-141v936h141v-936z" />
    <glyph glyph-name="idieresis" unicode="&#xef;" horiz-adv-x="323" 
d="M283 1305q39 0 66.5 -28.5t27.5 -68.5q0 -42 -27 -69t-67 -27t-66.5 27t-26.5 69q0 40 27 68.5t66 28.5zM131 1208q0 -42 -27 -69t-67 -27q-41 0 -66.5 26.5t-25.5 69.5q0 41 26 69t66 28q39 0 66.5 -28.5t27.5 -68.5zM231 10h-141v936h141v-936z" />
    <glyph glyph-name="ntilde" unicode="&#xf1;" horiz-adv-x="956" 
d="M309 1180q-31 0 -59 -17t-40 -34l-13 -17v102q5 6 14 14.5t44 23t77 14.5q44 0 110 -31t107 -31q22 0 49.5 15.5t43.5 30.5l17 16v-97q-35 -31 -60.5 -39t-80.5 -10q-34 0 -104.5 30t-104.5 30zM584 946q140 0 214.5 -82.5t73.5 -236.5v-617h-135v580q0 149 -63.5 226
t-186.5 77q-110 0 -258 -109v-774h-139v932h139v-133q199 137 355 137z" />
    <glyph glyph-name="ograve" unicode="&#xf2;" horiz-adv-x="1060" 
d="M338 1305h137l111 -254h-25zM586 20q77 0 135.5 30.5t91 81.5t48.5 109t16 121q0 85 -29 180t-79 178t-127.5 137t-164.5 54h-16q-128 -5 -202.5 -99.5t-74.5 -252.5q0 -67 16.5 -140.5t51 -144.5t81 -127.5t113 -91.5t140.5 -35zM530 938q93 0 177 -28t152.5 -83
t109.5 -147t41 -209q0 -107 -42.5 -200t-111 -153.5t-154 -95t-172.5 -34.5q-71 0 -139 17.5t-130 55t-109 91.5t-75 131.5t-28 169.5q0 110 42 203.5t110.5 154t154 94t174.5 33.5z" />
    <glyph glyph-name="oacute" unicode="&#xf3;" horiz-adv-x="1060" 
d="M569 1305h138l-224 -254h-24zM586 20q77 0 135.5 30.5t91 81.5t48.5 109t16 121q0 85 -29 180t-79 178t-127.5 137t-164.5 54h-16q-128 -5 -202.5 -99.5t-74.5 -252.5q0 -67 16.5 -140.5t51 -144.5t81 -127.5t113 -91.5t140.5 -35zM530 938q93 0 177 -28t152.5 -83
t109.5 -147t41 -209q0 -107 -42.5 -200t-111 -153.5t-154 -95t-172.5 -34.5q-71 0 -139 17.5t-130 55t-109 91.5t-75 131.5t-28 169.5q0 110 42 203.5t110.5 154t154 94t174.5 33.5z" />
    <glyph glyph-name="ocircumflex" unicode="&#xf4;" horiz-adv-x="1060" 
d="M719 1030l-191 182l-188 -182h-27l156 254h121l155 -254h-26zM586 20q77 0 135.5 30.5t91 81.5t48.5 109t16 121q0 85 -29 180t-79 178t-127.5 137t-164.5 54h-16q-128 -5 -202.5 -99.5t-74.5 -252.5q0 -67 16.5 -140.5t51 -144.5t81 -127.5t113 -91.5t140.5 -35z
M530 938q93 0 177 -28t152.5 -83t109.5 -147t41 -209q0 -107 -42.5 -200t-111 -153.5t-154 -95t-172.5 -34.5q-71 0 -139 17.5t-130 55t-109 91.5t-75 131.5t-28 169.5q0 110 42 203.5t110.5 154t154 94t174.5 33.5z" />
    <glyph glyph-name="otilde" unicode="&#xf5;" horiz-adv-x="1060" 
d="M414 1145q-31 0 -63 -18.5t-48 -36.5l-16 -19v37q2 5 7 13t19.5 28t30 35.5t39 28t45.5 12.5q44 0 114 -38t111 -38q29 0 60 16.5t47 32.5l16 16v-32q-67 -111 -153 -111q-39 0 -107.5 37t-101.5 37zM586 20q77 0 135.5 30.5t91 81.5t48.5 109t16 121q0 85 -29 180
t-79 178t-127.5 137t-164.5 54h-16q-128 -5 -202.5 -99.5t-74.5 -252.5q0 -67 16.5 -140.5t51 -144.5t81 -127.5t113 -91.5t140.5 -35zM530 938q93 0 177 -28t152.5 -83t109.5 -147t41 -209q0 -107 -42.5 -200t-111 -153.5t-154 -95t-172.5 -34.5q-71 0 -139 17.5t-130 55
t-109 91.5t-75 131.5t-28 169.5q0 110 42 203.5t110.5 154t154 94t174.5 33.5z" />
    <glyph glyph-name="odieresis" unicode="&#xf6;" horiz-adv-x="1060" 
d="M586 27q77 0 135.5 30.5t91 81.5t48.5 109t16 121q0 86 -29 181.5t-79 178.5t-127.5 137t-164.5 54l-16 -2q-128 -5 -202.5 -100t-74.5 -253q0 -85 27.5 -177t76 -173.5t127.5 -134.5t171 -53zM530 946q93 0 177 -28.5t152.5 -83.5t109.5 -147t41 -208q0 -108 -42.5 -201
t-111 -153.5t-154 -94.5t-172.5 -34q-71 0 -139 17.5t-130 55t-109 91t-75 131t-28 170.5q0 110 42 203t110.5 153.5t154 94.5t174.5 34zM424 1112q-40 0 -65.5 27t-24.5 69q0 40 25.5 68.5t64.5 28.5t66.5 -28.5t27.5 -68.5q0 -42 -27 -69t-67 -27zM672 1112
q-41 0 -66.5 26.5t-25.5 69.5q0 41 26 69t66 28q39 0 66.5 -28.5t27.5 -68.5q0 -42 -27 -69t-67 -27z" />
    <glyph glyph-name="oslash" unicode="&#xf8;" horiz-adv-x="1069" 
d="M188 565q0 -83 25.5 -175t73.5 -169l442 563q-111 134 -248 134h-16q-128 -5 -202.5 -100t-74.5 -253zM590 27q77 0 135.5 30.5t91 81.5t48.5 109t16 121q0 82 -27 174.5t-74 171.5l-444 -561q110 -127 254 -127zM958 942l-90 -115q146 -126 146 -350q0 -107 -42.5 -200
t-110.5 -153.5t-153.5 -95t-172.5 -34.5q-144 0 -267 72l-94 -119l-63 51l90 115q-148 128 -148 346q0 110 42 203.5t110.5 154t154.5 94t175 33.5q147 0 266 -67l92 116z" />
    <glyph glyph-name="ugrave" unicode="&#xf9;" horiz-adv-x="937" 
d="M297 1305h137l111 -254h-25zM707 938h139v-934h-137v125q-189 -125 -336 -125q-140 0 -215.5 83t-75.5 237v614h139v-578q0 -150 62.5 -226.5t185.5 -76.5q101 0 238 95v786z" />
    <glyph glyph-name="uacute" unicode="&#xfa;" horiz-adv-x="937" 
d="M530 1305h138l-224 -254h-24zM707 938h139v-934h-137v125q-189 -125 -336 -125q-140 0 -215.5 83t-75.5 237v614h139v-578q0 -150 62.5 -226.5t185.5 -76.5q101 0 238 95v786z" />
    <glyph glyph-name="ucircumflex" unicode="&#xfb;" horiz-adv-x="937" 
d="M465 1288l-109 -182h-108l155 254h121l156 -254h-109zM707 946h139v-936h-137v127q-189 -125 -336 -125q-140 0 -215.5 82.5t-75.5 235.5v616h139v-579q0 -148 62.5 -224.5t185.5 -76.5q102 0 238 94v786z" />
    <glyph glyph-name="udieresis" unicode="&#xfc;" horiz-adv-x="937" 
d="M340 1108q-41 0 -66.5 26.5t-25.5 69.5q0 40 25.5 67t66.5 27q40 0 67 -27t27 -67q0 -42 -27 -69t-67 -27zM586 1108q-40 0 -65 26.5t-25 69.5q0 40 25.5 67t64.5 27q41 0 67.5 -27t26.5 -67q0 -43 -26.5 -69.5t-67.5 -26.5zM707 946h139v-936h-137v127
q-189 -125 -336 -125q-140 0 -215.5 82.5t-75.5 235.5v616h139v-579q0 -148 62.5 -224.5t185.5 -76.5q102 0 238 94v786z" />
    <glyph glyph-name="yacute" unicode="&#xfd;" horiz-adv-x="841" 
d="M506 1305h137l-223 -254h-25zM322 -211q3 7 10 22.5t16.5 38.5t16.5 39q-104 -6 -170 -79q-48 -55 -38 -102q5 -25 29 -36q15 -6 31 -6q33 0 56 31.5t49 91.5zM469 137l330 801h32q-389 -934 -487 -1167q-38 -91 -78.5 -142t-95.5 -51q-24 0 -51 12q-40 18 -38 82
q4 81 69 149q83 87 225 93l28 72l-393 952h135z" />
    <glyph glyph-name="ydieresis" unicode="&#xff;" horiz-adv-x="833" 
d="M317 -205q3 7 18 43.5t25 59.5q-104 -6 -169 -80q-49 -55 -39 -103q6 -26 30 -37q15 -6 31 -6q17 0 32 9.5t28.5 30.5t22 37t21.5 46zM465 145l330 801h32q-389 -934 -487 -1167q-38 -92 -78.5 -143.5t-95.5 -51.5q-22 0 -51 13q-40 19 -37 84q3 82 70 150q83 84 223 91
l28 70l-393 954h135zM322 1108q-40 0 -65.5 26.5t-25.5 69.5q0 40 26 67t65 27q41 0 68.5 -27t27.5 -67q0 -42 -27 -69t-69 -27zM569 1108q-40 0 -66 27t-26 69q0 40 26 67t66 27t67.5 -27t27.5 -67q0 -42 -27.5 -69t-67.5 -27z" />
    <glyph glyph-name="Abreve" unicode="&#x102;" horiz-adv-x="1150" 
d="M326 1667l18 10q33 -76 83.5 -104.5t119.5 -28.5t119.5 28.5t83.5 104.5l18 -10q-28 -87 -82.5 -147t-138.5 -60t-138.5 60t-82.5 147zM764 539l-264 649l-262 -649h526zM229 514l-209 -514h-24l487 1221l-53 137h166l559 -1358h-162l-215 514h-549z" />
    <glyph glyph-name="abreve" unicode="&#x103;" 
d="M231 1257l19 11q33 -76 83.5 -104.5t119.5 -28.5t119 28.5t83 104.5l19 -11q-27 -87 -82 -146.5t-139 -59.5t-139.5 59.5t-82.5 146.5zM680 174v465q-8 -15 -27 -31t-53 -34t-58.5 -29.5t-73.5 -33.5t-67 -30q-196 -89 -196 -264q0 -74 61 -121t154 -47q39 0 80.5 13
t72.5 31.5t56 36.5t38 31zM459 938q163 0 259.5 -85.5t96.5 -244.5v-604h-135v135q-6 -6 -16.5 -15.5t-48 -34t-79.5 -43.5t-108.5 -34.5t-136.5 -15.5q-112 0 -180 61t-68 158q0 33 12 63.5t28 53.5t46 46.5t52.5 38t61.5 32.5t58.5 26t59 23t47.5 18q4 2 24.5 10.5t34 14
t38 16.5t41.5 20.5t39.5 21.5t37.5 23.5t29 24.5t21 26t7 25q0 98 -51 160t-164 62q-49 0 -99.5 -24.5t-86.5 -59.5t-65.5 -70t-44.5 -60l-15 -24l-58 94q47 58 148 110t215 52z" />
    <glyph glyph-name="Dcroat" unicode="&#x110;" horiz-adv-x="1267" 
d="M528 0h-426v662h-129v32h129v664h418q140 0 257.5 -37t198.5 -100.5t137.5 -148t82.5 -178t27 -192.5q0 -152 -51 -282.5t-141.5 -222.5t-220.5 -144.5t-282 -52.5zM1055 627q0 103 -23 201.5t-72.5 188.5t-120.5 158t-174.5 108t-226.5 40h-182l-2 -629h272v-32h-272
v-639h270q264 0 397.5 152t133.5 452z" />
    <glyph glyph-name="dcroat" unicode="&#x111;" horiz-adv-x="1024" 
d="M1038 1075h-106v-1071h-137v166q-11 -14 -27 -31t-50.5 -44.5t-71 -49t-88 -37.5t-103.5 -16q-172 0 -289 135.5t-117 331.5q0 59 15 122t49.5 126t83.5 112t124 80t164 31q56 0 107.5 -18.5t90 -49.5t63.5 -56.5t45 -53.5v323h-263v25h263v260h141v-260h106v-25z
M788 188v490q-23 90 -110 160.5t-195 70.5q-138 0 -220.5 -96.5t-82.5 -257.5q0 -90 22 -174.5t64.5 -155t113 -113t159.5 -42.5q128 0 249 118z" />
    <glyph glyph-name="Itilde" unicode="&#x128;" horiz-adv-x="356" 
d="M63 1577q-31 0 -62.5 -18.5t-47.5 -36.5l-16 -19v37q2 5 7 13t19.5 28t30 35.5t39 28t45.5 12.5q44 0 114 -38t111 -38q29 0 60 16.5t47 32.5l16 17v-33q-67 -111 -154 -111q-39 0 -107.5 37t-101.5 37zM252 0h-150v1358h150v-1358z" />
    <glyph glyph-name="itilde" unicode="&#x129;" horiz-adv-x="321" 
d="M55 1145q-31 0 -63 -18.5t-48 -36.5l-16 -19v37q3 5 7.5 13t19.5 28t30.5 35.5t39 28t45.5 12.5q44 0 114.5 -38t110.5 -38q29 0 60 16.5t47 32.5l16 16v-32q-67 -111 -154 -111q-39 0 -107.5 37t-101.5 37zM229 10h-139v936h139v-936z" />
    <glyph glyph-name="dotlessi" unicode="&#x131;" horiz-adv-x="321" 
d="M229 10h-139v936h139v-936z" />
    <glyph glyph-name="OE" unicode="&#x152;" horiz-adv-x="2148" 
d="M1141 156q66 69 99.5 170.5t29.5 222.5q-4 114 -33.5 227t-84 213.5t-127.5 178t-169.5 122.5t-202.5 45q-202 0 -325 -129q-142 -148 -133 -409q4 -111 33.5 -221t84 -208t127.5 -173.5t169.5 -119.5t203.5 -44q206 0 328 125zM1593 1333h-157v-598l2 -4h452v-26h-452
q-2 -3 -2 -5v-667h157q90 0 226.5 16.5t227.5 32.5l91 16v-94h-854v250q-95 -130 -242.5 -197t-310.5 -67q-101 0 -198 26t-185.5 81.5t-155 135.5t-106 196.5t-39.5 254.5q0 200 87 357t243 244t354 87q162 0 310 -70.5t243 -201.5v262h854v-94q-342 65 -545 65z" />
    <glyph glyph-name="oe" unicode="&#x153;" horiz-adv-x="1804" 
d="M586 27q77 0 135.5 30.5t91 81.5t48.5 109t16 121q0 86 -29 181.5t-79 178.5t-127.5 137t-164.5 54l-16 -2q-128 -5 -202.5 -100t-74.5 -253q0 -85 27.5 -177t76 -173.5t127.5 -134.5t171 -53zM1012 535q0 -6 6 -60l559 133q-4 29 -11.5 61t-27.5 80t-47 84t-72.5 62.5
t-101.5 26.5q-77 0 -137.5 -33.5t-96 -90t-53.5 -123.5t-18 -140zM1415 102q189 0 332 162l12 -16q-198 -254 -436 -254q-120 0 -224 59.5t-161 169.5q-66 -106 -177.5 -166.5t-230.5 -60.5q-71 0 -139 17.5t-130 55t-109 91t-75 131t-28 170.5q0 110 42 203t110.5 153.5
t154 94.5t174.5 34q135 0 250.5 -59t175.5 -174q123 229 400 229q152 0 260.5 -81t146.5 -232l-745 -176q23 -161 130 -256t267 -95z" />
    <glyph glyph-name="Scaron" unicode="&#x160;" horiz-adv-x="980" 
d="M557 1446h-121l-155 254h108l109 -182l106 182h109zM631 727q153 -60 235 -150.5t82 -195.5q0 -87 -39 -161t-103 -122t-144 -75t-164 -27t-161.5 18t-128 44t-88.5 52t-56 44l-17 18l96 154q7 -12 20 -31.5t56 -69.5t88.5 -88.5t113 -70t134.5 -31.5q110 0 192 70.5
t82 179.5q0 39 -14 75.5t-33 64t-54.5 56t-62.5 46t-74.5 40.5t-73 33.5t-73.5 30.5q-92 35 -143 55q-246 100 -246 358q0 140 126 236t311 96q71 0 135.5 -10t106 -24.5t73 -29t45.5 -24.5l14 -10l-98 -143q-67 72 -177 125t-206 53q-81 0 -146 -33t-89 -82
q-37 -73 -9.5 -144t87.5 -125.5t137 -86.5z" />
    <glyph glyph-name="scaron" unicode="&#x161;" horiz-adv-x="778" 
d="M451 1106h-123l-154 254h109l106 -180l107 180h110zM455 551q39 -13 57 -19.5t53.5 -21t53.5 -26.5t43 -32.5t37.5 -42t22 -51.5t9.5 -65q0 -113 -90 -197t-250 -84q-53 0 -105 9.5t-88 23t-64 27t-42 22.5l-14 10l59 103q59 -53 155 -90t175 -37q90 0 154.5 41t64.5 108
q0 38 -35 70.5t-65.5 46.5t-95.5 40q-11 5 -17 7q-4 2 -122.5 41t-174.5 68q-26 14 -48 31t-41.5 43t-29.5 56t-8.5 71.5t17.5 87.5q57 155 282 155q57 0 111 -15t91 -37t66 -43.5t42 -36.5l14 -15l-66 -125q-145 235 -325 235q-105 0 -138 -71q-14 -27 -11 -53t10.5 -47
t26 -41t36.5 -34.5t41.5 -28t41 -21.5t34.5 -15z" />
    <glyph glyph-name="Utilde" unicode="&#x168;" horiz-adv-x="1196" 
d="M520 1577q-31 0 -63 -18.5t-48 -36.5l-16 -19v37q3 5 7.5 13t19.5 28t30.5 35.5t39 28t45.5 12.5q43 0 114 -38t111 -38q29 0 60 16.5t47 32.5l16 17v-33q-67 -111 -154 -111q-39 0 -107.5 37t-101.5 37zM1108 518q0 -258 -123.5 -395t-355.5 -137q-41 0 -81.5 4
t-96.5 17t-104 34.5t-97.5 61t-84.5 92t-57 131t-22 174.5v858h152v-846q0 -240 116.5 -367t337.5 -127q59 0 113.5 16t106 53.5t89.5 92.5t61 140.5t23 191.5l-2 846h25v-840z" />
    <glyph glyph-name="utilde" unicode="&#x169;" horiz-adv-x="937" 
d="M340 1145q-31 0 -63 -18.5t-48 -36.5l-16 -19v37q2 5 7 13t19.5 28t30 35.5t39 28t45.5 12.5q44 0 115 -38t111 -38q29 0 59.5 16.5t46.5 32.5l16 16v-32q-67 -111 -153 -111q-39 0 -107.5 37t-101.5 37zM707 938h139v-934h-137v125q-189 -125 -336 -125
q-140 0 -215.5 83t-75.5 237v614h139v-578q0 -150 62.5 -226.5t185.5 -76.5q101 0 238 95v786z" />
    <glyph glyph-name="Ydieresis" unicode="&#x178;" horiz-adv-x="948" 
d="M365 1448q-40 0 -66.5 26.5t-26.5 67.5t26.5 68.5t66.5 27.5t67 -27.5t27 -68.5t-27 -67.5t-67 -26.5zM610 1448q-40 0 -65 26.5t-25 67.5q0 42 25.5 69t64.5 27q41 0 69 -27.5t28 -68.5t-27.5 -67.5t-69.5 -26.5zM936 1366h29l-412 -739v-617h-154v611l-415 745h178
l379 -711z" />
    <glyph glyph-name="Zcaron" unicode="&#x17d;" horiz-adv-x="958" 
d="M541 1446h-123l-156 252h111l106 -180l107 180h108zM469 39q123 0 243 16.5t179 32.5l59 16v-92h-942v21l756 1310h-295q-114 0 -220 -16.5t-155 -32.5l-49 -16v90h885v-18l-766 -1311h305z" />
    <glyph glyph-name="zcaron" unicode="&#x17e;" horiz-adv-x="778" 
d="M449 1106h-121l-156 252h109l106 -180l109 180h108zM274 37q123 0 243.5 16.5t179.5 33.5l59 17v-94h-736v21l558 891h-86q-115 0 -221 -16.5t-155 -33.5l-48 -16v90h677v-18l-569 -889z" />
    <glyph glyph-name="Ohorn" unicode="&#x1a0;" horiz-adv-x="1460" 
d="M1413 672q0 -137 -39.5 -252t-105.5 -193.5t-154.5 -134t-185 -81t-197.5 -25.5t-198 26t-185.5 81.5t-155 135.5t-106 196.5t-39.5 254.5q0 200 87 356.5t243 243t354 86.5q235 0 418 -133q68 47 68 106q0 36 -17 74t-34 58l-17 20l92 29q5 -4 11.5 -13t18 -39t11.5 -65
q0 -103 -117 -184q115 -91 181.5 -230t66.5 -317zM1270 545q-4 114 -33.5 227t-84 213.5t-127.5 178t-169.5 122.5t-202.5 45q-202 0 -325 -129q-142 -148 -133 -409q4 -111 33.5 -221t84 -208t127.5 -173.5t169.5 -119.5t203.5 -44q206 0 328 125q138 141 129 393z" />
    <glyph glyph-name="ohorn" unicode="&#x1a1;" horiz-adv-x="1060" 
d="M530 938q190 0 324 -107q55 44 55 99q0 36 -16.5 74t-33.5 58l-17 19l92 29q5 -4 11.5 -13t18 -39t11.5 -65q0 -94 -107 -176q142 -128 142 -346q0 -107 -42.5 -200t-111 -153.5t-154 -95t-172.5 -34.5q-71 0 -139 17.5t-130 55t-109 91.5t-75 131.5t-28 169.5
q0 110 42 203.5t110.5 154t154 94t174.5 33.5zM586 20q77 0 135.5 30.5t91 81.5t48.5 109t16 121q0 85 -29 180t-79 178t-127.5 137t-164.5 54h-16q-128 -5 -202.5 -99.5t-74.5 -252.5q0 -67 16.5 -140.5t51 -144.5t81 -127.5t113 -91.5t140.5 -35z" />
    <glyph glyph-name="Uhorn" unicode="&#x1af;" horiz-adv-x="1196" 
d="M1108 518q0 -258 -123.5 -395t-355.5 -137q-41 0 -81.5 4t-96.5 17t-104 34.5t-97.5 61t-84.5 92t-57 131t-22 174.5v858h152v-846q0 -240 116.5 -367t337.5 -127q59 0 113.5 16t106 53.5t89.5 92.5t61 140.5t23 191.5l-2 846h25v-148q39 16 74 48t35 81q0 36 -17 74
t-34 58l-17 20l92 29q5 -4 11.5 -13t18 -39t11.5 -65q0 -125 -174 -217v-668z" />
    <glyph glyph-name="uhorn" unicode="&#x1b0;" horiz-adv-x="937" 
d="M707 938h139v-137q39 17 71.5 49t32.5 80q0 36 -17 74t-33 58l-17 19l92 29q5 -4 11.5 -13t18 -39t11.5 -65q0 -123 -170 -215v-774h-137v125q-189 -125 -336 -125q-140 0 -215.5 83t-75.5 237v614h139v-578q0 -150 62.5 -226.5t185.5 -76.5q101 0 238 95v786z" />
    <glyph glyph-name="gravecomb" unicode="&#x300;" horiz-adv-x="552" 
d="M133 1305h137l111 -254h-25z" />
    <glyph glyph-name="acutecomb" unicode="&#x301;" horiz-adv-x="514" 
d="M240 1305h137l-223 -254h-25z" />
    <glyph glyph-name="uni0302" unicode="&#x302;" horiz-adv-x="681" 
d="M541 1030l-191 182l-188 -182h-27l156 254h121l155 -254h-26z" />
    <glyph glyph-name="tildecomb" unicode="&#x303;" horiz-adv-x="757" 
d="M270 1145q-31 0 -63 -18.5t-48 -36.5l-16 -19v37q3 5 7.5 13t19.5 28t30.5 35.5t39 28t45.5 12.5q43 0 114 -38t111 -38q29 0 60 16.5t47 32.5l16 16v-32q-67 -111 -154 -111q-39 0 -107.5 37t-101.5 37z" />
    <glyph glyph-name="uni0306" unicode="&#x306;" horiz-adv-x="692" 
d="M109 1257l18 11q33 -76 83.5 -104.5t119.5 -28.5t119 28.5t83 104.5l19 -11q-27 -87 -82 -146.5t-139 -59.5t-139 59.5t-82 146.5z" />
    <glyph glyph-name="hookabovecomb" unicode="&#x309;" horiz-adv-x="589" 
d="M289 1419q70 0 116 -39t46 -98q0 -28 -12.5 -52t-31 -40.5t-41 -33.5t-41.5 -31t-33 -33.5t-16 -40.5h-24q0 31 11.5 57t28 45t33.5 37.5t28.5 42t11.5 49.5q0 115 -80 115q-97 0 -97 -146l-73 13q-1 3 1.5 18.5t13 39t28 45t52 37t79.5 15.5z" />
    <glyph glyph-name="uni031B" unicode="&#x31b;" horiz-adv-x="460" 
d="M145 776l-20 17q5 2 14 5t31 15.5t39 27t31 38.5t14 51q0 36 -17 74t-34 58l-17 19l93 29q4 -4 11 -13t18 -39t11 -65q0 -125 -174 -217z" />
    <glyph glyph-name="dotbelowcomb" unicode="&#x323;" horiz-adv-x="446" 
d="M221 -188q37 0 63.5 -27t26.5 -64t-26.5 -63.5t-63.5 -26.5t-63.5 26.5t-26.5 63.5t26.5 64t63.5 27z" />
    <glyph glyph-name="uni1EA0" unicode="&#x1ea0;" horiz-adv-x="1150" 
d="M522 -168q37 0 63.5 -26.5t26.5 -63.5t-26.5 -63.5t-63.5 -26.5t-63.5 26.5t-26.5 63.5t26.5 63.5t63.5 26.5zM764 539l-264 649l-262 -649h526zM229 514l-209 -514h-24l487 1221l-53 137h166l559 -1358h-162l-215 514h-549z" />
    <glyph glyph-name="uni1EA1" unicode="&#x1ea1;" 
d="M446 -168q37 0 64 -26.5t27 -63.5t-27 -63.5t-64 -26.5t-63.5 26.5t-26.5 63.5t26.5 63.5t63.5 26.5zM680 174v465q-8 -15 -27 -31t-53 -34t-58.5 -29.5t-73.5 -33.5t-67 -30q-196 -89 -196 -264q0 -74 61 -121t154 -47q39 0 80.5 13t72.5 31.5t56 36.5t38 31zM459 938
q163 0 259.5 -85.5t96.5 -244.5v-604h-135v135q-6 -6 -16.5 -15.5t-48 -34t-79.5 -43.5t-108.5 -34.5t-136.5 -15.5q-112 0 -180 61t-68 158q0 33 12 63.5t28 53.5t46 46.5t52.5 38t61.5 32.5t58.5 26t59 23t47.5 18q4 2 24.5 10.5t34 14t38 16.5t41.5 20.5t39.5 21.5
t37.5 23.5t29 24.5t21 26t7 25q0 98 -51 160t-164 62q-49 0 -99.5 -24.5t-86.5 -59.5t-65.5 -70t-44.5 -60l-15 -24l-58 94q47 58 148 110t215 52z" />
    <glyph glyph-name="uni1EA2" unicode="&#x1ea2;" horiz-adv-x="1150" 
d="M571 1851q70 0 116 -39t46 -98q0 -33 -17 -60.5t-42 -46.5t-50 -36.5t-44 -40t-21 -47.5h-24q0 37 17.5 69.5t38.5 52t38.5 48.5t17.5 61q0 115 -80 115q-96 0 -96 -146l-74 13q-1 3 1.5 18.5t13 39t28 45t52 37t79.5 15.5zM764 539l-264 649l-262 -649h526zM229 514
l-209 -514h-24l487 1221l-53 137h166l559 -1358h-162l-215 514h-549z" />
    <glyph glyph-name="uni1EA3" unicode="&#x1ea3;" 
d="M512 1419q70 0 116 -39t46 -98q0 -33 -17 -60.5t-42 -46.5t-50 -36.5t-44 -40t-21 -47.5h-25q0 31 11.5 57t28 45t33.5 37.5t28.5 42t11.5 49.5q0 115 -80 115q-96 0 -96 -146l-74 13q-1 3 1.5 18.5t13 39t28 45t52 37t79.5 15.5zM680 174v465q-8 -15 -27 -31t-53 -34
t-58.5 -29.5t-73.5 -33.5t-67 -30q-196 -89 -196 -264q0 -74 61 -121t154 -47q39 0 80.5 13t72.5 31.5t56 36.5t38 31zM459 938q163 0 259.5 -85.5t96.5 -244.5v-604h-135v135q-6 -6 -16.5 -15.5t-48 -34t-79.5 -43.5t-108.5 -34.5t-136.5 -15.5q-112 0 -180 61t-68 158
q0 33 12 63.5t28 53.5t46 46.5t52.5 38t61.5 32.5t58.5 26t59 23t47.5 18q4 2 24.5 10.5t34 14t38 16.5t41.5 20.5t39.5 21.5t37.5 23.5t29 24.5t21 26t7 25q0 98 -51 160t-164 62q-49 0 -99.5 -24.5t-86.5 -59.5t-65.5 -70t-44.5 -60l-15 -24l-58 94q47 58 148 110t215 52z
" />
    <glyph glyph-name="uni1EA4" unicode="&#x1ea4;" horiz-adv-x="1150" 
d="M868 1880h138l-224 -254h-24zM764 539l-264 649l-262 -649h526zM229 514l-209 -514h-24l487 1221l-53 137h166l559 -1358h-162l-215 514h-549zM737 1462l-190 183l-189 -183h-26l155 254h121l156 -254h-27z" />
    <glyph glyph-name="uni1EA5" unicode="&#x1ea5;" 
d="M774 1448h137l-223 -254h-24zM643 1030l-190 182l-189 -182h-26l155 254h121l156 -254h-27zM680 174v465q-8 -15 -27 -31t-53 -34t-58.5 -29.5t-73.5 -33.5t-67 -30q-196 -89 -196 -264q0 -74 61 -121t154 -47q39 0 80.5 13t72.5 31.5t56 36.5t38 31zM459 938
q163 0 259.5 -85.5t96.5 -244.5v-604h-135v135q-6 -6 -16.5 -15.5t-48 -34t-79.5 -43.5t-108.5 -34.5t-136.5 -15.5q-112 0 -180 61t-68 158q0 33 12 63.5t28 53.5t46 46.5t52.5 38t61.5 32.5t58.5 26t59 23t47.5 18q4 2 24.5 10.5t34 14t38 16.5t41.5 20.5t39.5 21.5
t37.5 23.5t29 24.5t21 26t7 25q0 98 -51 160t-164 62q-49 0 -99.5 -24.5t-86.5 -59.5t-65.5 -70t-44.5 -60l-15 -24l-58 94q47 58 148 110t215 52z" />
    <glyph glyph-name="uni1EA6" unicode="&#x1ea6;" horiz-adv-x="1150" 
d="M623 1880h137l110 -254h-24zM764 539l-264 649l-262 -649h526zM229 514l-209 -514h-24l487 1221l-53 137h166l559 -1358h-162l-215 514h-549zM737 1462l-190 183l-189 -183h-26l155 254h121l156 -254h-27z" />
    <glyph glyph-name="uni1EA7" unicode="&#x1ea7;" 
d="M528 1448h138l110 -254h-24zM643 1030l-190 182l-189 -182h-26l155 254h121l156 -254h-27zM680 174v465q-8 -15 -27 -31t-53 -34t-58.5 -29.5t-73.5 -33.5t-67 -30q-196 -89 -196 -264q0 -74 61 -121t154 -47q39 0 80.5 13t72.5 31.5t56 36.5t38 31zM459 938
q163 0 259.5 -85.5t96.5 -244.5v-604h-135v135q-6 -6 -16.5 -15.5t-48 -34t-79.5 -43.5t-108.5 -34.5t-136.5 -15.5q-112 0 -180 61t-68 158q0 33 12 63.5t28 53.5t46 46.5t52.5 38t61.5 32.5t58.5 26t59 23t47.5 18q4 2 24.5 10.5t34 14t38 16.5t41.5 20.5t39.5 21.5
t37.5 23.5t29 24.5t21 26t7 25q0 98 -51 160t-164 62q-49 0 -99.5 -24.5t-86.5 -59.5t-65.5 -70t-44.5 -60l-15 -24l-58 94q47 58 148 110t215 52z" />
    <glyph glyph-name="uni1EA8" unicode="&#x1ea8;" horiz-adv-x="1150" 
d="M825 1995q70 0 116 -39t46 -98q0 -33 -17 -60.5t-42 -46.5t-50 -37t-44 -40.5t-21 -47.5h-25q0 31 11.5 57t28 45.5t33.5 38t28.5 42t11.5 49.5q0 114 -80 114q-96 0 -96 -145l-74 12q-1 3 1.5 18.5t13 39t28 45.5t52 37.5t79.5 15.5zM764 539l-264 649l-262 -649h526z
M229 514l-209 -514h-24l487 1221l-53 137h166l559 -1358h-162l-215 514h-549zM737 1462l-190 183l-189 -183h-26l155 254h121l156 -254h-27z" />
    <glyph glyph-name="uni1EA9" unicode="&#x1ea9;" 
d="M731 1563q70 0 116 -39.5t46 -98.5q0 -33 -17 -60.5t-42 -46.5t-50 -36.5t-44 -40t-21 -47.5h-25q0 31 11.5 57t28 45t33.5 37.5t28.5 42t11.5 49.5q0 115 -80 115q-96 0 -96 -145l-74 12q-1 3 1.5 18.5t13 39t28 45.5t52 37.5t79.5 15.5zM643 1030l-190 182l-189 -182
h-26l155 254h121l156 -254h-27zM680 174v465q-8 -15 -27 -31t-53 -34t-58.5 -29.5t-73.5 -33.5t-67 -30q-196 -89 -196 -264q0 -74 61 -121t154 -47q39 0 80.5 13t72.5 31.5t56 36.5t38 31zM459 938q163 0 259.5 -85.5t96.5 -244.5v-604h-135v135q-6 -6 -16.5 -15.5t-48 -34
t-79.5 -43.5t-108.5 -34.5t-136.5 -15.5q-112 0 -180 61t-68 158q0 33 12 63.5t28 53.5t46 46.5t52.5 38t61.5 32.5t58.5 26t59 23t47.5 18q4 2 24.5 10.5t34 14t38 16.5t41.5 20.5t39.5 21.5t37.5 23.5t29 24.5t21 26t7 25q0 98 -51 160t-164 62q-49 0 -99.5 -24.5
t-86.5 -59.5t-65.5 -70t-44.5 -60l-15 -24l-58 94q47 58 148 110t215 52z" />
    <glyph glyph-name="uni1EAA" unicode="&#x1eaa;" horiz-adv-x="1150" 
d="M434 1890q-20 0 -40 -7.5t-35 -18t-27 -21.5t-18 -19l-7 -7v36q3 5 7.5 13t19.5 28t30.5 35.5t39 28t45.5 12.5q43 0 114 -38t111 -38q29 0 60 16.5t47 33.5l16 16v-33q-66 -110 -154 -110q-39 0 -107.5 36.5t-101.5 36.5zM764 539l-264 649l-262 -649h526zM229 514
l-209 -514h-24l487 1221l-53 137h166l559 -1358h-162l-215 514h-549zM737 1462l-190 183l-189 -183h-26l155 254h121l156 -254h-27z" />
    <glyph glyph-name="uni1EAB" unicode="&#x1eab;" 
d="M340 1458q-31 0 -63 -18.5t-48 -37.5l-16 -18v37q2 5 7 13t19.5 28t30 35.5t39 28t45.5 12.5q44 0 115 -38t111 -38q29 0 59.5 16.5t46.5 33.5l16 16v-33q-67 -111 -153 -111q-39 0 -107.5 37t-101.5 37zM643 1030l-190 182l-189 -182h-26l155 254h121l156 -254h-27z
M680 174v465q-8 -15 -27 -31t-53 -34t-58.5 -29.5t-73.5 -33.5t-67 -30q-196 -89 -196 -264q0 -74 61 -121t154 -47q39 0 80.5 13t72.5 31.5t56 36.5t38 31zM459 938q163 0 259.5 -85.5t96.5 -244.5v-604h-135v135q-6 -6 -16.5 -15.5t-48 -34t-79.5 -43.5t-108.5 -34.5
t-136.5 -15.5q-112 0 -180 61t-68 158q0 33 12 63.5t28 53.5t46 46.5t52.5 38t61.5 32.5t58.5 26t59 23t47.5 18q4 2 24.5 10.5t34 14t38 16.5t41.5 20.5t39.5 21.5t37.5 23.5t29 24.5t21 26t7 25q0 98 -51 160t-164 62q-49 0 -99.5 -24.5t-86.5 -59.5t-65.5 -70t-44.5 -60
l-15 -24l-58 94q47 58 148 110t215 52z" />
    <glyph glyph-name="uni1EAC" unicode="&#x1eac;" horiz-adv-x="1150" 
d="M522 -168q37 0 63.5 -26.5t26.5 -63.5t-26.5 -63.5t-63.5 -26.5t-63.5 26.5t-26.5 63.5t26.5 63.5t63.5 26.5zM764 539l-264 649l-262 -649h526zM229 514l-209 -514h-24l487 1221l-53 137h166l559 -1358h-162l-215 514h-549zM737 1462l-190 183l-189 -183h-26l155 254
h121l156 -254h-27z" />
    <glyph glyph-name="uni1EAD" unicode="&#x1ead;" 
d="M446 -168q37 0 64 -26.5t27 -63.5t-27 -63.5t-64 -26.5t-63.5 26.5t-26.5 63.5t26.5 63.5t63.5 26.5zM643 1030l-190 182l-189 -182h-26l155 254h121l156 -254h-27zM680 174v465q-8 -15 -27 -31t-53 -34t-58.5 -29.5t-73.5 -33.5t-67 -30q-196 -89 -196 -264
q0 -74 61 -121t154 -47q39 0 80.5 13t72.5 31.5t56 36.5t38 31zM459 938q163 0 259.5 -85.5t96.5 -244.5v-604h-135v135q-6 -6 -16.5 -15.5t-48 -34t-79.5 -43.5t-108.5 -34.5t-136.5 -15.5q-112 0 -180 61t-68 158q0 33 12 63.5t28 53.5t46 46.5t52.5 38t61.5 32.5t58.5 26
t59 23t47.5 18q4 2 24.5 10.5t34 14t38 16.5t41.5 20.5t39.5 21.5t37.5 23.5t29 24.5t21 26t7 25q0 98 -51 160t-164 62q-49 0 -99.5 -24.5t-86.5 -59.5t-65.5 -70t-44.5 -60l-15 -24l-58 94q47 58 148 110t215 52z" />
    <glyph glyph-name="uni1EAE" unicode="&#x1eae;" horiz-adv-x="1150" 
d="M612 1931h138l-224 -254h-24zM326 1667l18 10q33 -76 83.5 -104.5t119.5 -28.5t119.5 28.5t83.5 104.5l18 -10q-28 -87 -82.5 -147t-138.5 -60t-138.5 60t-82.5 147zM764 539l-264 649l-262 -649h526zM229 514l-209 -514h-24l487 1221l-53 137h166l559 -1358h-162
l-215 514h-549z" />
    <glyph glyph-name="uni1EAF" unicode="&#x1eaf;" 
d="M518 1522h137l-223 -254h-24zM231 1257l19 11q33 -76 83.5 -104.5t119.5 -28.5t119 28.5t83 104.5l19 -11q-27 -87 -82 -146.5t-139 -59.5t-139.5 59.5t-82.5 146.5zM680 174v465q-8 -15 -27 -31t-53 -34t-58.5 -29.5t-73.5 -33.5t-67 -30q-196 -89 -196 -264
q0 -74 61 -121t154 -47q39 0 80.5 13t72.5 31.5t56 36.5t38 31zM459 938q163 0 259.5 -85.5t96.5 -244.5v-604h-135v135q-6 -6 -16.5 -15.5t-48 -34t-79.5 -43.5t-108.5 -34.5t-136.5 -15.5q-112 0 -180 61t-68 158q0 33 12 63.5t28 53.5t46 46.5t52.5 38t61.5 32.5t58.5 26
t59 23t47.5 18q4 2 24.5 10.5t34 14t38 16.5t41.5 20.5t39.5 21.5t37.5 23.5t29 24.5t21 26t7 25q0 98 -51 160t-164 62q-49 0 -99.5 -24.5t-86.5 -59.5t-65.5 -70t-44.5 -60l-15 -24l-58 94q47 58 148 110t215 52z" />
    <glyph glyph-name="uni1EB0" unicode="&#x1eb0;" horiz-adv-x="1150" 
d="M342 1931h137l111 -254h-25zM326 1667l18 10q33 -76 83.5 -104.5t119.5 -28.5t119.5 28.5t83.5 104.5l18 -10q-28 -87 -82.5 -147t-138.5 -60t-138.5 60t-82.5 147zM764 539l-264 649l-262 -649h526zM229 514l-209 -514h-24l487 1221l-53 137h166l559 -1358h-162
l-215 514h-549z" />
    <glyph glyph-name="uni1EB1" unicode="&#x1eb1;" 
d="M248 1522h137l111 -254h-25zM231 1257l19 11q33 -76 83.5 -104.5t119.5 -28.5t119 28.5t83 104.5l19 -11q-27 -87 -82 -146.5t-139 -59.5t-139.5 59.5t-82.5 146.5zM680 174v465q-8 -15 -27 -31t-53 -34t-58.5 -29.5t-73.5 -33.5t-67 -30q-196 -89 -196 -264
q0 -74 61 -121t154 -47q39 0 80.5 13t72.5 31.5t56 36.5t38 31zM459 938q163 0 259.5 -85.5t96.5 -244.5v-604h-135v135q-6 -6 -16.5 -15.5t-48 -34t-79.5 -43.5t-108.5 -34.5t-136.5 -15.5q-112 0 -180 61t-68 158q0 33 12 63.5t28 53.5t46 46.5t52.5 38t61.5 32.5t58.5 26
t59 23t47.5 18q4 2 24.5 10.5t34 14t38 16.5t41.5 20.5t39.5 21.5t37.5 23.5t29 24.5t21 26t7 25q0 98 -51 160t-164 62q-49 0 -99.5 -24.5t-86.5 -59.5t-65.5 -70t-44.5 -60l-15 -24l-58 94q47 58 148 110t215 52z" />
    <glyph glyph-name="uni1EB2" unicode="&#x1eb2;" horiz-adv-x="1150" 
d="M571 2036q70 0 116 -39.5t46 -98.5q0 -33 -17 -60.5t-42 -46.5t-50 -36.5t-44 -40t-21 -47.5h-24q0 37 17.5 69.5t38.5 52t38.5 48.5t17.5 61q0 115 -80 115q-96 0 -96 -145l-74 12q-1 3 1.5 18.5t13 39t28 45.5t52 37.5t79.5 15.5zM326 1667l18 10q33 -76 83.5 -104.5
t119.5 -28.5t119.5 28.5t83.5 104.5l18 -10q-28 -87 -82.5 -147t-138.5 -60t-138.5 60t-82.5 147zM764 539l-264 649l-262 -649h526zM229 514l-209 -514h-24l487 1221l-53 137h166l559 -1358h-162l-215 514h-549z" />
    <glyph glyph-name="uni1EB3" unicode="&#x1eb3;" 
d="M477 1626q70 0 116 -39t46 -98q0 -33 -17 -60.5t-42 -46.5t-50 -37t-44 -40.5t-21 -47.5h-25q0 31 11.5 57t28 45.5t33.5 38t28.5 42t11.5 49.5q0 115 -80 115q-96 0 -96 -146l-74 12q-1 3 1.5 18.5t13 39t28 45.5t52 37.5t79.5 15.5zM231 1257l19 11q33 -76 83.5 -104.5
t119.5 -28.5t119 28.5t83 104.5l19 -11q-27 -87 -82 -146.5t-139 -59.5t-139.5 59.5t-82.5 146.5zM680 174v465q-8 -15 -27 -31t-53 -34t-58.5 -29.5t-73.5 -33.5t-67 -30q-196 -89 -196 -264q0 -74 61 -121t154 -47q39 0 80.5 13t72.5 31.5t56 36.5t38 31zM459 938
q163 0 259.5 -85.5t96.5 -244.5v-604h-135v135q-6 -6 -16.5 -15.5t-48 -34t-79.5 -43.5t-108.5 -34.5t-136.5 -15.5q-112 0 -180 61t-68 158q0 33 12 63.5t28 53.5t46 46.5t52.5 38t61.5 32.5t58.5 26t59 23t47.5 18q4 2 24.5 10.5t34 14t38 16.5t41.5 20.5t39.5 21.5
t37.5 23.5t29 24.5t21 26t7 25q0 98 -51 160t-164 62q-49 0 -99.5 -24.5t-86.5 -59.5t-65.5 -70t-44.5 -60l-15 -24l-58 94q47 58 148 110t215 52z" />
    <glyph glyph-name="uni1EB4" unicode="&#x1eb4;" horiz-adv-x="1150" 
d="M455 1827q-31 0 -63 -18.5t-48 -36.5l-16 -19v37q2 5 7 13t19.5 28t30 35.5t39 28t45.5 12.5q43 0 114 -38t111 -38q29 0 60 16.5t47 32.5l16 16v-32q-67 -111 -153 -111q-39 0 -107.5 37t-101.5 37zM326 1667l18 10q33 -76 83.5 -104.5t119.5 -28.5t119.5 28.5
t83.5 104.5l18 -10q-28 -87 -82.5 -147t-138.5 -60t-138.5 60t-82.5 147zM764 539l-264 649l-262 -649h526zM229 514l-209 -514h-24l487 1221l-53 137h166l559 -1358h-162l-215 514h-549z" />
    <glyph glyph-name="uni1EB5" unicode="&#x1eb5;" 
d="M360 1417q-31 0 -63 -18.5t-48 -36.5l-16 -19v37q3 5 7.5 13t19.5 28t30.5 35.5t39 28t45.5 12.5q43 0 114 -38t111 -38q29 0 60 16.5t47 32.5l16 17v-33q-67 -111 -154 -111q-39 0 -107.5 37t-101.5 37zM231 1257l19 11q33 -76 83.5 -104.5t119.5 -28.5t119 28.5
t83 104.5l19 -11q-27 -87 -82 -146.5t-139 -59.5t-139.5 59.5t-82.5 146.5zM680 174v465q-8 -15 -27 -31t-53 -34t-58.5 -29.5t-73.5 -33.5t-67 -30q-196 -89 -196 -264q0 -74 61 -121t154 -47q39 0 80.5 13t72.5 31.5t56 36.5t38 31zM459 938q163 0 259.5 -85.5
t96.5 -244.5v-604h-135v135q-6 -6 -16.5 -15.5t-48 -34t-79.5 -43.5t-108.5 -34.5t-136.5 -15.5q-112 0 -180 61t-68 158q0 33 12 63.5t28 53.5t46 46.5t52.5 38t61.5 32.5t58.5 26t59 23t47.5 18q4 2 24.5 10.5t34 14t38 16.5t41.5 20.5t39.5 21.5t37.5 23.5t29 24.5t21 26
t7 25q0 98 -51 160t-164 62q-49 0 -99.5 -24.5t-86.5 -59.5t-65.5 -70t-44.5 -60l-15 -24l-58 94q47 58 148 110t215 52z" />
    <glyph glyph-name="uni1EB6" unicode="&#x1eb6;" horiz-adv-x="1150" 
d="M522 -168q37 0 63.5 -26.5t26.5 -63.5t-26.5 -63.5t-63.5 -26.5t-63.5 26.5t-26.5 63.5t26.5 63.5t63.5 26.5zM326 1667l18 10q33 -76 83.5 -104.5t119.5 -28.5t119.5 28.5t83.5 104.5l18 -10q-28 -87 -82.5 -147t-138.5 -60t-138.5 60t-82.5 147zM764 539l-264 649
l-262 -649h526zM229 514l-209 -514h-24l487 1221l-53 137h166l559 -1358h-162l-215 514h-549z" />
    <glyph glyph-name="uni1EB7" unicode="&#x1eb7;" 
d="M446 -168q37 0 64 -26.5t27 -63.5t-27 -63.5t-64 -26.5t-63.5 26.5t-26.5 63.5t26.5 63.5t63.5 26.5zM231 1257l19 11q33 -76 83.5 -104.5t119.5 -28.5t119 28.5t83 104.5l19 -11q-27 -87 -82 -146.5t-139 -59.5t-139.5 59.5t-82.5 146.5zM680 174v465q-8 -15 -27 -31
t-53 -34t-58.5 -29.5t-73.5 -33.5t-67 -30q-196 -89 -196 -264q0 -74 61 -121t154 -47q39 0 80.5 13t72.5 31.5t56 36.5t38 31zM459 938q163 0 259.5 -85.5t96.5 -244.5v-604h-135v135q-6 -6 -16.5 -15.5t-48 -34t-79.5 -43.5t-108.5 -34.5t-136.5 -15.5q-112 0 -180 61
t-68 158q0 33 12 63.5t28 53.5t46 46.5t52.5 38t61.5 32.5t58.5 26t59 23t47.5 18q4 2 24.5 10.5t34 14t38 16.5t41.5 20.5t39.5 21.5t37.5 23.5t29 24.5t21 26t7 25q0 98 -51 160t-164 62q-49 0 -99.5 -24.5t-86.5 -59.5t-65.5 -70t-44.5 -60l-15 -24l-58 94q47 58 148 110
t215 52z" />
    <glyph glyph-name="uni1EB8" unicode="&#x1eb8;" horiz-adv-x="964" 
d="M543 -168q37 0 63.5 -26.5t26.5 -63.5t-26.5 -63.5t-63.5 -26.5t-63.5 26.5t-26.5 63.5t26.5 63.5t63.5 26.5zM410 1329h-156v-598q0 -4 2 -4h453v-29h-453q-2 0 -2 -2v-667h156q91 0 227 16.5t227 32.5l90 16v-94h-852v1358h852v-94q-339 65 -544 65z" />
    <glyph glyph-name="uni1EB9" unicode="&#x1eb9;" horiz-adv-x="966" 
d="M508 -188q37 0 63.5 -27t26.5 -64t-26.5 -63.5t-63.5 -26.5t-63.5 26.5t-26.5 63.5t26.5 64t63.5 27zM174 528q0 -1 6 -61l559 135q-4 29 -11.5 61t-27.5 79.5t-47 83.5t-73.5 62.5t-102.5 26.5q-61 0 -112 -22.5t-86 -60.5t-59 -88.5t-35 -104.5t-11 -111zM578 96
q188 0 331 162l13 -16q-194 -254 -437 -254q-82 0 -158.5 29t-138.5 83.5t-99.5 141.5t-37.5 194q0 211 128 354.5t335 143.5q154 0 263.5 -80t148.5 -231l-746 -177q23 -160 130 -255t268 -95z" />
    <glyph glyph-name="uni1EBA" unicode="&#x1eba;" horiz-adv-x="964" 
d="M573 1851q70 0 116 -39t46 -98q0 -33 -17 -60.5t-42 -46.5t-50 -36.5t-44 -40t-21 -47.5h-24q0 37 17.5 69.5t38.5 52t38.5 48.5t17.5 61q0 115 -80 115q-96 0 -96 -146l-74 13q-1 3 1.5 18.5t13 39t28 45t52 37t79.5 15.5zM410 1329h-156v-598q0 -4 2 -4h453v-29h-453
q-2 0 -2 -2v-667h156q91 0 227 16.5t227 32.5l90 16v-94h-852v1358h852v-94q-339 65 -544 65z" />
    <glyph glyph-name="uni1EBB" unicode="&#x1ebb;" horiz-adv-x="966" 
d="M532 1419q70 0 116 -39t46 -98q0 -33 -17 -60.5t-42 -46.5t-50 -36.5t-44 -40t-21 -47.5h-24q0 37 17.5 69.5t38.5 52t38.5 48.5t17.5 61q0 115 -80 115q-96 0 -96 -146l-74 13q-1 3 1.5 18.5t13 39t28 45t52 37t79.5 15.5zM174 528q0 -1 6 -61l559 135q-4 29 -11.5 61
t-27.5 79.5t-47 83.5t-73.5 62.5t-102.5 26.5q-61 0 -112 -22.5t-86 -60.5t-59 -88.5t-35 -104.5t-11 -111zM578 96q188 0 331 162l13 -16q-194 -254 -437 -254q-82 0 -158.5 29t-138.5 83.5t-99.5 141.5t-37.5 194q0 211 128 354.5t335 143.5q154 0 263.5 -80t148.5 -231
l-746 -177q23 -160 130 -255t268 -95z" />
    <glyph glyph-name="uni1EBC" unicode="&#x1ebc;" horiz-adv-x="964" 
d="M422 1577q-31 0 -63 -18.5t-48 -36.5l-16 -19v37q2 5 7 13t19.5 28t30 35.5t39 28t45.5 12.5q44 0 115 -38t111 -38q29 0 59.5 16.5t46.5 32.5l16 17v-33q-67 -111 -153 -111q-39 0 -107.5 37t-101.5 37zM410 1329h-156v-598q0 -4 2 -4h453v-29h-453q-2 0 -2 -2v-667h156
q91 0 227 16.5t227 32.5l90 16v-94h-852v1358h852v-94q-339 65 -544 65z" />
    <glyph glyph-name="uni1EBD" unicode="&#x1ebd;" horiz-adv-x="966" 
d="M381 1145q-31 0 -63 -18.5t-48 -36.5l-16 -19v37q2 5 7 13t19.5 28t30 35.5t39 28t45.5 12.5q43 0 114 -38t112 -38q29 0 59.5 16.5t46.5 32.5l16 16v-32q-67 -111 -153 -111q-39 0 -107.5 37t-101.5 37zM174 528q0 -1 6 -61l559 135q-4 29 -11.5 61t-27.5 79.5t-47 83.5
t-73.5 62.5t-102.5 26.5q-61 0 -112 -22.5t-86 -60.5t-59 -88.5t-35 -104.5t-11 -111zM578 96q188 0 331 162l13 -16q-194 -254 -437 -254q-82 0 -158.5 29t-138.5 83.5t-99.5 141.5t-37.5 194q0 211 128 354.5t335 143.5q154 0 263.5 -80t148.5 -231l-746 -177
q23 -160 130 -255t268 -95z" />
    <glyph glyph-name="uni1EBE" unicode="&#x1ebe;" horiz-adv-x="964" 
d="M848 1880h137l-223 -254h-25zM717 1462l-191 183l-188 -183h-27l156 254h121l155 -254h-26zM410 1329h-156v-598q0 -4 2 -4h453v-29h-453q-2 0 -2 -2v-667h156q91 0 227 16.5t227 32.5l90 16v-94h-852v1358h852v-94q-339 65 -544 65z" />
    <glyph glyph-name="uni1EBF" unicode="&#x1ebf;" horiz-adv-x="966" 
d="M817 1448h137l-223 -254h-24zM686 1030l-190 182l-189 -182h-26l155 254h121l156 -254h-27zM174 528q0 -1 6 -61l559 135q-4 29 -11.5 61t-27.5 79.5t-47 83.5t-73.5 62.5t-102.5 26.5q-61 0 -112 -22.5t-86 -60.5t-59 -88.5t-35 -104.5t-11 -111zM578 96q188 0 331 162
l13 -16q-194 -254 -437 -254q-82 0 -158.5 29t-138.5 83.5t-99.5 141.5t-37.5 194q0 211 128 354.5t335 143.5q154 0 263.5 -80t148.5 -231l-746 -177q23 -160 130 -255t268 -95z" />
    <glyph glyph-name="uni1EC0" unicode="&#x1ec0;" horiz-adv-x="964" 
d="M602 1880h137l111 -254h-25zM717 1462l-191 183l-188 -183h-27l156 254h121l155 -254h-26zM410 1329h-156v-598q0 -4 2 -4h453v-29h-453q-2 0 -2 -2v-667h156q91 0 227 16.5t227 32.5l90 16v-94h-852v1358h852v-94q-339 65 -544 65z" />
    <glyph glyph-name="uni1EC1" unicode="&#x1ec1;" horiz-adv-x="966" 
d="M571 1448h138l110 -254h-24zM686 1030l-190 182l-189 -182h-26l155 254h121l156 -254h-27zM174 528q0 -1 6 -61l559 135q-4 29 -11.5 61t-27.5 79.5t-47 83.5t-73.5 62.5t-102.5 26.5q-61 0 -112 -22.5t-86 -60.5t-59 -88.5t-35 -104.5t-11 -111zM578 96q188 0 331 162
l13 -16q-194 -254 -437 -254q-82 0 -158.5 29t-138.5 83.5t-99.5 141.5t-37.5 194q0 211 128 354.5t335 143.5q154 0 263.5 -80t148.5 -231l-746 -177q23 -160 130 -255t268 -95z" />
    <glyph glyph-name="uni1EC2" unicode="&#x1ec2;" horiz-adv-x="964" 
d="M805 1995q70 0 116 -39t46 -98q0 -33 -17 -60.5t-42 -46.5t-50 -37t-44 -40.5t-21 -47.5h-25q0 31 11.5 57t28 45.5t33.5 38t28.5 42t11.5 49.5q0 114 -80 114q-96 0 -96 -145l-74 12q-1 3 1.5 18.5t13 39t28 45.5t52 37.5t79.5 15.5zM717 1462l-191 183l-188 -183h-27
l156 254h121l155 -254h-26zM410 1329h-156v-598q0 -4 2 -4h453v-29h-453q-2 0 -2 -2v-667h156q91 0 227 16.5t227 32.5l90 16v-94h-852v1358h852v-94q-339 65 -544 65z" />
    <glyph glyph-name="uni1EC3" unicode="&#x1ec3;" horiz-adv-x="966" 
d="M774 1563q70 0 116 -39.5t46 -98.5q0 -33 -17 -60.5t-42 -46.5t-50 -36.5t-44 -40t-21 -47.5h-25q0 31 11.5 57t28 45t33.5 37.5t28.5 42t11.5 49.5q0 115 -80 115q-96 0 -96 -145l-74 12q-1 3 1.5 18.5t13 39t28 45.5t52 37.5t79.5 15.5zM686 1030l-190 182l-189 -182
h-26l155 254h121l156 -254h-27zM174 528q0 -1 6 -61l559 135q-4 29 -11.5 61t-27.5 79.5t-47 83.5t-73.5 62.5t-102.5 26.5q-61 0 -112 -22.5t-86 -60.5t-59 -88.5t-35 -104.5t-11 -111zM578 96q188 0 331 162l13 -16q-194 -254 -437 -254q-82 0 -158.5 29t-138.5 83.5
t-99.5 141.5t-37.5 194q0 211 128 354.5t335 143.5q154 0 263.5 -80t148.5 -231l-746 -177q23 -160 130 -255t268 -95z" />
    <glyph glyph-name="uni1EC4" unicode="&#x1ec4;" horiz-adv-x="964" 
d="M414 1890q-20 0 -40 -7.5t-35 -18t-27 -21.5t-18 -19l-7 -7v36q2 5 7 13t19.5 28t30 35.5t39 28t45.5 12.5q44 0 114 -38t111 -38q29 0 60 16.5t47 33.5l16 16v-33q-66 -110 -153 -110q-39 0 -107.5 36.5t-101.5 36.5zM717 1462l-191 183l-188 -183h-27l156 254h121
l155 -254h-26zM410 1329h-156v-598q0 -4 2 -4h453v-29h-453q-2 0 -2 -2v-667h156q91 0 227 16.5t227 32.5l90 16v-94h-852v1358h852v-94q-339 65 -544 65z" />
    <glyph glyph-name="uni1EC5" unicode="&#x1ec5;" horiz-adv-x="966" 
d="M383 1458q-31 0 -63 -18.5t-48 -37.5l-16 -18v37q2 5 7 13t19.5 28t30 35.5t39 28t45.5 12.5q43 0 114 -38t112 -38q29 0 59.5 16.5t46.5 33.5l16 16v-33q-67 -111 -153 -111q-39 0 -107.5 37t-101.5 37zM686 1030l-190 182l-189 -182h-26l155 254h121l156 -254h-27z
M174 528q0 -1 6 -61l559 135q-4 29 -11.5 61t-27.5 79.5t-47 83.5t-73.5 62.5t-102.5 26.5q-61 0 -112 -22.5t-86 -60.5t-59 -88.5t-35 -104.5t-11 -111zM578 96q188 0 331 162l13 -16q-194 -254 -437 -254q-82 0 -158.5 29t-138.5 83.5t-99.5 141.5t-37.5 194
q0 211 128 354.5t335 143.5q154 0 263.5 -80t148.5 -231l-746 -177q23 -160 130 -255t268 -95z" />
    <glyph glyph-name="uni1EC6" unicode="&#x1ec6;" horiz-adv-x="964" 
d="M543 -168q37 0 63.5 -26.5t26.5 -63.5t-26.5 -63.5t-63.5 -26.5t-63.5 26.5t-26.5 63.5t26.5 63.5t63.5 26.5zM717 1462l-191 183l-188 -183h-27l156 254h121l155 -254h-26zM410 1329h-156v-598q0 -4 2 -4h453v-29h-453q-2 0 -2 -2v-667h156q91 0 227 16.5t227 32.5
l90 16v-94h-852v1358h852v-94q-339 65 -544 65z" />
    <glyph glyph-name="uni1EC7" unicode="&#x1ec7;" horiz-adv-x="966" 
d="M508 -188q37 0 63.5 -27t26.5 -64t-26.5 -63.5t-63.5 -26.5t-63.5 26.5t-26.5 63.5t26.5 64t63.5 27zM686 1030l-190 182l-189 -182h-26l155 254h121l156 -254h-27zM174 528q0 -1 6 -61l559 135q-4 29 -11.5 61t-27.5 79.5t-47 83.5t-73.5 62.5t-102.5 26.5
q-61 0 -112 -22.5t-86 -60.5t-59 -88.5t-35 -104.5t-11 -111zM578 96q188 0 331 162l13 -16q-194 -254 -437 -254q-82 0 -158.5 29t-138.5 83.5t-99.5 141.5t-37.5 194q0 211 128 354.5t335 143.5q154 0 263.5 -80t148.5 -231l-746 -177q23 -160 130 -255t268 -95z" />
    <glyph glyph-name="uni1EC8" unicode="&#x1ec8;" horiz-adv-x="356" 
d="M201 1851q70 0 115.5 -39t45.5 -98q0 -33 -17 -60.5t-42 -46.5t-50 -36.5t-44 -40t-21 -47.5h-24q0 37 17.5 69.5t38.5 52t38.5 48.5t17.5 61q0 115 -79 115q-97 0 -97 -146l-73 13q-1 3 1.5 18.5t13 39t28 45t52 37t79.5 15.5zM252 0h-150v1358h150v-1358z" />
    <glyph glyph-name="uni1EC9" unicode="&#x1ec9;" horiz-adv-x="321" 
d="M184 1419q70 0 116 -39t46 -98q0 -33 -17 -60.5t-42 -46.5t-50 -36.5t-44 -40t-21 -47.5h-25q0 31 11.5 57t28.5 45t33.5 37.5t28 42t11.5 49.5q0 115 -80 115q-96 0 -96 -146l-74 13q-1 3 1.5 18.5t13 39t28 45t52 37t79.5 15.5zM229 10h-139v936h139v-936z" />
    <glyph glyph-name="uni1ECA" unicode="&#x1eca;" horiz-adv-x="356" 
d="M176 -168q37 0 63.5 -26.5t26.5 -63.5t-26.5 -63.5t-63.5 -26.5t-63.5 26.5t-26.5 63.5t26.5 63.5t63.5 26.5zM252 0h-150v1358h150v-1358z" />
    <glyph glyph-name="uni1ECB" unicode="&#x1ecb;" horiz-adv-x="325" 
d="M162 -168q37 0 63.5 -26.5t26.5 -63.5t-26.5 -63.5t-63.5 -26.5t-63.5 26.5t-26.5 63.5t26.5 63.5t63.5 26.5zM162 1096q-35 0 -60.5 25.5t-25.5 60.5q0 38 24.5 63t61.5 25q38 0 62 -25t24 -63q0 -36 -25 -61t-61 -25zM231 4h-139v934h139v-934z" />
    <glyph glyph-name="uni1ECC" unicode="&#x1ecc;" horiz-adv-x="1460" 
d="M729 -188q37 0 63.5 -27t26.5 -64t-26.5 -63.5t-63.5 -26.5t-63.5 26.5t-26.5 63.5t26.5 64t63.5 27zM1270 545q-4 114 -33.5 227t-84 213.5t-127.5 178t-169.5 122.5t-202.5 45q-202 0 -325 -129q-142 -148 -133 -409q4 -111 33.5 -221t84 -208t127.5 -173.5
t169.5 -119.5t203.5 -44q206 0 328 125q138 141 129 393zM1413 672q0 -137 -39.5 -252t-105.5 -193.5t-154.5 -134t-185 -81t-197.5 -25.5t-198 26t-185.5 81.5t-155 135.5t-106 196.5t-39.5 254.5q0 200 87 356.5t243 243t354 86.5q130 0 250.5 -45t217.5 -129.5
t155.5 -219.5t58.5 -300z" />
    <glyph glyph-name="uni1ECD" unicode="&#x1ecd;" horiz-adv-x="1060" 
d="M528 -188q37 0 63.5 -27t26.5 -64t-26.5 -63.5t-63.5 -26.5t-63.5 26.5t-26.5 63.5t26.5 64t63.5 27zM586 20q77 0 135.5 30.5t91 81.5t48.5 109t16 121q0 85 -29 180t-79 178t-127.5 137t-164.5 54h-16q-128 -5 -202.5 -99.5t-74.5 -252.5q0 -67 16.5 -140.5t51 -144.5
t81 -127.5t113 -91.5t140.5 -35zM530 938q93 0 177 -28t152.5 -83t109.5 -147t41 -209q0 -107 -42.5 -200t-111 -153.5t-154 -95t-172.5 -34.5q-71 0 -139 17.5t-130 55t-109 91.5t-75 131.5t-28 169.5q0 110 42 203.5t110.5 154t154 94t174.5 33.5z" />
    <glyph glyph-name="uni1ECE" unicode="&#x1ece;" horiz-adv-x="1460" 
d="M754 1851q70 0 115.5 -39t45.5 -98q0 -33 -17 -60.5t-42 -46.5t-50 -36.5t-44 -40t-21 -47.5h-24q0 37 17.5 69.5t38.5 52t38.5 48.5t17.5 61q0 115 -79 115q-97 0 -97 -146l-73 13q-1 3 1.5 18.5t13 39t28 45t52 37t79.5 15.5zM1270 545q-4 114 -33.5 227t-84 213.5
t-127.5 178t-169.5 122.5t-202.5 45q-202 0 -325 -129q-142 -148 -133 -409q4 -111 33.5 -221t84 -208t127.5 -173.5t169.5 -119.5t203.5 -44q206 0 328 125q138 141 129 393zM1413 672q0 -137 -39.5 -252t-105.5 -193.5t-154.5 -134t-185 -81t-197.5 -25.5t-198 26
t-185.5 81.5t-155 135.5t-106 196.5t-39.5 254.5q0 200 87 356.5t243 243t354 86.5q130 0 250.5 -45t217.5 -129.5t155.5 -219.5t58.5 -300z" />
    <glyph glyph-name="uni1ECF" unicode="&#x1ecf;" horiz-adv-x="1060" 
d="M555 1419q70 0 116 -39t46 -98q0 -33 -17 -60.5t-42 -46.5t-50 -36.5t-44 -40t-21 -47.5h-25q0 31 11.5 57t28 45t33.5 37.5t28.5 42t11.5 49.5q0 115 -80 115q-96 0 -96 -146l-74 13q-1 3 1.5 18.5t13 39t28 45t52 37t79.5 15.5zM586 20q77 0 135.5 30.5t91 81.5
t48.5 109t16 121q0 85 -29 180t-79 178t-127.5 137t-164.5 54h-16q-128 -5 -202.5 -99.5t-74.5 -252.5q0 -67 16.5 -140.5t51 -144.5t81 -127.5t113 -91.5t140.5 -35zM530 938q93 0 177 -28t152.5 -83t109.5 -147t41 -209q0 -107 -42.5 -200t-111 -153.5t-154 -95
t-172.5 -34.5q-71 0 -139 17.5t-130 55t-109 91.5t-75 131.5t-28 169.5q0 110 42 203.5t110.5 154t154 94t174.5 33.5z" />
    <glyph glyph-name="uni1ED0" unicode="&#x1ed0;" horiz-adv-x="1460" 
d="M1051 1880h137l-223 -254h-25zM920 1462l-191 183l-188 -183h-27l156 254h121l155 -254h-26zM1270 545q-4 114 -33.5 227t-84 213.5t-127.5 178t-169.5 122.5t-202.5 45q-202 0 -325 -129q-142 -148 -133 -409q4 -111 33.5 -221t84 -208t127.5 -173.5t169.5 -119.5
t203.5 -44q206 0 328 125q138 141 129 393zM1413 672q0 -137 -39.5 -252t-105.5 -193.5t-154.5 -134t-185 -81t-197.5 -25.5t-198 26t-185.5 81.5t-155 135.5t-106 196.5t-39.5 254.5q0 200 87 356.5t243 243t354 86.5q130 0 250.5 -45t217.5 -129.5t155.5 -219.5t58.5 -300
z" />
    <glyph glyph-name="uni1ED1" unicode="&#x1ed1;" horiz-adv-x="1060" 
d="M850 1448h137l-223 -254h-25zM719 1030l-191 182l-188 -182h-27l156 254h121l155 -254h-26zM586 20q77 0 135.5 30.5t91 81.5t48.5 109t16 121q0 85 -29 180t-79 178t-127.5 137t-164.5 54h-16q-128 -5 -202.5 -99.5t-74.5 -252.5q0 -67 16.5 -140.5t51 -144.5t81 -127.5
t113 -91.5t140.5 -35zM530 938q93 0 177 -28t152.5 -83t109.5 -147t41 -209q0 -107 -42.5 -200t-111 -153.5t-154 -95t-172.5 -34.5q-71 0 -139 17.5t-130 55t-109 91.5t-75 131.5t-28 169.5q0 110 42 203.5t110.5 154t154 94t174.5 33.5z" />
    <glyph glyph-name="uni1ED2" unicode="&#x1ed2;" horiz-adv-x="1460" 
d="M805 1880h137l111 -254h-25zM920 1462l-191 183l-188 -183h-27l156 254h121l155 -254h-26zM1270 545q-4 114 -33.5 227t-84 213.5t-127.5 178t-169.5 122.5t-202.5 45q-202 0 -325 -129q-142 -148 -133 -409q4 -111 33.5 -221t84 -208t127.5 -173.5t169.5 -119.5
t203.5 -44q206 0 328 125q138 141 129 393zM1413 672q0 -137 -39.5 -252t-105.5 -193.5t-154.5 -134t-185 -81t-197.5 -25.5t-198 26t-185.5 81.5t-155 135.5t-106 196.5t-39.5 254.5q0 200 87 356.5t243 243t354 86.5q130 0 250.5 -45t217.5 -129.5t155.5 -219.5t58.5 -300
z" />
    <glyph glyph-name="uni1ED3" unicode="&#x1ed3;" horiz-adv-x="1060" 
d="M604 1448h137l111 -254h-25zM719 1030l-191 182l-188 -182h-27l156 254h121l155 -254h-26zM586 20q77 0 135.5 30.5t91 81.5t48.5 109t16 121q0 85 -29 180t-79 178t-127.5 137t-164.5 54h-16q-128 -5 -202.5 -99.5t-74.5 -252.5q0 -67 16.5 -140.5t51 -144.5t81 -127.5
t113 -91.5t140.5 -35zM530 938q93 0 177 -28t152.5 -83t109.5 -147t41 -209q0 -107 -42.5 -200t-111 -153.5t-154 -95t-172.5 -34.5q-71 0 -139 17.5t-130 55t-109 91.5t-75 131.5t-28 169.5q0 110 42 203.5t110.5 154t154 94t174.5 33.5z" />
    <glyph glyph-name="uni1ED4" unicode="&#x1ed4;" horiz-adv-x="1460" 
d="M1008 1995q70 0 115.5 -39t45.5 -98q0 -33 -17 -60.5t-42 -46.5t-50 -37t-44 -40.5t-21 -47.5h-24q0 37 17.5 69.5t38.5 52t38.5 49t17.5 61.5q0 52 -16.5 83t-62.5 31q-97 0 -97 -145l-73 12q-1 3 1.5 18.5t13 39t28 45.5t52 37.5t79.5 15.5zM920 1462l-191 183
l-188 -183h-27l156 254h121l155 -254h-26zM1270 545q-4 114 -33.5 227t-84 213.5t-127.5 178t-169.5 122.5t-202.5 45q-202 0 -325 -129q-142 -148 -133 -409q4 -111 33.5 -221t84 -208t127.5 -173.5t169.5 -119.5t203.5 -44q206 0 328 125q138 141 129 393zM1413 672
q0 -137 -39.5 -252t-105.5 -193.5t-154.5 -134t-185 -81t-197.5 -25.5t-198 26t-185.5 81.5t-155 135.5t-106 196.5t-39.5 254.5q0 200 87 356.5t243 243t354 86.5q130 0 250.5 -45t217.5 -129.5t155.5 -219.5t58.5 -300z" />
    <glyph glyph-name="uni1ED5" unicode="&#x1ed5;" horiz-adv-x="1060" 
d="M807 1563q70 0 116 -39.5t46 -98.5q0 -33 -17 -60.5t-42 -46.5t-50 -36.5t-44 -40t-21 -47.5h-25q0 31 11.5 57t28 45t33.5 37.5t28.5 42t11.5 49.5q0 115 -80 115q-96 0 -96 -145l-74 12q-1 3 1.5 18.5t13 39t28 45.5t52 37.5t79.5 15.5zM719 1030l-191 182l-188 -182
h-27l156 254h121l155 -254h-26zM586 20q77 0 135.5 30.5t91 81.5t48.5 109t16 121q0 85 -29 180t-79 178t-127.5 137t-164.5 54h-16q-128 -5 -202.5 -99.5t-74.5 -252.5q0 -67 16.5 -140.5t51 -144.5t81 -127.5t113 -91.5t140.5 -35zM530 938q93 0 177 -28t152.5 -83
t109.5 -147t41 -209q0 -107 -42.5 -200t-111 -153.5t-154 -95t-172.5 -34.5q-71 0 -139 17.5t-130 55t-109 91.5t-75 131.5t-28 169.5q0 110 42 203.5t110.5 154t154 94t174.5 33.5z" />
    <glyph glyph-name="uni1ED6" unicode="&#x1ed6;" horiz-adv-x="1460" 
d="M616 1890q-20 0 -40 -7.5t-35 -18t-27 -21.5t-18 -19l-7 -7v36q3 5 7.5 13t19.5 28t30.5 35.5t39 28t45.5 12.5q43 0 114 -38t111 -38q29 0 60 16.5t47 33.5l16 16v-33q-66 -110 -154 -110q-39 0 -107.5 36.5t-101.5 36.5zM920 1462l-191 183l-188 -183h-27l156 254h121
l155 -254h-26zM1270 545q-4 114 -33.5 227t-84 213.5t-127.5 178t-169.5 122.5t-202.5 45q-202 0 -325 -129q-142 -148 -133 -409q4 -111 33.5 -221t84 -208t127.5 -173.5t169.5 -119.5t203.5 -44q206 0 328 125q138 141 129 393zM1413 672q0 -137 -39.5 -252t-105.5 -193.5
t-154.5 -134t-185 -81t-197.5 -25.5t-198 26t-185.5 81.5t-155 135.5t-106 196.5t-39.5 254.5q0 200 87 356.5t243 243t354 86.5q130 0 250.5 -45t217.5 -129.5t155.5 -219.5t58.5 -300z" />
    <glyph glyph-name="uni1ED7" unicode="&#x1ed7;" horiz-adv-x="1060" 
d="M416 1458q-31 0 -63 -18.5t-48 -37.5l-16 -18v37q2 5 7 13t19.5 28t30 35.5t39 28t45.5 12.5q43 0 113.5 -38t111.5 -38q29 0 60 16.5t47 33.5l16 16v-33q-67 -111 -153 -111q-39 0 -107.5 37t-101.5 37zM719 1030l-191 182l-188 -182h-27l156 254h121l155 -254h-26z
M586 20q77 0 135.5 30.5t91 81.5t48.5 109t16 121q0 85 -29 180t-79 178t-127.5 137t-164.5 54h-16q-128 -5 -202.5 -99.5t-74.5 -252.5q0 -67 16.5 -140.5t51 -144.5t81 -127.5t113 -91.5t140.5 -35zM530 938q93 0 177 -28t152.5 -83t109.5 -147t41 -209q0 -107 -42.5 -200
t-111 -153.5t-154 -95t-172.5 -34.5q-71 0 -139 17.5t-130 55t-109 91.5t-75 131.5t-28 169.5q0 110 42 203.5t110.5 154t154 94t174.5 33.5z" />
    <glyph glyph-name="uni1ED8" unicode="&#x1ed8;" horiz-adv-x="1460" 
d="M729 -188q37 0 63.5 -27t26.5 -64t-26.5 -63.5t-63.5 -26.5t-63.5 26.5t-26.5 63.5t26.5 64t63.5 27zM920 1462l-191 183l-188 -183h-27l156 254h121l155 -254h-26zM1270 545q-4 114 -33.5 227t-84 213.5t-127.5 178t-169.5 122.5t-202.5 45q-202 0 -325 -129
q-142 -148 -133 -409q4 -111 33.5 -221t84 -208t127.5 -173.5t169.5 -119.5t203.5 -44q206 0 328 125q138 141 129 393zM1413 672q0 -137 -39.5 -252t-105.5 -193.5t-154.5 -134t-185 -81t-197.5 -25.5t-198 26t-185.5 81.5t-155 135.5t-106 196.5t-39.5 254.5
q0 200 87 356.5t243 243t354 86.5q130 0 250.5 -45t217.5 -129.5t155.5 -219.5t58.5 -300z" />
    <glyph glyph-name="uni1ED9" unicode="&#x1ed9;" horiz-adv-x="1060" 
d="M528 -188q37 0 63.5 -27t26.5 -64t-26.5 -63.5t-63.5 -26.5t-63.5 26.5t-26.5 63.5t26.5 64t63.5 27zM719 1030l-191 182l-188 -182h-27l156 254h121l155 -254h-26zM586 20q77 0 135.5 30.5t91 81.5t48.5 109t16 121q0 85 -29 180t-79 178t-127.5 137t-164.5 54h-16
q-128 -5 -202.5 -99.5t-74.5 -252.5q0 -67 16.5 -140.5t51 -144.5t81 -127.5t113 -91.5t140.5 -35zM530 938q93 0 177 -28t152.5 -83t109.5 -147t41 -209q0 -107 -42.5 -200t-111 -153.5t-154 -95t-172.5 -34.5q-71 0 -139 17.5t-130 55t-109 91.5t-75 131.5t-28 169.5
q0 110 42 203.5t110.5 154t154 94t174.5 33.5z" />
    <glyph glyph-name="uni1EDA" unicode="&#x1eda;" horiz-adv-x="1460" 
d="M793 1737h137l-223 -254h-25zM1413 672q0 -137 -39.5 -252t-105.5 -193.5t-154.5 -134t-185 -81t-197.5 -25.5t-198 26t-185.5 81.5t-155 135.5t-106 196.5t-39.5 254.5q0 200 87 356.5t243 243t354 86.5q235 0 418 -133q68 47 68 106q0 36 -17 74t-34 58l-17 20l92 29
q5 -4 11.5 -13t18 -39t11.5 -65q0 -103 -117 -184q115 -91 181.5 -230t66.5 -317zM1270 545q-4 114 -33.5 227t-84 213.5t-127.5 178t-169.5 122.5t-202.5 45q-202 0 -325 -129q-142 -148 -133 -409q4 -111 33.5 -221t84 -208t127.5 -173.5t169.5 -119.5t203.5 -44
q206 0 328 125q138 141 129 393z" />
    <glyph glyph-name="uni1EDB" unicode="&#x1edb;" horiz-adv-x="1060" 
d="M569 1305h138l-224 -254h-24zM530 938q190 0 324 -107q55 44 55 99q0 36 -16.5 74t-33.5 58l-17 19l92 29q5 -4 11.5 -13t18 -39t11.5 -65q0 -94 -107 -176q142 -128 142 -346q0 -107 -42.5 -200t-111 -153.5t-154 -95t-172.5 -34.5q-71 0 -139 17.5t-130 55t-109 91.5
t-75 131.5t-28 169.5q0 110 42 203.5t110.5 154t154 94t174.5 33.5zM586 20q77 0 135.5 30.5t91 81.5t48.5 109t16 121q0 85 -29 180t-79 178t-127.5 137t-164.5 54h-16q-128 -5 -202.5 -99.5t-74.5 -252.5q0 -67 16.5 -140.5t51 -144.5t81 -127.5t113 -91.5t140.5 -35z" />
    <glyph glyph-name="uni1EDC" unicode="&#x1edc;" horiz-adv-x="1460" 
d="M549 1737h137l111 -254h-25zM1413 672q0 -137 -39.5 -252t-105.5 -193.5t-154.5 -134t-185 -81t-197.5 -25.5t-198 26t-185.5 81.5t-155 135.5t-106 196.5t-39.5 254.5q0 200 87 356.5t243 243t354 86.5q235 0 418 -133q68 47 68 106q0 36 -17 74t-34 58l-17 20l92 29
q5 -4 11.5 -13t18 -39t11.5 -65q0 -103 -117 -184q115 -91 181.5 -230t66.5 -317zM1270 545q-4 114 -33.5 227t-84 213.5t-127.5 178t-169.5 122.5t-202.5 45q-202 0 -325 -129q-142 -148 -133 -409q4 -111 33.5 -221t84 -208t127.5 -173.5t169.5 -119.5t203.5 -44
q206 0 328 125q138 141 129 393z" />
    <glyph glyph-name="uni1EDD" unicode="&#x1edd;" horiz-adv-x="1060" 
d="M338 1305h137l111 -254h-25zM530 938q190 0 324 -107q55 44 55 99q0 36 -16.5 74t-33.5 58l-17 19l92 29q5 -4 11.5 -13t18 -39t11.5 -65q0 -94 -107 -176q142 -128 142 -346q0 -107 -42.5 -200t-111 -153.5t-154 -95t-172.5 -34.5q-71 0 -139 17.5t-130 55t-109 91.5
t-75 131.5t-28 169.5q0 110 42 203.5t110.5 154t154 94t174.5 33.5zM586 20q77 0 135.5 30.5t91 81.5t48.5 109t16 121q0 85 -29 180t-79 178t-127.5 137t-164.5 54h-16q-128 -5 -202.5 -99.5t-74.5 -252.5q0 -67 16.5 -140.5t51 -144.5t81 -127.5t113 -91.5t140.5 -35z" />
    <glyph glyph-name="uni1EDE" unicode="&#x1ede;" horiz-adv-x="1460" 
d="M754 1851q70 0 115.5 -39t45.5 -98q0 -33 -17 -60.5t-42 -46.5t-50 -36.5t-44 -40t-21 -47.5h-24q0 37 17.5 69.5t38.5 52t38.5 48.5t17.5 61q0 115 -79 115q-97 0 -97 -146l-73 13q-1 3 1.5 18.5t13 39t28 45t52 37t79.5 15.5zM1413 672q0 -137 -39.5 -252
t-105.5 -193.5t-154.5 -134t-185 -81t-197.5 -25.5t-198 26t-185.5 81.5t-155 135.5t-106 196.5t-39.5 254.5q0 200 87 356.5t243 243t354 86.5q235 0 418 -133q68 47 68 106q0 36 -17 74t-34 58l-17 20l92 29q5 -4 11.5 -13t18 -39t11.5 -65q0 -103 -117 -184
q115 -91 181.5 -230t66.5 -317zM1270 545q-4 114 -33.5 227t-84 213.5t-127.5 178t-169.5 122.5t-202.5 45q-202 0 -325 -129q-142 -148 -133 -409q4 -111 33.5 -221t84 -208t127.5 -173.5t169.5 -119.5t203.5 -44q206 0 328 125q138 141 129 393z" />
    <glyph glyph-name="uni1EDF" unicode="&#x1edf;" horiz-adv-x="1060" 
d="M555 1419q70 0 116 -39t46 -98q0 -33 -17 -60.5t-42 -46.5t-50 -36.5t-44 -40t-21 -47.5h-25q0 31 11.5 57t28 45t33.5 37.5t28.5 42t11.5 49.5q0 115 -80 115q-96 0 -96 -146l-74 13q-1 3 1.5 18.5t13 39t28 45t52 37t79.5 15.5zM530 938q190 0 324 -107q55 44 55 99
q0 36 -16.5 74t-33.5 58l-17 19l92 29q5 -4 11.5 -13t18 -39t11.5 -65q0 -94 -107 -176q142 -128 142 -346q0 -107 -42.5 -200t-111 -153.5t-154 -95t-172.5 -34.5q-71 0 -139 17.5t-130 55t-109 91.5t-75 131.5t-28 169.5q0 110 42 203.5t110.5 154t154 94t174.5 33.5z
M586 20q77 0 135.5 30.5t91 81.5t48.5 109t16 121q0 85 -29 180t-79 178t-127.5 137t-164.5 54h-16q-128 -5 -202.5 -99.5t-74.5 -252.5q0 -67 16.5 -140.5t51 -144.5t81 -127.5t113 -91.5t140.5 -35z" />
    <glyph glyph-name="uni1EE0" unicode="&#x1ee0;" horiz-adv-x="1460" 
d="M614 1577q-31 0 -63 -18.5t-48 -36.5l-16 -19v37q3 5 7.5 13t19.5 28t30.5 35.5t39 28t45.5 12.5q43 0 114 -38t111 -38q29 0 60 16.5t47 32.5l16 17v-33q-67 -111 -154 -111q-39 0 -107.5 37t-101.5 37zM1413 672q0 -137 -39.5 -252t-105.5 -193.5t-154.5 -134t-185 -81
t-197.5 -25.5t-198 26t-185.5 81.5t-155 135.5t-106 196.5t-39.5 254.5q0 200 87 356.5t243 243t354 86.5q235 0 418 -133q68 47 68 106q0 36 -17 74t-34 58l-17 20l92 29q5 -4 11.5 -13t18 -39t11.5 -65q0 -103 -117 -184q115 -91 181.5 -230t66.5 -317zM1270 545
q-4 114 -33.5 227t-84 213.5t-127.5 178t-169.5 122.5t-202.5 45q-202 0 -325 -129q-142 -148 -133 -409q4 -111 33.5 -221t84 -208t127.5 -173.5t169.5 -119.5t203.5 -44q206 0 328 125q138 141 129 393z" />
    <glyph glyph-name="uni1EE1" unicode="&#x1ee1;" horiz-adv-x="1060" 
d="M414 1145q-31 0 -63 -18.5t-48 -36.5l-16 -19v37q2 5 7 13t19.5 28t30 35.5t39 28t45.5 12.5q44 0 114 -38t111 -38q29 0 60 16.5t47 32.5l16 16v-32q-67 -111 -153 -111q-39 0 -107.5 37t-101.5 37zM530 938q190 0 324 -107q55 44 55 99q0 36 -16.5 74t-33.5 58l-17 19
l92 29q5 -4 11.5 -13t18 -39t11.5 -65q0 -94 -107 -176q142 -128 142 -346q0 -107 -42.5 -200t-111 -153.5t-154 -95t-172.5 -34.5q-71 0 -139 17.5t-130 55t-109 91.5t-75 131.5t-28 169.5q0 110 42 203.5t110.5 154t154 94t174.5 33.5zM586 20q77 0 135.5 30.5t91 81.5
t48.5 109t16 121q0 85 -29 180t-79 178t-127.5 137t-164.5 54h-16q-128 -5 -202.5 -99.5t-74.5 -252.5q0 -67 16.5 -140.5t51 -144.5t81 -127.5t113 -91.5t140.5 -35z" />
    <glyph glyph-name="uni1EE2" unicode="&#x1ee2;" horiz-adv-x="1460" 
d="M729 -188q37 0 63.5 -27t26.5 -64t-26.5 -63.5t-63.5 -26.5t-63.5 26.5t-26.5 63.5t26.5 64t63.5 27zM1413 672q0 -137 -39.5 -252t-105.5 -193.5t-154.5 -134t-185 -81t-197.5 -25.5t-198 26t-185.5 81.5t-155 135.5t-106 196.5t-39.5 254.5q0 200 87 356.5t243 243
t354 86.5q235 0 418 -133q68 47 68 106q0 36 -17 74t-34 58l-17 20l92 29q5 -4 11.5 -13t18 -39t11.5 -65q0 -103 -117 -184q115 -91 181.5 -230t66.5 -317zM1270 545q-4 114 -33.5 227t-84 213.5t-127.5 178t-169.5 122.5t-202.5 45q-202 0 -325 -129q-142 -148 -133 -409
q4 -111 33.5 -221t84 -208t127.5 -173.5t169.5 -119.5t203.5 -44q206 0 328 125q138 141 129 393z" />
    <glyph glyph-name="uni1EE3" unicode="&#x1ee3;" horiz-adv-x="1060" 
d="M528 -188q37 0 63.5 -27t26.5 -64t-26.5 -63.5t-63.5 -26.5t-63.5 26.5t-26.5 63.5t26.5 64t63.5 27zM530 938q190 0 324 -107q55 44 55 99q0 36 -16.5 74t-33.5 58l-17 19l92 29q5 -4 11.5 -13t18 -39t11.5 -65q0 -94 -107 -176q142 -128 142 -346q0 -107 -42.5 -200
t-111 -153.5t-154 -95t-172.5 -34.5q-71 0 -139 17.5t-130 55t-109 91.5t-75 131.5t-28 169.5q0 110 42 203.5t110.5 154t154 94t174.5 33.5zM586 20q77 0 135.5 30.5t91 81.5t48.5 109t16 121q0 85 -29 180t-79 178t-127.5 137t-164.5 54h-16q-128 -5 -202.5 -99.5
t-74.5 -252.5q0 -67 16.5 -140.5t51 -144.5t81 -127.5t113 -91.5t140.5 -35z" />
    <glyph glyph-name="uni1EE4" unicode="&#x1ee4;" horiz-adv-x="1196" 
d="M627 -188q37 0 63.5 -27t26.5 -64t-26.5 -63.5t-63.5 -26.5t-63.5 26.5t-26.5 63.5t26.5 64t63.5 27zM1108 518q0 -258 -123.5 -395t-355.5 -137q-41 0 -81.5 4t-96.5 17t-104 34.5t-97.5 61t-84.5 92t-57 131t-22 174.5v858h152v-846q0 -240 116.5 -367t337.5 -127
q59 0 113.5 16t106 53.5t89.5 92.5t61 140.5t23 191.5l-2 846h25v-840z" />
    <glyph glyph-name="uni1EE5" unicode="&#x1ee5;" horiz-adv-x="937" 
d="M467 -188q37 0 63.5 -27t26.5 -64t-26.5 -63.5t-63.5 -26.5t-63.5 26.5t-26.5 63.5t26.5 64t63.5 27zM707 938h139v-934h-137v125q-189 -125 -336 -125q-140 0 -215.5 83t-75.5 237v614h139v-578q0 -150 62.5 -226.5t185.5 -76.5q101 0 238 95v786z" />
    <glyph glyph-name="uni1EE6" unicode="&#x1ee6;" horiz-adv-x="1196" 
d="M692 1851q70 0 116 -39t46 -98q0 -33 -17 -60.5t-42 -46.5t-50 -36.5t-44 -40t-21 -47.5h-25q0 31 11.5 57t28 45t33.5 37.5t28.5 42t11.5 49.5q0 115 -80 115q-96 0 -96 -146l-74 13q-1 3 1.5 18.5t13 39t28 45t52 37t79.5 15.5zM1108 518q0 -258 -123.5 -395
t-355.5 -137q-41 0 -81.5 4t-96.5 17t-104 34.5t-97.5 61t-84.5 92t-57 131t-22 174.5v858h152v-846q0 -240 116.5 -367t337.5 -127q59 0 113.5 16t106 53.5t89.5 92.5t61 140.5t23 191.5l-2 846h25v-840z" />
    <glyph glyph-name="uni1EE7" unicode="&#x1ee7;" horiz-adv-x="937" 
d="M489 1419q70 0 116 -39t46 -98q0 -33 -17 -60.5t-42 -46.5t-50 -36.5t-44 -40t-21 -47.5h-24q0 37 17.5 69.5t38.5 52t38.5 48.5t17.5 61q0 115 -80 115q-96 0 -96 -146l-74 13q-1 3 1.5 18.5t13 39t28 45t52 37t79.5 15.5zM707 938h139v-934h-137v125
q-189 -125 -336 -125q-140 0 -215.5 83t-75.5 237v614h139v-578q0 -150 62.5 -226.5t185.5 -76.5q101 0 238 95v786z" />
    <glyph glyph-name="uni1EE8" unicode="&#x1ee8;" horiz-adv-x="1196" 
d="M690 1737h137l-223 -254h-24zM1108 518q0 -258 -123.5 -395t-355.5 -137q-41 0 -81.5 4t-96.5 17t-104 34.5t-97.5 61t-84.5 92t-57 131t-22 174.5v858h152v-846q0 -240 116.5 -367t337.5 -127q59 0 113.5 16t106 53.5t89.5 92.5t61 140.5t23 191.5l-2 846h25v-148
q39 16 74 48t35 81q0 36 -17 74t-34 58l-17 20l92 29q5 -4 11.5 -13t18 -39t11.5 -65q0 -125 -174 -217v-668z" />
    <glyph glyph-name="uni1EE9" unicode="&#x1ee9;" horiz-adv-x="937" 
d="M530 1305h138l-224 -254h-24zM707 938h139v-137q39 17 71.5 49t32.5 80q0 36 -17 74t-33 58l-17 19l92 29q5 -4 11.5 -13t18 -39t11.5 -65q0 -123 -170 -215v-774h-137v125q-189 -125 -336 -125q-140 0 -215.5 83t-75.5 237v614h139v-578q0 -150 62.5 -226.5t185.5 -76.5
q101 0 238 95v786z" />
    <glyph glyph-name="uni1EEA" unicode="&#x1eea;" horiz-adv-x="1196" 
d="M467 1737h137l111 -254h-25zM1108 518q0 -258 -123.5 -395t-355.5 -137q-41 0 -81.5 4t-96.5 17t-104 34.5t-97.5 61t-84.5 92t-57 131t-22 174.5v858h152v-846q0 -240 116.5 -367t337.5 -127q59 0 113.5 16t106 53.5t89.5 92.5t61 140.5t23 191.5l-2 846h25v-148
q39 16 74 48t35 81q0 36 -17 74t-34 58l-17 20l92 29q5 -4 11.5 -13t18 -39t11.5 -65q0 -125 -174 -217v-668z" />
    <glyph glyph-name="uni1EEB" unicode="&#x1eeb;" horiz-adv-x="937" 
d="M297 1305h137l111 -254h-25zM707 938h139v-137q39 17 71.5 49t32.5 80q0 36 -17 74t-33 58l-17 19l92 29q5 -4 11.5 -13t18 -39t11.5 -65q0 -123 -170 -215v-774h-137v125q-189 -125 -336 -125q-140 0 -215.5 83t-75.5 237v614h139v-578q0 -150 62.5 -226.5t185.5 -76.5
q101 0 238 95v786z" />
    <glyph glyph-name="uni1EEC" unicode="&#x1eec;" horiz-adv-x="1196" 
d="M692 1851q70 0 116 -39t46 -98q0 -33 -17 -60.5t-42 -46.5t-50 -36.5t-44 -40t-21 -47.5h-25q0 31 11.5 57t28 45t33.5 37.5t28.5 42t11.5 49.5q0 115 -80 115q-96 0 -96 -146l-74 13q-1 3 1.5 18.5t13 39t28 45t52 37t79.5 15.5zM1108 518q0 -258 -123.5 -395
t-355.5 -137q-41 0 -81.5 4t-96.5 17t-104 34.5t-97.5 61t-84.5 92t-57 131t-22 174.5v858h152v-846q0 -240 116.5 -367t337.5 -127q59 0 113.5 16t106 53.5t89.5 92.5t61 140.5t23 191.5l-2 846h25v-148q39 16 74 48t35 81q0 36 -17 74t-34 58l-17 20l92 29q5 -4 11.5 -13
t18 -39t11.5 -65q0 -125 -174 -217v-668z" />
    <glyph glyph-name="uni1EED" unicode="&#x1eed;" horiz-adv-x="937" 
d="M489 1419q70 0 116 -39t46 -98q0 -33 -17 -60.5t-42 -46.5t-50 -36.5t-44 -40t-21 -47.5h-24q0 37 17.5 69.5t38.5 52t38.5 48.5t17.5 61q0 115 -80 115q-96 0 -96 -146l-74 13q-1 3 1.5 18.5t13 39t28 45t52 37t79.5 15.5zM707 938h139v-137q39 17 71.5 49t32.5 80
q0 36 -17 74t-33 58l-17 19l92 29q5 -4 11.5 -13t18 -39t11.5 -65q0 -123 -170 -215v-774h-137v125q-189 -125 -336 -125q-140 0 -215.5 83t-75.5 237v614h139v-578q0 -150 62.5 -226.5t185.5 -76.5q101 0 238 95v786z" />
    <glyph glyph-name="uni1EEE" unicode="&#x1eee;" horiz-adv-x="1196" 
d="M520 1577q-31 0 -63 -18.5t-48 -36.5l-16 -19v37q3 5 7.5 13t19.5 28t30.5 35.5t39 28t45.5 12.5q43 0 114 -38t111 -38q29 0 60 16.5t47 32.5l16 17v-33q-67 -111 -154 -111q-39 0 -107.5 37t-101.5 37zM1108 518q0 -258 -123.5 -395t-355.5 -137q-41 0 -81.5 4
t-96.5 17t-104 34.5t-97.5 61t-84.5 92t-57 131t-22 174.5v858h152v-846q0 -240 116.5 -367t337.5 -127q59 0 113.5 16t106 53.5t89.5 92.5t61 140.5t23 191.5l-2 846h25v-148q39 16 74 48t35 81q0 36 -17 74t-34 58l-17 20l92 29q5 -4 11.5 -13t18 -39t11.5 -65
q0 -125 -174 -217v-668z" />
    <glyph glyph-name="uni1EEF" unicode="&#x1eef;" horiz-adv-x="937" 
d="M340 1145q-31 0 -63 -18.5t-48 -36.5l-16 -19v37q2 5 7 13t19.5 28t30 35.5t39 28t45.5 12.5q44 0 115 -38t111 -38q29 0 59.5 16.5t46.5 32.5l16 16v-32q-67 -111 -153 -111q-39 0 -107.5 37t-101.5 37zM707 938h139v-137q39 17 71.5 49t32.5 80q0 36 -17 74t-33 58
l-17 19l92 29q5 -4 11.5 -13t18 -39t11.5 -65q0 -123 -170 -215v-774h-137v125q-189 -125 -336 -125q-140 0 -215.5 83t-75.5 237v614h139v-578q0 -150 62.5 -226.5t185.5 -76.5q101 0 238 95v786z" />
    <glyph glyph-name="uni1EF0" unicode="&#x1ef0;" horiz-adv-x="1196" 
d="M627 -188q37 0 63.5 -27t26.5 -64t-26.5 -63.5t-63.5 -26.5t-63.5 26.5t-26.5 63.5t26.5 64t63.5 27zM1108 518q0 -258 -123.5 -395t-355.5 -137q-41 0 -81.5 4t-96.5 17t-104 34.5t-97.5 61t-84.5 92t-57 131t-22 174.5v858h152v-846q0 -240 116.5 -367t337.5 -127
q59 0 113.5 16t106 53.5t89.5 92.5t61 140.5t23 191.5l-2 846h25v-148q39 16 74 48t35 81q0 36 -17 74t-34 58l-17 20l92 29q5 -4 11.5 -13t18 -39t11.5 -65q0 -125 -174 -217v-668z" />
    <glyph glyph-name="uni1EF1" unicode="&#x1ef1;" horiz-adv-x="937" 
d="M467 -188q37 0 63.5 -27t26.5 -64t-26.5 -63.5t-63.5 -26.5t-63.5 26.5t-26.5 63.5t26.5 64t63.5 27zM707 938h139v-137q39 17 71.5 49t32.5 80q0 36 -17 74t-33 58l-17 19l92 29q5 -4 11.5 -13t18 -39t11.5 -65q0 -123 -170 -215v-774h-137v125q-189 -125 -336 -125
q-140 0 -215.5 83t-75.5 237v614h139v-578q0 -150 62.5 -226.5t185.5 -76.5q101 0 238 95v786z" />
    <glyph glyph-name="Ygrave" unicode="&#x1ef2;" horiz-adv-x="956" 
d="M322 1737h137l110 -254h-24zM557 0h-154v610l-415 748h178l379 -711l395 711h29l-412 -742v-616z" />
    <glyph glyph-name="ygrave" unicode="&#x1ef3;" horiz-adv-x="841" 
d="M258 1305h137l111 -254h-25zM322 -211q3 7 10 22.5t16.5 38.5t16.5 39q-104 -6 -170 -79q-48 -55 -38 -102q5 -25 29 -36q15 -6 31 -6q33 0 56 31.5t49 91.5zM469 137l330 801h32q-389 -934 -487 -1167q-38 -91 -78.5 -142t-95.5 -51q-24 0 -51 12q-40 18 -38 82
q4 81 69 149q83 87 225 93l28 72l-393 952h135z" />
    <glyph glyph-name="uni1EF4" unicode="&#x1ef4;" horiz-adv-x="956" 
d="M481 -168q37 0 63.5 -26.5t26.5 -63.5t-26.5 -63.5t-63.5 -26.5t-63.5 26.5t-26.5 63.5t26.5 63.5t63.5 26.5zM557 0h-154v610l-415 748h178l379 -711l395 711h29l-412 -742v-616z" />
    <glyph glyph-name="uni1EF5" unicode="&#x1ef5;" horiz-adv-x="841" 
d="M610 -188q37 0 63.5 -27t26.5 -64t-26.5 -63.5t-63.5 -26.5t-63.5 26.5t-26.5 63.5t26.5 64t63.5 27zM322 -211q3 7 10 22.5t16.5 38.5t16.5 39q-104 -6 -170 -79q-48 -55 -38 -102q5 -25 29 -36q15 -6 31 -6q33 0 56 31.5t49 91.5zM469 137l330 801h32
q-389 -934 -487 -1167q-38 -91 -78.5 -142t-95.5 -51q-24 0 -51 12q-40 18 -38 82q4 81 69 149q83 87 225 93l28 72l-393 952h135z" />
    <glyph glyph-name="uni1EF6" unicode="&#x1ef6;" horiz-adv-x="956" 
d="M530 1851q70 0 116 -39t46 -98q0 -33 -17 -60.5t-42 -46.5t-50 -36.5t-44 -40t-21 -47.5h-24q0 37 17.5 69.5t38.5 52t38.5 48.5t17.5 61q0 115 -80 115q-96 0 -96 -146l-74 13q-1 3 1.5 18.5t13 39t28 45t52 37t79.5 15.5zM557 0h-154v610l-415 748h178l379 -711
l395 711h29l-412 -742v-616z" />
    <glyph glyph-name="uni1EF7" unicode="&#x1ef7;" horiz-adv-x="841" 
d="M475 1419q70 0 116 -39t46 -98q0 -33 -17 -60.5t-42 -46.5t-50 -36.5t-44 -40t-21 -47.5h-25q0 31 11.5 57t28 45t33.5 37.5t28.5 42t11.5 49.5q0 115 -80 115q-96 0 -96 -146l-74 13q-1 3 1.5 18.5t13 39t28 45t52 37t79.5 15.5zM322 -211q3 7 10 22.5t16.5 38.5
t16.5 39q-104 -6 -170 -79q-48 -55 -38 -102q5 -25 29 -36q15 -6 31 -6q33 0 56 31.5t49 91.5zM469 137l330 801h32q-389 -934 -487 -1167q-38 -91 -78.5 -142t-95.5 -51q-24 0 -51 12q-40 18 -38 82q4 81 69 149q83 87 225 93l28 72l-393 952h135z" />
    <glyph glyph-name="uni1EF8" unicode="&#x1ef8;" horiz-adv-x="956" 
d="M362 1577q-31 0 -62.5 -18.5t-47.5 -36.5l-16 -19v37q2 5 7 13t19.5 28t30 35.5t39 28t45.5 12.5q43 0 114 -38t111 -38q29 0 60 16.5t47 32.5l16 17v-33q-67 -111 -154 -111q-39 0 -107.5 37t-101.5 37zM557 0h-154v610l-415 748h178l379 -711l395 711h29l-412 -742
v-616z" />
    <glyph glyph-name="uni1EF9" unicode="&#x1ef9;" horiz-adv-x="841" 
d="M338 1145q-31 0 -63 -18.5t-48 -36.5l-16 -19v37q2 5 7 13t19.5 28t30 35.5t39 28t45.5 12.5q44 0 115 -38t111 -38q29 0 59.5 16.5t46.5 32.5l16 16v-32q-67 -111 -153 -111q-39 0 -107.5 37t-101.5 37zM322 -211q3 7 10 22.5t16.5 38.5t16.5 39q-104 -6 -170 -79
q-48 -55 -38 -102q5 -25 29 -36q15 -6 31 -6q33 0 56 31.5t49 91.5zM469 137l330 801h32q-389 -934 -487 -1167q-38 -91 -78.5 -142t-95.5 -51q-24 0 -51 12q-40 18 -38 82q4 81 69 149q83 87 225 93l28 72l-393 952h135z" />
    <glyph glyph-name="endash" unicode="&#x2013;" horiz-adv-x="919" 
d="M866 451h-813v116h813v-116z" />
    <glyph glyph-name="emdash" unicode="&#x2014;" horiz-adv-x="1161" 
d="M1108 451h-1055v116h1055v-116z" />
    <glyph glyph-name="quoteleft" unicode="&#x2018;" horiz-adv-x="360" 
d="M205 1120q32 0 52.5 -21t26 -39t5.5 -30q0 -31 -13.5 -54.5t-32.5 -34t-33 -15t-22 -4.5q-40 0 -67 17t-36.5 41t-14 50.5t1.5 44.5q9 46 34 88.5t54.5 69t52.5 42t35 19.5l18 -32q-32 -25 -75.5 -74t-49.5 -88l5 2q4 3 9 6t12.5 5.5t17.5 4.5t20 2z" />
    <glyph glyph-name="quoteright" unicode="&#x2019;" horiz-adv-x="360" 
d="M170 1294q40 0 67.5 -17t37 -41t14 -50.5t-1.5 -44.5q-8 -46 -33 -88.5t-54 -69t-52.5 -42t-36.5 -19.5l-19 32q32 25 75.5 74t49.5 88l-3 -2q-4 -2 -9.5 -4.5t-12.5 -5t-17.5 -4.5t-20.5 -2q-31 0 -52 20.5t-26.5 38.5t-5.5 29q0 26 9 46.5t22 31.5t28 18.5t25 9.5t16 2
z" />
    <glyph glyph-name="quotesinglbase" unicode="&#x201a;" horiz-adv-x="344" 
d="M162 199q40 0 67.5 -17t37 -41.5t14 -51t-1.5 -44.5q-8 -46 -33 -88.5t-54.5 -69t-53 -42t-36.5 -19.5l-18 33q17 13 40 35.5t51.5 60t33.5 65.5l-3 -2q-4 -2 -10 -4.5t-13 -5t-17.5 -4.5t-20.5 -2q-31 0 -52 20.5t-26.5 38.5t-5.5 29q0 32 13.5 55.5t32.5 34t33 15
t22 4.5z" />
    <glyph glyph-name="quotedblleft" unicode="&#x201c;" horiz-adv-x="600" 
d="M207 1120q31 0 51 -21t25.5 -39t5.5 -30q0 -31 -13.5 -54.5t-32.5 -34t-33 -15t-22 -4.5q-40 0 -67 17t-36.5 41t-14 50.5t1.5 44.5q9 46 34 88.5t54.5 69t52.5 42t35 19.5l18 -32q-17 -13 -40 -35.5t-51 -60.5t-32 -66q20 20 64 20zM446 1120q32 0 52.5 -21t26 -39
t5.5 -30q0 -25 -9.5 -45.5t-22.5 -31.5t-28.5 -18.5t-25.5 -10t-16 -2.5q-40 0 -67 17t-36.5 41t-14.5 50.5t1 44.5q9 46 34 88.5t54.5 69t52.5 42t35 19.5l19 -32q-17 -13 -40 -35.5t-51 -60.5t-32 -66q20 20 63 20z" />
    <glyph glyph-name="quotedblright" unicode="&#x201d;" horiz-adv-x="600" 
d="M170 1294q40 0 67.5 -17t37 -41t14 -50.5t-1.5 -44.5q-8 -46 -33 -88.5t-54 -69t-52.5 -42t-36.5 -19.5l-19 32q32 25 75.5 74t49.5 88l-3 -2q-4 -2 -9.5 -4.5t-12.5 -5t-17.5 -4.5t-20.5 -2q-31 0 -52 20.5t-26.5 38.5t-5.5 29q0 26 9 46.5t22 31.5t28 18.5t25 9.5t16 2
zM412 1294q40 0 67 -17t36.5 -41t14 -50.5t-1.5 -44.5q-9 -46 -34 -88.5t-54.5 -69t-52.5 -42t-35 -19.5l-18 32q17 13 40 35.5t51 60.5t32 66l-3 -2q-4 -2 -10 -4.5t-13 -5t-17.5 -4.5t-20.5 -2q-31 0 -52 20.5t-26.5 38.5t-5.5 29q0 26 9.5 46.5t22.5 31.5t28.5 18.5
t26 9.5t16.5 2z" />
    <glyph glyph-name="quotedblbase" unicode="&#x201e;" horiz-adv-x="583" 
d="M162 199q40 0 67.5 -17t37 -41.5t14 -51t-1.5 -44.5q-8 -46 -33 -88.5t-54.5 -69t-53 -42t-36.5 -19.5l-18 33q17 13 40 35.5t51.5 60t33.5 65.5l-3 -2q-4 -2 -10 -4.5t-13 -5t-17.5 -4.5t-20.5 -2q-31 0 -52 20.5t-26.5 38.5t-5.5 29q0 32 13.5 55.5t32.5 34t33 15
t22 4.5zM403 199q40 0 67 -17t36.5 -41.5t14.5 -51t-1 -44.5q-9 -46 -34 -88.5t-54.5 -69t-52.5 -42t-35 -19.5l-18 33q17 13 40 35.5t51 60t32 65.5l-3 -2q-4 -2 -10 -4.5t-13 -5t-17.5 -4.5t-20.5 -2q-31 0 -52 20.5t-26.5 38.5t-5.5 29q0 32 13.5 55.5t32.5 34t33.5 15
t22.5 4.5z" />
    <glyph glyph-name="dagger" unicode="&#x2020;" horiz-adv-x="880" 
d="M508 1145h330v-135h-330v-1235h-139v1235h-328v135h328v373h139v-373z" />
    <glyph glyph-name="bullet" unicode="&#x2022;" horiz-adv-x="493" 
d="M244 817q76 0 128 -52.5t52 -129.5q0 -81 -51 -131.5t-129 -50.5q-77 0 -125.5 50.5t-48.5 131.5q0 77 49 129.5t125 52.5z" />
    <glyph glyph-name="guilsinglleft" unicode="&#x2039;" horiz-adv-x="532" 
d="M217 618l246 -393h-150l-245 393l245 394h148z" />
    <glyph glyph-name="guilsinglright" unicode="&#x203a;" horiz-adv-x="530" 
d="M217 1012l244 -394l-246 -393h-147l243 393l-245 394h151z" />
    <glyph glyph-name="Euro" unicode="&#x20ac;" horiz-adv-x="1212" 
d="M801 1300q-67 0 -133.5 -26t-129 -79t-112.5 -145.5t-76 -213.5h617v-66h-627q-6 -44 -6 -92q0 -45 4 -72h629v-65h-621q2 -45 22 -106.5t60 -130t93 -126t129.5 -95.5t160.5 -38q50 0 101 20.5t88 50.5t66.5 59.5t44.5 50.5l15 20v-154q-145 -92 -323 -92
q-236 0 -408.5 153t-212.5 388h-114v65h106q-2 23 -2 72q0 30 4 92h-108v66h118q45 228 215 374t402 146q68 0 149 -22.5t128 -45.5l46 -22v-152q-3 8 -10.5 20.5t-35 44.5t-61.5 56.5t-92.5 44.5t-125.5 20z" />
    <glyph glyph-name="NULL" horiz-adv-x="2105" 
d="M717 -1360h-25v135h25v-35q4 11 16 11h4q13 -3 13 -19v-78q0 -16 -17 -16q-13 0 -16 12v-10zM819 -1264q4 -4 4 -12v-55q0 -16 -6 -25q-6 -6 -22 -6t-25 6q-4 12 -4 23v53q0 11 4 23q8 8 25 8q16 0 20 -2q4 0 4 8v2h-12v12h22v-12q0 -20 -10 -23zM924 -1262v13q0 12 8 20
q9 6 22 6q1 0 4.5 -1t6.5 -1q22 -3 22 -26v-21h-26v23q0 1 -2.5 3.5t-4.5 2.5q-4 0 -6 -2v-15q0 -10 2 -12l29 -28q1 -1 6 -11q2 -2 2 -14v-8q0 -11 -2 -13q-5 -16 -31 -16q-10 0 -16 2q-14 8 -14 27v24h24v-26q0 -6 6 -6q1 0 7 12v8l-3 2q0 4 -4 8l-24 27q-6 8 -6 22z
M1290 -1360h-67v135h67v-20h-41v-29h41v-20h-41v-45h41v-21zM446 -1360h-24v135h24v-35q7 11 17 11h4q12 -3 12 -19v-92h-24v86q0 4 -6 4q-3 -2 -3 -4v-86zM1380 -1333v53q0 11 4 23q5 8 25 8q18 0 23 -8q6 -9 6 -23v-53q0 -14 -6 -23q-6 -6 -23 -6q-16 0 -25 6q-4 12 -4 23
zM496 -1333v53q0 11 4 23q5 8 24 8q18 0 23 -8q6 -9 6 -23v-53q0 -14 -6 -23q-6 -6 -23 -6q-15 0 -24 6q-4 12 -4 23zM1659 -1333v53q0 11 4 23q5 8 25 8q17 0 22 -8q6 -9 6 -23v-53q0 -14 -6 -23q-6 -6 -22 -6t-25 6q-4 12 -4 23zM176 -1360h-37l-14 135h22l9 -80v-10
q1 -3 1.5 -6t1 -5t1 -3t0.5 -2h2v12q0 12 2 14l6 80h25zM578 -1290v16q0 25 28 25q19 0 23 -11q6 -6 6 -18v-82h-25v10q-9 -12 -18 -12q-14 0 -14 19v22q0 8 4 16q5 5 14 11l8 4q6 3 6 14q0 4 -2 6q0 2 -2 2h-2q-2 0 -2 -12v-10h-24zM272 -1309v-28q0 -6 4 -6q7 0 7 6v20h24
v-20q0 -25 -31 -25q-28 0 -28 27v57q0 14 4 18q11 11 24 11q12 0 21 -6q10 -7 10 -19v-35h-35zM1331 -1360h-24v109h24v-9q4 11 17 11q2 0 4 -2q12 0 12 -17v-92h-25v84q0 6 -6 6q-2 -4 -2 -6v-84zM1757 -1360h-24v109h24v-9q4 11 17 11q2 0 4 -2q12 0 12 -17v-92h-25v84
q0 6 -6 6q-2 -4 -2 -6v-84zM1122 -1360h-28v51l-21 84h27l6 -30q0 -7 4 -23q0 4 2 13t2 10l6 30h25l-23 -84v-51zM1915 -1327v-10q0 -25 -29 -25q-12 0 -20 4q-8 5 -8 19v20h24v-20q2 -7 4 -7q4 0 4 7v6q0 8 -4 12q-18 19 -26 23q-2 6 -2 16v6q0 16 10 23q12 4 18 4
q4 0 8 -1.5t8.5 -3.5t6.5 -3q6 -18 6 -21v-12h-25v12q0 6 -2 8l-2 4h-2q-2 -2 -2 -8v-8q0 -4 6 -10q8 -6 23 -21q4 -4 4 -14zM1622 -1360h-27v135h50v-20h-23v-29h23v-20h-23v-66zM1042 -1360h-26v115h-17v20h62v-20h-19v-115zM1208 -1360h-49v135h27v-114h22v-21z
M1540 -1360h-27v105h-16v16q18 0 21 14h22v-135zM336 -1266h-6v17h6v20h24v-20h7v-17h-7v-75q0 -2 5 -2h2v-17h-13q-12 0 -14 2q-4 4 -4 17v75zM1812 -1266h-6v17h6v20h25v-20h6v-17h-6v-75q0 -2 4 -2h2v-17h-12q-12 0 -14 2q-5 5 -5 17v75zM233 -1360h-24v109h24v-109z
M868 -1360h-24v109h24v-109zM799 -1241h-13v4q0 3 5 10q4 0 4 4v4q0 5 -4 5q-3 -3 -3 -5v-6h-12v6q0 10 12 13h5q13 0 16 -8v-7q0 -4 -8 -12q-2 -2 -2 -6v-2zM1481 -1360h-25v27h25v-27zM1405 -1274v-63q0 -6 2 -6q6 0 6 6v63q0 8 -4 8t-4 -8zM520 -1274v-63q0 -6 2 -6
q6 0 6 6v63q0 8 -4 8t-4 -8zM791 -1274v-63q0 -6 2 -6q6 0 6 6v63q0 8 -4 8t-4 -8zM1683 -1274v-63q0 -6 3 -6q6 0 6 6v63q0 8 -4 8q-5 0 -5 -8zM725 -1337v63q0 6 -6 6q-2 0 -2 -6v-61q0 -6 4 -6q4 2 4 4zM279 -1235l-9 -10h-14l12 20h19l14 -20h-14zM868 -1245h-24v20h24
v-20zM233 -1245h-24v20h24v-20zM289 -1395h-25v21h25v-21zM549 -1221l-14 -20h-15l8 20h21zM272 -1274v-18h11v18q0 8 -7 8q-4 0 -4 -8zM610 -1335v28q-1 -1 -4 -3t-4 -3v-28h2q6 0 6 6z" />
    </font>
</defs>
</svg>
